<?xml version="1.0" encoding="utf-8" standalone="no"?>
<!DOCTYPE svg PUBLIC "-//W3C//DTD SVG 1.1//EN"
  "http://www.w3.org/Graphics/SVG/1.1/DTD/svg11.dtd">
<svg xmlns:xlink="http://www.w3.org/1999/xlink" width="460.8pt" height="345.6pt" viewBox="0 0 460.8 345.6" xmlns="http://www.w3.org/2000/svg" version="1.1">
 <metadata>
  <rdf:RDF xmlns:dc="http://purl.org/dc/elements/1.1/" xmlns:cc="http://creativecommons.org/ns#" xmlns:rdf="http://www.w3.org/1999/02/22-rdf-syntax-ns#">
   <cc:Work>
    <dc:type rdf:resource="http://purl.org/dc/dcmitype/StillImage"/>
    <dc:date>2024-04-11T12:29:13.600671</dc:date>
    <dc:format>image/svg+xml</dc:format>
    <dc:creator>
     <cc:Agent>
      <dc:title>Matplotlib v3.7.2, https://matplotlib.org/</dc:title>
     </cc:Agent>
    </dc:creator>
   </cc:Work>
  </rdf:RDF>
 </metadata>
 <defs>
  <style type="text/css">*{stroke-linejoin: round; stroke-linecap: butt}</style>
 </defs>
 <g id="figure_1">
  <g id="patch_1">
   <path d="M 0 345.6 
L 460.8 345.6 
L 460.8 0 
L 0 0 
L 0 345.6 
z
" style="fill: none"/>
  </g>
  <g id="axes_1">
   <g id="patch_2">
    <path d="M 10.8 317.72 
L 450 317.72 
L 450 29.256 
L 10.8 29.256 
L 10.8 317.72 
z
" style="fill: none"/>
   </g>
   <g id="PolyCollection_1">
    <defs>
     <path id="m21b3e60373" d="M 197.427027 -27.88 
L 197.427027 -50.329664 
L 197.826699 -50.195235 
L 198.226372 -50.061611 
L 198.626044 -49.928787 
L 199.025717 -49.796759 
L 199.425389 -49.665521 
L 199.825061 -49.53507 
L 200.224734 -49.405399 
L 200.624406 -49.276505 
L 201.024079 -49.148382 
L 201.423751 -49.021027 
L 201.823423 -48.894435 
L 202.223096 -48.7686 
L 202.622768 -48.643519 
L 203.022441 -48.519187 
L 203.422113 -48.395599 
L 203.821785 -48.272752 
L 204.221458 -48.15064 
L 204.62113 -48.029259 
L 205.020803 -47.908605 
L 205.420475 -47.788674 
L 205.820147 -47.669461 
L 206.21982 -47.550961 
L 206.619492 -47.433171 
L 207.019165 -47.316087 
L 207.418837 -47.199703 
L 207.818509 -47.084017 
L 208.218182 -46.969023 
L 208.617854 -46.854718 
L 209.017527 -46.741097 
L 209.417199 -46.628157 
L 209.816871 -46.515893 
L 210.216544 -46.404301 
L 210.616216 -46.293377 
L 211.015889 -46.183118 
L 211.415561 -46.073519 
L 211.815233 -45.964576 
L 212.214906 -45.856285 
L 212.614578 -45.748643 
L 213.014251 -45.641646 
L 213.413923 -45.535289 
L 213.813595 -45.429569 
L 214.213268 -45.324482 
L 214.61294 -45.220024 
L 215.012613 -45.116192 
L 215.412285 -45.012982 
L 215.811957 -44.910389 
L 216.21163 -44.808411 
L 216.611302 -44.707044 
L 217.010975 -44.606283 
L 217.410647 -44.506126 
L 217.810319 -44.406569 
L 218.209992 -44.307608 
L 218.609664 -44.209239 
L 219.009337 -44.111459 
L 219.409009 -44.014265 
L 219.808681 -43.917653 
L 220.208354 -43.82162 
L 220.608026 -43.726161 
L 221.007699 -43.631274 
L 221.407371 -43.536956 
L 221.807043 -43.443202 
L 222.206716 -43.350009 
L 222.606388 -43.257375 
L 223.006061 -43.165295 
L 223.405733 -43.073766 
L 223.805405 -42.982786 
L 224.205078 -42.89235 
L 224.60475 -42.802456 
L 225.004423 -42.713101 
L 225.404095 -42.62428 
L 225.803767 -42.535991 
L 226.20344 -42.448231 
L 226.603112 -42.360996 
L 227.002785 -42.274284 
L 227.402457 -42.188091 
L 227.802129 -42.102414 
L 228.201802 -42.01725 
L 228.601474 -41.932596 
L 229.001147 -41.848449 
L 229.400819 -41.764806 
L 229.800491 -41.681664 
L 230.200164 -41.599019 
L 230.599836 -41.51687 
L 230.999509 -41.435212 
L 231.399181 -41.354043 
L 231.798853 -41.273361 
L 232.198526 -41.193161 
L 232.598198 -41.113442 
L 232.997871 -41.0342 
L 233.397543 -40.955432 
L 233.797215 -40.877137 
L 234.196888 -40.79931 
L 234.59656 -40.721949 
L 234.996233 -40.645051 
L 235.395905 -40.568614 
L 235.795577 -40.492634 
L 236.19525 -40.41711 
L 236.594922 -40.342038 
L 236.994595 -40.267415 
L 237.394267 -40.193239 
L 237.793939 -40.119507 
L 238.193612 -40.046217 
L 238.593284 -39.973366 
L 238.992957 -39.90095 
L 239.392629 -39.828969 
L 239.792301 -39.757418 
L 240.191974 -39.686296 
L 240.591646 -39.6156 
L 240.991319 -39.545327 
L 241.390991 -39.475475 
L 241.790663 -39.406042 
L 242.190336 -39.337024 
L 242.590008 -39.268419 
L 242.989681 -39.200225 
L 243.389353 -39.132439 
L 243.789025 -39.06506 
L 244.188698 -38.998083 
L 244.58837 -38.931508 
L 244.988043 -38.865332 
L 245.387715 -38.799552 
L 245.787387 -38.734165 
L 246.18706 -38.66917 
L 246.586732 -38.604565 
L 246.986405 -38.540346 
L 247.386077 -38.476512 
L 247.785749 -38.41306 
L 248.185422 -38.349988 
L 248.585094 -38.287293 
L 248.984767 -38.224975 
L 249.384439 -38.163029 
L 249.784111 -38.101454 
L 250.183784 -38.040248 
L 250.583456 -37.979408 
L 250.983129 -37.918933 
L 251.382801 -37.85882 
L 251.782473 -37.799066 
L 252.182146 -37.739671 
L 252.581818 -37.680631 
L 252.981491 -37.621945 
L 253.381163 -37.56361 
L 253.780835 -37.505625 
L 254.180508 -37.447986 
L 254.58018 -37.390693 
L 254.979853 -37.333743 
L 255.379525 -37.277134 
L 255.779197 -37.220864 
L 256.17887 -37.164931 
L 256.578542 -37.109333 
L 256.978215 -37.054067 
L 257.377887 -36.999133 
L 257.777559 -36.944527 
L 258.177232 -36.890249 
L 258.576904 -36.836296 
L 258.976577 -36.782665 
L 259.376249 -36.729356 
L 259.775921 -36.676366 
L 260.175594 -36.623693 
L 260.575266 -36.571336 
L 260.974939 -36.519292 
L 261.374611 -36.46756 
L 261.774283 -36.416138 
L 262.173956 -36.365023 
L 262.573628 -36.314215 
L 262.973301 -36.263711 
L 263.372973 -36.213509 
L 263.772645 -36.163608 
L 264.172318 -36.114006 
L 264.57199 -36.0647 
L 264.971663 -36.01569 
L 265.371335 -35.966974 
L 265.771007 -35.918549 
L 266.17068 -35.870414 
L 266.570352 -35.822568 
L 266.970025 -35.775007 
L 267.369697 -35.727732 
L 267.769369 -35.68074 
L 268.169042 -35.634029 
L 268.568714 -35.587598 
L 268.968387 -35.541445 
L 269.368059 -35.495568 
L 269.767731 -35.449966 
L 270.167404 -35.404637 
L 270.567076 -35.359579 
L 270.966749 -35.314791 
L 271.366421 -35.270272 
L 271.766093 -35.226019 
L 272.165766 -35.182031 
L 272.565438 -35.138306 
L 272.965111 -35.094843 
L 273.364783 -35.051641 
L 273.764455 -35.008697 
L 274.164128 -34.96601 
L 274.5638 -34.923579 
L 274.963473 -34.881402 
L 275.363145 -34.839478 
L 275.762817 -34.797804 
L 276.16249 -34.756381 
L 276.562162 -34.715205 
L 276.961835 -34.674276 
L 277.361507 -34.633591 
L 277.761179 -34.593151 
L 278.160852 -34.552952 
L 278.560524 -34.512995 
L 278.960197 -34.473276 
L 279.359869 -34.433796 
L 279.759541 -34.394552 
L 280.159214 -34.355542 
L 280.558886 -34.316767 
L 280.958559 -34.278223 
L 281.358231 -34.239911 
L 281.757903 -34.201828 
L 282.157576 -34.163973 
L 282.557248 -34.126344 
L 282.956921 -34.088941 
L 283.356593 -34.051762 
L 283.756265 -34.014805 
L 284.155938 -33.97807 
L 284.55561 -33.941555 
L 284.955283 -33.905258 
L 285.354955 -33.869179 
L 285.754627 -33.833316 
L 286.1543 -33.797667 
L 286.553972 -33.762232 
L 286.953645 -33.727009 
L 287.353317 -33.691997 
L 287.752989 -33.657195 
L 288.152662 -33.622601 
L 288.552334 -33.588214 
L 288.952007 -33.554034 
L 289.351679 -33.520057 
L 289.751351 -33.486285 
L 290.151024 -33.452714 
L 290.550696 -33.419345 
L 290.950369 -33.386175 
L 291.350041 -33.353204 
L 291.749713 -33.320431 
L 292.149386 -33.287853 
L 292.549058 -33.255471 
L 292.948731 -33.223283 
L 293.348403 -33.191287 
L 293.748075 -33.159483 
L 294.147748 -33.127869 
L 294.54742 -33.096445 
L 294.947093 -33.065209 
L 295.346765 -33.03416 
L 295.746437 -33.003297 
L 296.14611 -32.972619 
L 296.545782 -32.942124 
L 296.945455 -32.911812 
L 297.345127 -32.881681 
L 297.744799 -32.851731 
L 298.144472 -32.82196 
L 298.544144 -32.792368 
L 298.943817 -32.762953 
L 299.343489 -32.733714 
L 299.743161 -32.704649 
L 300.142834 -32.675759 
L 300.542506 -32.647042 
L 300.942179 -32.618497 
L 301.341851 -32.590123 
L 301.741523 -32.561919 
L 302.141196 -32.533884 
L 302.540868 -32.506016 
L 302.940541 -32.478315 
L 303.340213 -32.450781 
L 303.739885 -32.423411 
L 304.139558 -32.396205 
L 304.53923 -32.369162 
L 304.938903 -32.342281 
L 305.338575 -32.315561 
L 305.738247 -32.289 
L 306.13792 -32.262599 
L 306.537592 -32.236356 
L 306.937265 -32.21027 
L 307.336937 -32.184341 
L 307.736609 -32.158566 
L 308.136282 -32.132946 
L 308.535954 -32.10748 
L 308.935627 -32.082165 
L 309.335299 -32.057003 
L 309.734971 -32.031991 
L 310.134644 -32.007129 
L 310.534316 -31.982415 
L 310.933989 -31.95785 
L 311.333661 -31.933432 
L 311.733333 -31.90916 
L 312.133006 -31.885033 
L 312.532678 -31.861051 
L 312.932351 -31.837213 
L 313.332023 -31.813517 
L 313.731695 -31.789963 
L 314.131368 -31.76655 
L 314.53104 -31.743277 
L 314.930713 -31.720144 
L 315.330385 -31.697149 
L 315.730057 -31.674292 
L 316.12973 -31.651572 
L 316.529402 -31.628988 
L 316.929075 -31.606539 
L 317.328747 -31.584224 
L 317.728419 -31.562043 
L 318.128092 -31.539995 
L 318.527764 -31.518079 
L 318.927437 -31.496294 
L 319.327109 -31.47464 
L 319.726781 -31.453115 
L 320.126454 -31.431719 
L 320.526126 -31.410452 
L 320.925799 -31.389311 
L 321.325471 -31.368297 
L 321.725143 -31.347409 
L 322.124816 -31.326647 
L 322.524488 -31.306008 
L 322.924161 -31.285493 
L 323.323833 -31.265101 
L 323.723505 -31.244831 
L 324.123178 -31.224682 
L 324.52285 -31.204654 
L 324.922523 -31.184746 
L 325.322195 -31.164957 
L 325.721867 -31.145287 
L 326.12154 -31.125735 
L 326.521212 -31.106299 
L 326.920885 -31.08698 
L 327.320557 -31.067777 
L 327.720229 -31.048688 
L 328.119902 -31.029714 
L 328.519574 -31.010854 
L 328.919247 -30.992106 
L 329.318919 -30.973471 
L 329.718591 -30.954947 
L 330.118264 -30.936534 
L 330.517936 -30.918232 
L 330.917609 -30.900039 
L 331.317281 -30.881955 
L 331.716953 -30.863979 
L 332.116626 -30.846111 
L 332.516298 -30.82835 
L 332.915971 -30.810695 
L 333.315643 -30.793146 
L 333.715315 -30.775702 
L 334.114988 -30.758363 
L 334.51466 -30.741127 
L 334.914333 -30.723994 
L 335.314005 -30.706965 
L 335.713677 -30.690037 
L 336.11335 -30.67321 
L 336.513022 -30.656484 
L 336.912695 -30.639859 
L 337.312367 -30.623333 
L 337.712039 -30.606906 
L 338.111712 -30.590577 
L 338.511384 -30.574346 
L 338.911057 -30.558212 
L 339.310729 -30.542175 
L 339.710401 -30.526234 
L 340.110074 -30.510388 
L 340.509746 -30.494638 
L 340.909419 -30.478981 
L 341.309091 -30.463418 
L 341.708763 -30.447949 
L 342.108436 -30.432572 
L 342.508108 -30.417287 
L 342.907781 -30.402094 
L 343.307453 -30.386992 
L 343.707125 -30.37198 
L 344.106798 -30.357058 
L 344.50647 -30.342225 
L 344.906143 -30.327481 
L 345.305815 -30.312826 
L 345.705487 -30.298258 
L 346.10516 -30.283777 
L 346.504832 -30.269384 
L 346.904505 -30.255076 
L 347.304177 -30.240854 
L 347.703849 -30.226717 
L 348.103522 -30.212665 
L 348.503194 -30.198697 
L 348.902867 -30.184813 
L 349.302539 -30.171011 
L 349.702211 -30.157293 
L 350.101884 -30.143656 
L 350.501556 -30.130101 
L 350.901229 -30.116628 
L 351.300901 -30.103235 
L 351.700573 -30.089922 
L 352.100246 -30.076689 
L 352.499918 -30.063535 
L 352.89959 -30.05046 
L 353.299263 -30.037464 
L 353.698935 -30.024545 
L 354.098608 -30.011703 
L 354.49828 -29.998939 
L 354.897952 -29.98625 
L 355.297625 -29.973638 
L 355.697297 -29.961101 
L 356.09697 -29.94864 
L 356.496642 -29.936253 
L 356.896314 -29.92394 
L 357.295987 -29.911701 
L 357.695659 -29.899535 
L 358.095332 -29.887442 
L 358.495004 -29.875421 
L 358.894676 -29.863473 
L 359.294349 -29.851596 
L 359.694021 -29.83979 
L 360.093694 -29.828054 
L 360.493366 -29.81639 
L 360.893038 -29.804794 
L 361.292711 -29.793269 
L 361.692383 -29.781812 
L 362.092056 -29.770424 
L 362.491728 -29.759104 
L 362.8914 -29.747852 
L 363.291073 -29.736667 
L 363.690745 -29.72555 
L 364.090418 -29.714498 
L 364.49009 -29.703513 
L 364.889762 -29.692594 
L 365.289435 -29.68174 
L 365.689107 -29.670952 
L 366.08878 -29.660227 
L 366.488452 -29.649567 
L 366.888124 -29.638971 
L 367.287797 -29.628438 
L 367.687469 -29.617969 
L 368.087142 -29.607562 
L 368.486814 -29.597217 
L 368.886486 -29.586934 
L 369.286159 -29.576713 
L 369.685831 -29.566553 
L 370.085504 -29.556454 
L 370.485176 -29.546416 
L 370.884848 -29.536437 
L 371.284521 -29.526518 
L 371.684193 -29.516659 
L 372.083866 -29.506859 
L 372.483538 -29.497117 
L 372.88321 -29.487434 
L 373.282883 -29.477808 
L 373.682555 -29.468241 
L 374.082228 -29.45873 
L 374.4819 -29.449277 
L 374.881572 -29.43988 
L 375.281245 -29.43054 
L 375.680917 -29.421255 
L 376.08059 -29.412026 
L 376.480262 -29.402852 
L 376.879934 -29.393733 
L 377.279607 -29.384669 
L 377.679279 -29.375659 
L 378.078952 -29.366703 
L 378.478624 -29.357801 
L 378.878296 -29.348952 
L 379.277969 -29.340155 
L 379.677641 -29.331412 
L 380.077314 -29.322721 
L 380.476986 -29.314082 
L 380.876658 -29.305495 
L 381.276331 -29.296959 
L 381.676003 -29.288474 
L 382.075676 -29.28004 
L 382.475348 -29.271657 
L 382.87502 -29.263323 
L 383.274693 -29.25504 
L 383.674365 -29.246806 
L 384.074038 -29.238622 
L 384.47371 -29.230486 
L 384.873382 -29.2224 
L 385.273055 -29.214361 
L 385.672727 -29.206371 
L 386.0724 -29.198429 
L 386.472072 -29.190534 
L 386.871744 -29.182687 
L 387.271417 -29.174886 
L 387.671089 -29.167132 
L 388.070762 -29.159425 
L 388.470434 -29.151764 
L 388.870106 -29.144148 
L 389.269779 -29.136579 
L 389.669451 -29.129054 
L 390.069124 -29.121575 
L 390.468796 -29.11414 
L 390.868468 -29.10675 
L 391.268141 -29.099405 
L 391.667813 -29.092103 
L 392.067486 -29.084845 
L 392.467158 -29.07763 
L 392.86683 -29.070459 
L 393.266503 -29.06333 
L 393.666175 -29.056244 
L 394.065848 -29.049201 
L 394.46552 -29.0422 
L 394.865192 -29.035241 
L 395.264865 -29.028323 
L 395.664537 -29.021447 
L 396.06421 -29.014612 
L 396.463882 -29.007818 
L 396.863554 -29.001064 
L 397.263227 -28.994352 
L 397.662899 -28.987679 
L 398.062572 -28.981046 
L 398.462244 -28.974453 
L 398.861916 -28.967899 
L 399.261589 -28.961385 
L 399.661261 -28.95491 
L 400.060934 -28.948473 
L 400.460606 -28.942075 
L 400.860278 -28.935715 
L 401.259951 -28.929394 
L 401.659623 -28.92311 
L 402.059296 -28.916864 
L 402.458968 -28.910655 
L 402.85864 -28.904483 
L 403.258313 -28.898349 
L 403.657985 -28.892251 
L 404.057658 -28.88619 
L 404.45733 -28.880165 
L 404.857002 -28.874176 
L 405.256675 -28.868222 
L 405.656347 -28.862305 
L 406.05602 -28.856423 
L 406.455692 -28.850576 
L 406.855364 -28.844764 
L 407.255037 -28.838987 
L 407.654709 -28.833245 
L 408.054382 -28.827537 
L 408.454054 -28.821863 
L 408.853726 -28.816223 
L 409.253399 -28.810617 
L 409.653071 -28.805044 
L 410.052744 -28.799505 
L 410.452416 -28.793999 
L 410.852088 -28.788526 
L 411.251761 -28.783086 
L 411.651433 -28.777678 
L 412.051106 -28.772303 
L 412.450778 -28.76696 
L 412.85045 -28.761649 
L 413.250123 -28.756369 
L 413.649795 -28.751122 
L 414.049468 -28.745905 
L 414.44914 -28.74072 
L 414.848812 -28.735566 
L 415.248485 -28.730443 
L 415.648157 -28.725351 
L 416.04783 -28.720289 
L 416.447502 -28.715257 
L 416.847174 -28.710256 
L 417.246847 -28.705284 
L 417.646519 -28.700342 
L 418.046192 -28.69543 
L 418.445864 -28.690547 
L 418.845536 -28.685694 
L 419.245209 -28.680869 
L 419.644881 -28.676074 
L 420.044554 -28.671307 
L 420.444226 -28.666568 
L 420.843898 -28.661858 
L 421.243571 -28.657177 
L 421.643243 -28.652523 
L 422.042916 -28.647897 
L 422.442588 -28.643299 
L 422.84226 -28.638728 
L 423.241933 -28.634185 
L 423.641605 -28.629669 
L 424.041278 -28.62518 
L 424.44095 -28.620718 
L 424.840622 -28.616282 
L 425.240295 -28.611873 
L 425.639967 -28.607491 
L 426.03964 -28.603135 
L 426.439312 -28.598805 
L 426.838984 -28.5945 
L 427.238657 -28.590222 
L 427.638329 -28.585969 
L 428.038002 -28.581742 
L 428.437674 -28.57754 
L 428.837346 -28.573363 
L 429.237019 -28.569211 
L 429.636691 -28.565084 
L 430.036364 -28.560982 
L 430.036364 -27.88 
L 430.036364 -27.88 
L 429.636691 -27.88 
L 429.237019 -27.88 
L 428.837346 -27.88 
L 428.437674 -27.88 
L 428.038002 -27.88 
L 427.638329 -27.88 
L 427.238657 -27.88 
L 426.838984 -27.88 
L 426.439312 -27.88 
L 426.03964 -27.88 
L 425.639967 -27.88 
L 425.240295 -27.88 
L 424.840622 -27.88 
L 424.44095 -27.88 
L 424.041278 -27.88 
L 423.641605 -27.88 
L 423.241933 -27.88 
L 422.84226 -27.88 
L 422.442588 -27.88 
L 422.042916 -27.88 
L 421.643243 -27.88 
L 421.243571 -27.88 
L 420.843898 -27.88 
L 420.444226 -27.88 
L 420.044554 -27.88 
L 419.644881 -27.88 
L 419.245209 -27.88 
L 418.845536 -27.88 
L 418.445864 -27.88 
L 418.046192 -27.88 
L 417.646519 -27.88 
L 417.246847 -27.88 
L 416.847174 -27.88 
L 416.447502 -27.88 
L 416.04783 -27.88 
L 415.648157 -27.88 
L 415.248485 -27.88 
L 414.848812 -27.88 
L 414.44914 -27.88 
L 414.049468 -27.88 
L 413.649795 -27.88 
L 413.250123 -27.88 
L 412.85045 -27.88 
L 412.450778 -27.88 
L 412.051106 -27.88 
L 411.651433 -27.88 
L 411.251761 -27.88 
L 410.852088 -27.88 
L 410.452416 -27.88 
L 410.052744 -27.88 
L 409.653071 -27.88 
L 409.253399 -27.88 
L 408.853726 -27.88 
L 408.454054 -27.88 
L 408.054382 -27.88 
L 407.654709 -27.88 
L 407.255037 -27.88 
L 406.855364 -27.88 
L 406.455692 -27.88 
L 406.05602 -27.88 
L 405.656347 -27.88 
L 405.256675 -27.88 
L 404.857002 -27.88 
L 404.45733 -27.88 
L 404.057658 -27.88 
L 403.657985 -27.88 
L 403.258313 -27.88 
L 402.85864 -27.88 
L 402.458968 -27.88 
L 402.059296 -27.88 
L 401.659623 -27.88 
L 401.259951 -27.88 
L 400.860278 -27.88 
L 400.460606 -27.88 
L 400.060934 -27.88 
L 399.661261 -27.88 
L 399.261589 -27.88 
L 398.861916 -27.88 
L 398.462244 -27.88 
L 398.062572 -27.88 
L 397.662899 -27.88 
L 397.263227 -27.88 
L 396.863554 -27.88 
L 396.463882 -27.88 
L 396.06421 -27.88 
L 395.664537 -27.88 
L 395.264865 -27.88 
L 394.865192 -27.88 
L 394.46552 -27.88 
L 394.065848 -27.88 
L 393.666175 -27.88 
L 393.266503 -27.88 
L 392.86683 -27.88 
L 392.467158 -27.88 
L 392.067486 -27.88 
L 391.667813 -27.88 
L 391.268141 -27.88 
L 390.868468 -27.88 
L 390.468796 -27.88 
L 390.069124 -27.88 
L 389.669451 -27.88 
L 389.269779 -27.88 
L 388.870106 -27.88 
L 388.470434 -27.88 
L 388.070762 -27.88 
L 387.671089 -27.88 
L 387.271417 -27.88 
L 386.871744 -27.88 
L 386.472072 -27.88 
L 386.0724 -27.88 
L 385.672727 -27.88 
L 385.273055 -27.88 
L 384.873382 -27.88 
L 384.47371 -27.88 
L 384.074038 -27.88 
L 383.674365 -27.88 
L 383.274693 -27.88 
L 382.87502 -27.88 
L 382.475348 -27.88 
L 382.075676 -27.88 
L 381.676003 -27.88 
L 381.276331 -27.88 
L 380.876658 -27.88 
L 380.476986 -27.88 
L 380.077314 -27.88 
L 379.677641 -27.88 
L 379.277969 -27.88 
L 378.878296 -27.88 
L 378.478624 -27.88 
L 378.078952 -27.88 
L 377.679279 -27.88 
L 377.279607 -27.88 
L 376.879934 -27.88 
L 376.480262 -27.88 
L 376.08059 -27.88 
L 375.680917 -27.88 
L 375.281245 -27.88 
L 374.881572 -27.88 
L 374.4819 -27.88 
L 374.082228 -27.88 
L 373.682555 -27.88 
L 373.282883 -27.88 
L 372.88321 -27.88 
L 372.483538 -27.88 
L 372.083866 -27.88 
L 371.684193 -27.88 
L 371.284521 -27.88 
L 370.884848 -27.88 
L 370.485176 -27.88 
L 370.085504 -27.88 
L 369.685831 -27.88 
L 369.286159 -27.88 
L 368.886486 -27.88 
L 368.486814 -27.88 
L 368.087142 -27.88 
L 367.687469 -27.88 
L 367.287797 -27.88 
L 366.888124 -27.88 
L 366.488452 -27.88 
L 366.08878 -27.88 
L 365.689107 -27.88 
L 365.289435 -27.88 
L 364.889762 -27.88 
L 364.49009 -27.88 
L 364.090418 -27.88 
L 363.690745 -27.88 
L 363.291073 -27.88 
L 362.8914 -27.88 
L 362.491728 -27.88 
L 362.092056 -27.88 
L 361.692383 -27.88 
L 361.292711 -27.88 
L 360.893038 -27.88 
L 360.493366 -27.88 
L 360.093694 -27.88 
L 359.694021 -27.88 
L 359.294349 -27.88 
L 358.894676 -27.88 
L 358.495004 -27.88 
L 358.095332 -27.88 
L 357.695659 -27.88 
L 357.295987 -27.88 
L 356.896314 -27.88 
L 356.496642 -27.88 
L 356.09697 -27.88 
L 355.697297 -27.88 
L 355.297625 -27.88 
L 354.897952 -27.88 
L 354.49828 -27.88 
L 354.098608 -27.88 
L 353.698935 -27.88 
L 353.299263 -27.88 
L 352.89959 -27.88 
L 352.499918 -27.88 
L 352.100246 -27.88 
L 351.700573 -27.88 
L 351.300901 -27.88 
L 350.901229 -27.88 
L 350.501556 -27.88 
L 350.101884 -27.88 
L 349.702211 -27.88 
L 349.302539 -27.88 
L 348.902867 -27.88 
L 348.503194 -27.88 
L 348.103522 -27.88 
L 347.703849 -27.88 
L 347.304177 -27.88 
L 346.904505 -27.88 
L 346.504832 -27.88 
L 346.10516 -27.88 
L 345.705487 -27.88 
L 345.305815 -27.88 
L 344.906143 -27.88 
L 344.50647 -27.88 
L 344.106798 -27.88 
L 343.707125 -27.88 
L 343.307453 -27.88 
L 342.907781 -27.88 
L 342.508108 -27.88 
L 342.108436 -27.88 
L 341.708763 -27.88 
L 341.309091 -27.88 
L 340.909419 -27.88 
L 340.509746 -27.88 
L 340.110074 -27.88 
L 339.710401 -27.88 
L 339.310729 -27.88 
L 338.911057 -27.88 
L 338.511384 -27.88 
L 338.111712 -27.88 
L 337.712039 -27.88 
L 337.312367 -27.88 
L 336.912695 -27.88 
L 336.513022 -27.88 
L 336.11335 -27.88 
L 335.713677 -27.88 
L 335.314005 -27.88 
L 334.914333 -27.88 
L 334.51466 -27.88 
L 334.114988 -27.88 
L 333.715315 -27.88 
L 333.315643 -27.88 
L 332.915971 -27.88 
L 332.516298 -27.88 
L 332.116626 -27.88 
L 331.716953 -27.88 
L 331.317281 -27.88 
L 330.917609 -27.88 
L 330.517936 -27.88 
L 330.118264 -27.88 
L 329.718591 -27.88 
L 329.318919 -27.88 
L 328.919247 -27.88 
L 328.519574 -27.88 
L 328.119902 -27.88 
L 327.720229 -27.88 
L 327.320557 -27.88 
L 326.920885 -27.88 
L 326.521212 -27.88 
L 326.12154 -27.88 
L 325.721867 -27.88 
L 325.322195 -27.88 
L 324.922523 -27.88 
L 324.52285 -27.88 
L 324.123178 -27.88 
L 323.723505 -27.88 
L 323.323833 -27.88 
L 322.924161 -27.88 
L 322.524488 -27.88 
L 322.124816 -27.88 
L 321.725143 -27.88 
L 321.325471 -27.88 
L 320.925799 -27.88 
L 320.526126 -27.88 
L 320.126454 -27.88 
L 319.726781 -27.88 
L 319.327109 -27.88 
L 318.927437 -27.88 
L 318.527764 -27.88 
L 318.128092 -27.88 
L 317.728419 -27.88 
L 317.328747 -27.88 
L 316.929075 -27.88 
L 316.529402 -27.88 
L 316.12973 -27.88 
L 315.730057 -27.88 
L 315.330385 -27.88 
L 314.930713 -27.88 
L 314.53104 -27.88 
L 314.131368 -27.88 
L 313.731695 -27.88 
L 313.332023 -27.88 
L 312.932351 -27.88 
L 312.532678 -27.88 
L 312.133006 -27.88 
L 311.733333 -27.88 
L 311.333661 -27.88 
L 310.933989 -27.88 
L 310.534316 -27.88 
L 310.134644 -27.88 
L 309.734971 -27.88 
L 309.335299 -27.88 
L 308.935627 -27.88 
L 308.535954 -27.88 
L 308.136282 -27.88 
L 307.736609 -27.88 
L 307.336937 -27.88 
L 306.937265 -27.88 
L 306.537592 -27.88 
L 306.13792 -27.88 
L 305.738247 -27.88 
L 305.338575 -27.88 
L 304.938903 -27.88 
L 304.53923 -27.88 
L 304.139558 -27.88 
L 303.739885 -27.88 
L 303.340213 -27.88 
L 302.940541 -27.88 
L 302.540868 -27.88 
L 302.141196 -27.88 
L 301.741523 -27.88 
L 301.341851 -27.88 
L 300.942179 -27.88 
L 300.542506 -27.88 
L 300.142834 -27.88 
L 299.743161 -27.88 
L 299.343489 -27.88 
L 298.943817 -27.88 
L 298.544144 -27.88 
L 298.144472 -27.88 
L 297.744799 -27.88 
L 297.345127 -27.88 
L 296.945455 -27.88 
L 296.545782 -27.88 
L 296.14611 -27.88 
L 295.746437 -27.88 
L 295.346765 -27.88 
L 294.947093 -27.88 
L 294.54742 -27.88 
L 294.147748 -27.88 
L 293.748075 -27.88 
L 293.348403 -27.88 
L 292.948731 -27.88 
L 292.549058 -27.88 
L 292.149386 -27.88 
L 291.749713 -27.88 
L 291.350041 -27.88 
L 290.950369 -27.88 
L 290.550696 -27.88 
L 290.151024 -27.88 
L 289.751351 -27.88 
L 289.351679 -27.88 
L 288.952007 -27.88 
L 288.552334 -27.88 
L 288.152662 -27.88 
L 287.752989 -27.88 
L 287.353317 -27.88 
L 286.953645 -27.88 
L 286.553972 -27.88 
L 286.1543 -27.88 
L 285.754627 -27.88 
L 285.354955 -27.88 
L 284.955283 -27.88 
L 284.55561 -27.88 
L 284.155938 -27.88 
L 283.756265 -27.88 
L 283.356593 -27.88 
L 282.956921 -27.88 
L 282.557248 -27.88 
L 282.157576 -27.88 
L 281.757903 -27.88 
L 281.358231 -27.88 
L 280.958559 -27.88 
L 280.558886 -27.88 
L 280.159214 -27.88 
L 279.759541 -27.88 
L 279.359869 -27.88 
L 278.960197 -27.88 
L 278.560524 -27.88 
L 278.160852 -27.88 
L 277.761179 -27.88 
L 277.361507 -27.88 
L 276.961835 -27.88 
L 276.562162 -27.88 
L 276.16249 -27.88 
L 275.762817 -27.88 
L 275.363145 -27.88 
L 274.963473 -27.88 
L 274.5638 -27.88 
L 274.164128 -27.88 
L 273.764455 -27.88 
L 273.364783 -27.88 
L 272.965111 -27.88 
L 272.565438 -27.88 
L 272.165766 -27.88 
L 271.766093 -27.88 
L 271.366421 -27.88 
L 270.966749 -27.88 
L 270.567076 -27.88 
L 270.167404 -27.88 
L 269.767731 -27.88 
L 269.368059 -27.88 
L 268.968387 -27.88 
L 268.568714 -27.88 
L 268.169042 -27.88 
L 267.769369 -27.88 
L 267.369697 -27.88 
L 266.970025 -27.88 
L 266.570352 -27.88 
L 266.17068 -27.88 
L 265.771007 -27.88 
L 265.371335 -27.88 
L 264.971663 -27.88 
L 264.57199 -27.88 
L 264.172318 -27.88 
L 263.772645 -27.88 
L 263.372973 -27.88 
L 262.973301 -27.88 
L 262.573628 -27.88 
L 262.173956 -27.88 
L 261.774283 -27.88 
L 261.374611 -27.88 
L 260.974939 -27.88 
L 260.575266 -27.88 
L 260.175594 -27.88 
L 259.775921 -27.88 
L 259.376249 -27.88 
L 258.976577 -27.88 
L 258.576904 -27.88 
L 258.177232 -27.88 
L 257.777559 -27.88 
L 257.377887 -27.88 
L 256.978215 -27.88 
L 256.578542 -27.88 
L 256.17887 -27.88 
L 255.779197 -27.88 
L 255.379525 -27.88 
L 254.979853 -27.88 
L 254.58018 -27.88 
L 254.180508 -27.88 
L 253.780835 -27.88 
L 253.381163 -27.88 
L 252.981491 -27.88 
L 252.581818 -27.88 
L 252.182146 -27.88 
L 251.782473 -27.88 
L 251.382801 -27.88 
L 250.983129 -27.88 
L 250.583456 -27.88 
L 250.183784 -27.88 
L 249.784111 -27.88 
L 249.384439 -27.88 
L 248.984767 -27.88 
L 248.585094 -27.88 
L 248.185422 -27.88 
L 247.785749 -27.88 
L 247.386077 -27.88 
L 246.986405 -27.88 
L 246.586732 -27.88 
L 246.18706 -27.88 
L 245.787387 -27.88 
L 245.387715 -27.88 
L 244.988043 -27.88 
L 244.58837 -27.88 
L 244.188698 -27.88 
L 243.789025 -27.88 
L 243.389353 -27.88 
L 242.989681 -27.88 
L 242.590008 -27.88 
L 242.190336 -27.88 
L 241.790663 -27.88 
L 241.390991 -27.88 
L 240.991319 -27.88 
L 240.591646 -27.88 
L 240.191974 -27.88 
L 239.792301 -27.88 
L 239.392629 -27.88 
L 238.992957 -27.88 
L 238.593284 -27.88 
L 238.193612 -27.88 
L 237.793939 -27.88 
L 237.394267 -27.88 
L 236.994595 -27.88 
L 236.594922 -27.88 
L 236.19525 -27.88 
L 235.795577 -27.88 
L 235.395905 -27.88 
L 234.996233 -27.88 
L 234.59656 -27.88 
L 234.196888 -27.88 
L 233.797215 -27.88 
L 233.397543 -27.88 
L 232.997871 -27.88 
L 232.598198 -27.88 
L 232.198526 -27.88 
L 231.798853 -27.88 
L 231.399181 -27.88 
L 230.999509 -27.88 
L 230.599836 -27.88 
L 230.200164 -27.88 
L 229.800491 -27.88 
L 229.400819 -27.88 
L 229.001147 -27.88 
L 228.601474 -27.88 
L 228.201802 -27.88 
L 227.802129 -27.88 
L 227.402457 -27.88 
L 227.002785 -27.88 
L 226.603112 -27.88 
L 226.20344 -27.88 
L 225.803767 -27.88 
L 225.404095 -27.88 
L 225.004423 -27.88 
L 224.60475 -27.88 
L 224.205078 -27.88 
L 223.805405 -27.88 
L 223.405733 -27.88 
L 223.006061 -27.88 
L 222.606388 -27.88 
L 222.206716 -27.88 
L 221.807043 -27.88 
L 221.407371 -27.88 
L 221.007699 -27.88 
L 220.608026 -27.88 
L 220.208354 -27.88 
L 219.808681 -27.88 
L 219.409009 -27.88 
L 219.009337 -27.88 
L 218.609664 -27.88 
L 218.209992 -27.88 
L 217.810319 -27.88 
L 217.410647 -27.88 
L 217.010975 -27.88 
L 216.611302 -27.88 
L 216.21163 -27.88 
L 215.811957 -27.88 
L 215.412285 -27.88 
L 215.012613 -27.88 
L 214.61294 -27.88 
L 214.213268 -27.88 
L 213.813595 -27.88 
L 213.413923 -27.88 
L 213.014251 -27.88 
L 212.614578 -27.88 
L 212.214906 -27.88 
L 211.815233 -27.88 
L 211.415561 -27.88 
L 211.015889 -27.88 
L 210.616216 -27.88 
L 210.216544 -27.88 
L 209.816871 -27.88 
L 209.417199 -27.88 
L 209.017527 -27.88 
L 208.617854 -27.88 
L 208.218182 -27.88 
L 207.818509 -27.88 
L 207.418837 -27.88 
L 207.019165 -27.88 
L 206.619492 -27.88 
L 206.21982 -27.88 
L 205.820147 -27.88 
L 205.420475 -27.88 
L 205.020803 -27.88 
L 204.62113 -27.88 
L 204.221458 -27.88 
L 203.821785 -27.88 
L 203.422113 -27.88 
L 203.022441 -27.88 
L 202.622768 -27.88 
L 202.223096 -27.88 
L 201.823423 -27.88 
L 201.423751 -27.88 
L 201.024079 -27.88 
L 200.624406 -27.88 
L 200.224734 -27.88 
L 199.825061 -27.88 
L 199.425389 -27.88 
L 199.025717 -27.88 
L 198.626044 -27.88 
L 198.226372 -27.88 
L 197.826699 -27.88 
L 197.427027 -27.88 
z
" style="stroke: #ff7f0e; stroke-opacity: 0.8"/>
    </defs>
    <g clip-path="url(#p65e8722481)">
     <use xlink:href="#m21b3e60373" x="0" y="345.6" style="fill: #ff7f0e; fill-opacity: 0.8; stroke: #ff7f0e; stroke-opacity: 0.8"/>
    </g>
   </g>
   <g id="matplotlib.axis_1">
    <g id="xtick_1">
     <g id="line2d_1">
      <defs>
       <path id="m04cd375724" d="M 0 0 
L 0 3.5 
" style="stroke: #000000; stroke-width: 0.8"/>
      </defs>
      <g>
       <use xlink:href="#m04cd375724" x="30.763636" y="317.72" style="stroke: #000000; stroke-width: 0.8"/>
      </g>
     </g>
     <g id="text_1">
      <!-- 0 -->
      <g transform="translate(27.582386 332.318437) scale(0.1 -0.1)">
       <defs>
        <path id="DejaVuSans-30" d="M 2034 4250 
Q 1547 4250 1301 3770 
Q 1056 3291 1056 2328 
Q 1056 1369 1301 889 
Q 1547 409 2034 409 
Q 2525 409 2770 889 
Q 3016 1369 3016 2328 
Q 3016 3291 2770 3770 
Q 2525 4250 2034 4250 
z
M 2034 4750 
Q 2819 4750 3233 4129 
Q 3647 3509 3647 2328 
Q 3647 1150 3233 529 
Q 2819 -91 2034 -91 
Q 1250 -91 836 529 
Q 422 1150 422 2328 
Q 422 3509 836 4129 
Q 1250 4750 2034 4750 
z
" transform="scale(0.015625)"/>
       </defs>
       <use xlink:href="#DejaVuSans-30"/>
      </g>
     </g>
    </g>
    <g id="xtick_2">
     <g id="line2d_2">
      <g>
       <use xlink:href="#m04cd375724" x="97.309091" y="317.72" style="stroke: #000000; stroke-width: 0.8"/>
      </g>
     </g>
     <g id="text_2">
      <!-- 2 -->
      <g transform="translate(94.127841 332.318437) scale(0.1 -0.1)">
       <defs>
        <path id="DejaVuSans-32" d="M 1228 531 
L 3431 531 
L 3431 0 
L 469 0 
L 469 531 
Q 828 903 1448 1529 
Q 2069 2156 2228 2338 
Q 2531 2678 2651 2914 
Q 2772 3150 2772 3378 
Q 2772 3750 2511 3984 
Q 2250 4219 1831 4219 
Q 1534 4219 1204 4116 
Q 875 4013 500 3803 
L 500 4441 
Q 881 4594 1212 4672 
Q 1544 4750 1819 4750 
Q 2544 4750 2975 4387 
Q 3406 4025 3406 3419 
Q 3406 3131 3298 2873 
Q 3191 2616 2906 2266 
Q 2828 2175 2409 1742 
Q 1991 1309 1228 531 
z
" transform="scale(0.015625)"/>
       </defs>
       <use xlink:href="#DejaVuSans-32"/>
      </g>
     </g>
    </g>
    <g id="xtick_3">
     <g id="line2d_3">
      <g>
       <use xlink:href="#m04cd375724" x="163.854545" y="317.72" style="stroke: #000000; stroke-width: 0.8"/>
      </g>
     </g>
     <g id="text_3">
      <!-- 4 -->
      <g transform="translate(160.673295 332.318437) scale(0.1 -0.1)">
       <defs>
        <path id="DejaVuSans-34" d="M 2419 4116 
L 825 1625 
L 2419 1625 
L 2419 4116 
z
M 2253 4666 
L 3047 4666 
L 3047 1625 
L 3713 1625 
L 3713 1100 
L 3047 1100 
L 3047 0 
L 2419 0 
L 2419 1100 
L 313 1100 
L 313 1709 
L 2253 4666 
z
" transform="scale(0.015625)"/>
       </defs>
       <use xlink:href="#DejaVuSans-34"/>
      </g>
     </g>
    </g>
    <g id="xtick_4">
     <g id="line2d_4">
      <g>
       <use xlink:href="#m04cd375724" x="230.4" y="317.72" style="stroke: #000000; stroke-width: 0.8"/>
      </g>
     </g>
     <g id="text_4">
      <!-- 6 -->
      <g transform="translate(227.21875 332.318437) scale(0.1 -0.1)">
       <defs>
        <path id="DejaVuSans-36" d="M 2113 2584 
Q 1688 2584 1439 2293 
Q 1191 2003 1191 1497 
Q 1191 994 1439 701 
Q 1688 409 2113 409 
Q 2538 409 2786 701 
Q 3034 994 3034 1497 
Q 3034 2003 2786 2293 
Q 2538 2584 2113 2584 
z
M 3366 4563 
L 3366 3988 
Q 3128 4100 2886 4159 
Q 2644 4219 2406 4219 
Q 1781 4219 1451 3797 
Q 1122 3375 1075 2522 
Q 1259 2794 1537 2939 
Q 1816 3084 2150 3084 
Q 2853 3084 3261 2657 
Q 3669 2231 3669 1497 
Q 3669 778 3244 343 
Q 2819 -91 2113 -91 
Q 1303 -91 875 529 
Q 447 1150 447 2328 
Q 447 3434 972 4092 
Q 1497 4750 2381 4750 
Q 2619 4750 2861 4703 
Q 3103 4656 3366 4563 
z
" transform="scale(0.015625)"/>
       </defs>
       <use xlink:href="#DejaVuSans-36"/>
      </g>
     </g>
    </g>
    <g id="xtick_5">
     <g id="line2d_5">
      <g>
       <use xlink:href="#m04cd375724" x="296.945455" y="317.72" style="stroke: #000000; stroke-width: 0.8"/>
      </g>
     </g>
     <g id="text_5">
      <!-- 8 -->
      <g transform="translate(293.764205 332.318437) scale(0.1 -0.1)">
       <defs>
        <path id="DejaVuSans-38" d="M 2034 2216 
Q 1584 2216 1326 1975 
Q 1069 1734 1069 1313 
Q 1069 891 1326 650 
Q 1584 409 2034 409 
Q 2484 409 2743 651 
Q 3003 894 3003 1313 
Q 3003 1734 2745 1975 
Q 2488 2216 2034 2216 
z
M 1403 2484 
Q 997 2584 770 2862 
Q 544 3141 544 3541 
Q 544 4100 942 4425 
Q 1341 4750 2034 4750 
Q 2731 4750 3128 4425 
Q 3525 4100 3525 3541 
Q 3525 3141 3298 2862 
Q 3072 2584 2669 2484 
Q 3125 2378 3379 2068 
Q 3634 1759 3634 1313 
Q 3634 634 3220 271 
Q 2806 -91 2034 -91 
Q 1263 -91 848 271 
Q 434 634 434 1313 
Q 434 1759 690 2068 
Q 947 2378 1403 2484 
z
M 1172 3481 
Q 1172 3119 1398 2916 
Q 1625 2713 2034 2713 
Q 2441 2713 2670 2916 
Q 2900 3119 2900 3481 
Q 2900 3844 2670 4047 
Q 2441 4250 2034 4250 
Q 1625 4250 1398 4047 
Q 1172 3844 1172 3481 
z
" transform="scale(0.015625)"/>
       </defs>
       <use xlink:href="#DejaVuSans-38"/>
      </g>
     </g>
    </g>
    <g id="xtick_6">
     <g id="line2d_6">
      <g>
       <use xlink:href="#m04cd375724" x="363.490909" y="317.72" style="stroke: #000000; stroke-width: 0.8"/>
      </g>
     </g>
     <g id="text_6">
      <!-- 10 -->
      <g transform="translate(357.128409 332.318437) scale(0.1 -0.1)">
       <defs>
        <path id="DejaVuSans-31" d="M 794 531 
L 1825 531 
L 1825 4091 
L 703 3866 
L 703 4441 
L 1819 4666 
L 2450 4666 
L 2450 531 
L 3481 531 
L 3481 0 
L 794 0 
L 794 531 
z
" transform="scale(0.015625)"/>
       </defs>
       <use xlink:href="#DejaVuSans-31"/>
       <use xlink:href="#DejaVuSans-30" x="63.623047"/>
      </g>
     </g>
    </g>
    <g id="xtick_7">
     <g id="line2d_7">
      <g>
       <use xlink:href="#m04cd375724" x="430.036364" y="317.72" style="stroke: #000000; stroke-width: 0.8"/>
      </g>
     </g>
     <g id="text_7">
      <!-- 12 -->
      <g transform="translate(423.673864 332.318437) scale(0.1 -0.1)">
       <use xlink:href="#DejaVuSans-31"/>
       <use xlink:href="#DejaVuSans-32" x="63.623047"/>
      </g>
     </g>
    </g>
   </g>
   <g id="matplotlib.axis_2"/>
   <g id="line2d_8">
    <path d="M 30.763636 42.992381 
L 34.76036 59.006811 
L 38.757084 74.087727 
L 42.753808 88.289546 
L 46.750532 101.663512 
L 50.747256 114.257883 
L 54.74398 126.118102 
L 58.740704 137.286965 
L 62.737428 147.804773 
L 66.734152 157.709476 
L 70.730876 167.036814 
L 74.7276 175.820442 
L 78.724324 184.092055 
L 82.721048 191.881499 
L 86.717772 199.21688 
L 90.714496 206.124667 
L 95.110893 213.259066 
L 99.507289 219.937356 
L 103.903686 226.188696 
L 108.300082 232.040382 
L 112.696478 237.517964 
L 117.092875 242.645359 
L 121.489271 247.444954 
L 125.885667 251.937707 
L 130.681736 256.511955 
L 135.477805 260.768128 
L 140.273874 264.728343 
L 145.069943 268.41318 
L 150.265684 272.116506 
L 155.461425 275.541684 
L 160.657166 278.709604 
L 166.25258 281.855638 
L 171.847993 284.747957 
L 177.843079 287.588537 
L 183.838165 290.184397 
L 190.232924 292.707299 
L 197.027355 295.135098 
L 203.821785 297.327248 
L 211.015889 299.416882 
L 218.609664 301.390761 
L 226.603112 303.239004 
L 234.996233 304.954949 
L 244.188698 306.601917 
L 253.780835 308.094375 
L 264.172318 309.485994 
L 275.363145 310.760522 
L 287.752989 311.942805 
L 301.341851 313.009877 
L 316.529402 313.971012 
L 333.315643 314.806854 
L 352.499918 315.536465 
L 374.881572 316.16012 
L 401.659623 316.67689 
L 430.036364 317.039018 
L 430.036364 317.039018 
" clip-path="url(#p65e8722481)" style="fill: none; stroke: #1f77b4; stroke-width: 1.5; stroke-linecap: square"/>
   </g>
   <g id="line2d_9">
    <path d="M 197.127273 317.72 
L 197.127273 29.256 
" clip-path="url(#p65e8722481)" style="fill: none; stroke-dasharray: 5.55,2.4; stroke-dashoffset: 0; stroke: #808080; stroke-width: 1.5"/>
   </g>
   <g id="patch_3">
    <path d="M 10.8 317.72 
L 450 317.72 
" style="fill: none; stroke: #000000; stroke-width: 0.8; stroke-linejoin: miter; stroke-linecap: square"/>
   </g>
   <g id="text_8">
    <!-- P = 0.082 -->
    <g transform="translate(230.4 296.467877) scale(0.1 -0.1)">
     <defs>
      <path id="DejaVuSans-50" d="M 1259 4147 
L 1259 2394 
L 2053 2394 
Q 2494 2394 2734 2622 
Q 2975 2850 2975 3272 
Q 2975 3691 2734 3919 
Q 2494 4147 2053 4147 
L 1259 4147 
z
M 628 4666 
L 2053 4666 
Q 2838 4666 3239 4311 
Q 3641 3956 3641 3272 
Q 3641 2581 3239 2228 
Q 2838 1875 2053 1875 
L 1259 1875 
L 1259 0 
L 628 0 
L 628 4666 
z
" transform="scale(0.015625)"/>
      <path id="DejaVuSans-20" transform="scale(0.015625)"/>
      <path id="DejaVuSans-3d" d="M 678 2906 
L 4684 2906 
L 4684 2381 
L 678 2381 
L 678 2906 
z
M 678 1631 
L 4684 1631 
L 4684 1100 
L 678 1100 
L 678 1631 
z
" transform="scale(0.015625)"/>
      <path id="DejaVuSans-2e" d="M 684 794 
L 1344 794 
L 1344 0 
L 684 0 
L 684 794 
z
" transform="scale(0.015625)"/>
     </defs>
     <use xlink:href="#DejaVuSans-50"/>
     <use xlink:href="#DejaVuSans-20" x="60.302734"/>
     <use xlink:href="#DejaVuSans-3d" x="92.089844"/>
     <use xlink:href="#DejaVuSans-20" x="175.878906"/>
     <use xlink:href="#DejaVuSans-30" x="207.666016"/>
     <use xlink:href="#DejaVuSans-2e" x="271.289062"/>
     <use xlink:href="#DejaVuSans-30" x="303.076172"/>
     <use xlink:href="#DejaVuSans-38" x="366.699219"/>
     <use xlink:href="#DejaVuSans-32" x="430.322266"/>
    </g>
   </g>
   <g id="text_9">
    <!--  $\chi^2$-statistic -->
    <g transform="translate(197.127273 208.464919) scale(0.1 -0.1)">
     <defs>
      <path id="DejaVuSans-Oblique-3c7" d="M 1922 -781 
L 1691 416 
L 394 -1334 
L -284 -1334 
L 1553 1141 
L 1269 2613 
Q 1194 3006 713 3006 
L 559 3006 
L 653 3500 
L 872 3494 
Q 1675 3472 1775 2950 
L 2006 1753 
L 3303 3503 
L 3981 3503 
L 2144 1028 
L 2428 -444 
Q 2503 -838 2984 -838 
L 3138 -838 
L 3044 -1331 
L 2825 -1325 
Q 2022 -1303 1922 -781 
z
" transform="scale(0.015625)"/>
      <path id="DejaVuSans-2d" d="M 313 2009 
L 1997 2009 
L 1997 1497 
L 313 1497 
L 313 2009 
z
" transform="scale(0.015625)"/>
      <path id="DejaVuSans-73" d="M 2834 3397 
L 2834 2853 
Q 2591 2978 2328 3040 
Q 2066 3103 1784 3103 
Q 1356 3103 1142 2972 
Q 928 2841 928 2578 
Q 928 2378 1081 2264 
Q 1234 2150 1697 2047 
L 1894 2003 
Q 2506 1872 2764 1633 
Q 3022 1394 3022 966 
Q 3022 478 2636 193 
Q 2250 -91 1575 -91 
Q 1294 -91 989 -36 
Q 684 19 347 128 
L 347 722 
Q 666 556 975 473 
Q 1284 391 1588 391 
Q 1994 391 2212 530 
Q 2431 669 2431 922 
Q 2431 1156 2273 1281 
Q 2116 1406 1581 1522 
L 1381 1569 
Q 847 1681 609 1914 
Q 372 2147 372 2553 
Q 372 3047 722 3315 
Q 1072 3584 1716 3584 
Q 2034 3584 2315 3537 
Q 2597 3491 2834 3397 
z
" transform="scale(0.015625)"/>
      <path id="DejaVuSans-74" d="M 1172 4494 
L 1172 3500 
L 2356 3500 
L 2356 3053 
L 1172 3053 
L 1172 1153 
Q 1172 725 1289 603 
Q 1406 481 1766 481 
L 2356 481 
L 2356 0 
L 1766 0 
Q 1100 0 847 248 
Q 594 497 594 1153 
L 594 3053 
L 172 3053 
L 172 3500 
L 594 3500 
L 594 4494 
L 1172 4494 
z
" transform="scale(0.015625)"/>
      <path id="DejaVuSans-61" d="M 2194 1759 
Q 1497 1759 1228 1600 
Q 959 1441 959 1056 
Q 959 750 1161 570 
Q 1363 391 1709 391 
Q 2188 391 2477 730 
Q 2766 1069 2766 1631 
L 2766 1759 
L 2194 1759 
z
M 3341 1997 
L 3341 0 
L 2766 0 
L 2766 531 
Q 2569 213 2275 61 
Q 1981 -91 1556 -91 
Q 1019 -91 701 211 
Q 384 513 384 1019 
Q 384 1609 779 1909 
Q 1175 2209 1959 2209 
L 2766 2209 
L 2766 2266 
Q 2766 2663 2505 2880 
Q 2244 3097 1772 3097 
Q 1472 3097 1187 3025 
Q 903 2953 641 2809 
L 641 3341 
Q 956 3463 1253 3523 
Q 1550 3584 1831 3584 
Q 2591 3584 2966 3190 
Q 3341 2797 3341 1997 
z
" transform="scale(0.015625)"/>
      <path id="DejaVuSans-69" d="M 603 3500 
L 1178 3500 
L 1178 0 
L 603 0 
L 603 3500 
z
M 603 4863 
L 1178 4863 
L 1178 4134 
L 603 4134 
L 603 4863 
z
" transform="scale(0.015625)"/>
      <path id="DejaVuSans-63" d="M 3122 3366 
L 3122 2828 
Q 2878 2963 2633 3030 
Q 2388 3097 2138 3097 
Q 1578 3097 1268 2742 
Q 959 2388 959 1747 
Q 959 1106 1268 751 
Q 1578 397 2138 397 
Q 2388 397 2633 464 
Q 2878 531 3122 666 
L 3122 134 
Q 2881 22 2623 -34 
Q 2366 -91 2075 -91 
Q 1284 -91 818 406 
Q 353 903 353 1747 
Q 353 2603 823 3093 
Q 1294 3584 2113 3584 
Q 2378 3584 2631 3529 
Q 2884 3475 3122 3366 
z
" transform="scale(0.015625)"/>
     </defs>
     <use xlink:href="#DejaVuSans-20" transform="translate(0 0.765625)"/>
     <use xlink:href="#DejaVuSans-Oblique-3c7" transform="translate(31.787109 0.765625)"/>
     <use xlink:href="#DejaVuSans-32" transform="translate(95.439505 39.046875) scale(0.7)"/>
     <use xlink:href="#DejaVuSans-2d" transform="translate(142.710013 0.765625)"/>
     <use xlink:href="#DejaVuSans-73" transform="translate(178.793997 0.765625)"/>
     <use xlink:href="#DejaVuSans-74" transform="translate(230.893607 0.765625)"/>
     <use xlink:href="#DejaVuSans-61" transform="translate(270.102591 0.765625)"/>
     <use xlink:href="#DejaVuSans-74" transform="translate(331.381888 0.765625)"/>
     <use xlink:href="#DejaVuSans-69" transform="translate(370.590872 0.765625)"/>
     <use xlink:href="#DejaVuSans-73" transform="translate(398.374076 0.765625)"/>
     <use xlink:href="#DejaVuSans-74" transform="translate(450.473685 0.765625)"/>
     <use xlink:href="#DejaVuSans-69" transform="translate(489.682669 0.765625)"/>
     <use xlink:href="#DejaVuSans-63" transform="translate(517.465872 0.765625)"/>
    </g>
   </g>
   <g id="text_10">
    <!-- $\chi^2$ curve, 2 degrees of freedom -->
    <g transform="translate(136.26 23.256) scale(0.12 -0.12)">
     <defs>
      <path id="DejaVuSans-75" d="M 544 1381 
L 544 3500 
L 1119 3500 
L 1119 1403 
Q 1119 906 1312 657 
Q 1506 409 1894 409 
Q 2359 409 2629 706 
Q 2900 1003 2900 1516 
L 2900 3500 
L 3475 3500 
L 3475 0 
L 2900 0 
L 2900 538 
Q 2691 219 2414 64 
Q 2138 -91 1772 -91 
Q 1169 -91 856 284 
Q 544 659 544 1381 
z
M 1991 3584 
L 1991 3584 
z
" transform="scale(0.015625)"/>
      <path id="DejaVuSans-72" d="M 2631 2963 
Q 2534 3019 2420 3045 
Q 2306 3072 2169 3072 
Q 1681 3072 1420 2755 
Q 1159 2438 1159 1844 
L 1159 0 
L 581 0 
L 581 3500 
L 1159 3500 
L 1159 2956 
Q 1341 3275 1631 3429 
Q 1922 3584 2338 3584 
Q 2397 3584 2469 3576 
Q 2541 3569 2628 3553 
L 2631 2963 
z
" transform="scale(0.015625)"/>
      <path id="DejaVuSans-76" d="M 191 3500 
L 800 3500 
L 1894 563 
L 2988 3500 
L 3597 3500 
L 2284 0 
L 1503 0 
L 191 3500 
z
" transform="scale(0.015625)"/>
      <path id="DejaVuSans-65" d="M 3597 1894 
L 3597 1613 
L 953 1613 
Q 991 1019 1311 708 
Q 1631 397 2203 397 
Q 2534 397 2845 478 
Q 3156 559 3463 722 
L 3463 178 
Q 3153 47 2828 -22 
Q 2503 -91 2169 -91 
Q 1331 -91 842 396 
Q 353 884 353 1716 
Q 353 2575 817 3079 
Q 1281 3584 2069 3584 
Q 2775 3584 3186 3129 
Q 3597 2675 3597 1894 
z
M 3022 2063 
Q 3016 2534 2758 2815 
Q 2500 3097 2075 3097 
Q 1594 3097 1305 2825 
Q 1016 2553 972 2059 
L 3022 2063 
z
" transform="scale(0.015625)"/>
      <path id="DejaVuSans-2c" d="M 750 794 
L 1409 794 
L 1409 256 
L 897 -744 
L 494 -744 
L 750 256 
L 750 794 
z
" transform="scale(0.015625)"/>
      <path id="DejaVuSans-64" d="M 2906 2969 
L 2906 4863 
L 3481 4863 
L 3481 0 
L 2906 0 
L 2906 525 
Q 2725 213 2448 61 
Q 2172 -91 1784 -91 
Q 1150 -91 751 415 
Q 353 922 353 1747 
Q 353 2572 751 3078 
Q 1150 3584 1784 3584 
Q 2172 3584 2448 3432 
Q 2725 3281 2906 2969 
z
M 947 1747 
Q 947 1113 1208 752 
Q 1469 391 1925 391 
Q 2381 391 2643 752 
Q 2906 1113 2906 1747 
Q 2906 2381 2643 2742 
Q 2381 3103 1925 3103 
Q 1469 3103 1208 2742 
Q 947 2381 947 1747 
z
" transform="scale(0.015625)"/>
      <path id="DejaVuSans-67" d="M 2906 1791 
Q 2906 2416 2648 2759 
Q 2391 3103 1925 3103 
Q 1463 3103 1205 2759 
Q 947 2416 947 1791 
Q 947 1169 1205 825 
Q 1463 481 1925 481 
Q 2391 481 2648 825 
Q 2906 1169 2906 1791 
z
M 3481 434 
Q 3481 -459 3084 -895 
Q 2688 -1331 1869 -1331 
Q 1566 -1331 1297 -1286 
Q 1028 -1241 775 -1147 
L 775 -588 
Q 1028 -725 1275 -790 
Q 1522 -856 1778 -856 
Q 2344 -856 2625 -561 
Q 2906 -266 2906 331 
L 2906 616 
Q 2728 306 2450 153 
Q 2172 0 1784 0 
Q 1141 0 747 490 
Q 353 981 353 1791 
Q 353 2603 747 3093 
Q 1141 3584 1784 3584 
Q 2172 3584 2450 3431 
Q 2728 3278 2906 2969 
L 2906 3500 
L 3481 3500 
L 3481 434 
z
" transform="scale(0.015625)"/>
      <path id="DejaVuSans-6f" d="M 1959 3097 
Q 1497 3097 1228 2736 
Q 959 2375 959 1747 
Q 959 1119 1226 758 
Q 1494 397 1959 397 
Q 2419 397 2687 759 
Q 2956 1122 2956 1747 
Q 2956 2369 2687 2733 
Q 2419 3097 1959 3097 
z
M 1959 3584 
Q 2709 3584 3137 3096 
Q 3566 2609 3566 1747 
Q 3566 888 3137 398 
Q 2709 -91 1959 -91 
Q 1206 -91 779 398 
Q 353 888 353 1747 
Q 353 2609 779 3096 
Q 1206 3584 1959 3584 
z
" transform="scale(0.015625)"/>
      <path id="DejaVuSans-66" d="M 2375 4863 
L 2375 4384 
L 1825 4384 
Q 1516 4384 1395 4259 
Q 1275 4134 1275 3809 
L 1275 3500 
L 2222 3500 
L 2222 3053 
L 1275 3053 
L 1275 0 
L 697 0 
L 697 3053 
L 147 3053 
L 147 3500 
L 697 3500 
L 697 3744 
Q 697 4328 969 4595 
Q 1241 4863 1831 4863 
L 2375 4863 
z
" transform="scale(0.015625)"/>
      <path id="DejaVuSans-6d" d="M 3328 2828 
Q 3544 3216 3844 3400 
Q 4144 3584 4550 3584 
Q 5097 3584 5394 3201 
Q 5691 2819 5691 2113 
L 5691 0 
L 5113 0 
L 5113 2094 
Q 5113 2597 4934 2840 
Q 4756 3084 4391 3084 
Q 3944 3084 3684 2787 
Q 3425 2491 3425 1978 
L 3425 0 
L 2847 0 
L 2847 2094 
Q 2847 2600 2669 2842 
Q 2491 3084 2119 3084 
Q 1678 3084 1418 2786 
Q 1159 2488 1159 1978 
L 1159 0 
L 581 0 
L 581 3500 
L 1159 3500 
L 1159 2956 
Q 1356 3278 1631 3431 
Q 1906 3584 2284 3584 
Q 2666 3584 2933 3390 
Q 3200 3197 3328 2828 
z
" transform="scale(0.015625)"/>
     </defs>
     <use xlink:href="#DejaVuSans-Oblique-3c7" transform="translate(0 0.765625)"/>
     <use xlink:href="#DejaVuSans-32" transform="translate(63.652396 39.046875) scale(0.7)"/>
     <use xlink:href="#DejaVuSans-20" transform="translate(110.922904 0.765625)"/>
     <use xlink:href="#DejaVuSans-63" transform="translate(142.710013 0.765625)"/>
     <use xlink:href="#DejaVuSans-75" transform="translate(197.690482 0.765625)"/>
     <use xlink:href="#DejaVuSans-72" transform="translate(261.069388 0.765625)"/>
     <use xlink:href="#DejaVuSans-76" transform="translate(302.182669 0.765625)"/>
     <use xlink:href="#DejaVuSans-65" transform="translate(361.362357 0.765625)"/>
     <use xlink:href="#DejaVuSans-2c" transform="translate(422.885794 0.765625)"/>
     <use xlink:href="#DejaVuSans-20" transform="translate(454.672904 0.765625)"/>
     <use xlink:href="#DejaVuSans-32" transform="translate(486.460013 0.765625)"/>
     <use xlink:href="#DejaVuSans-20" transform="translate(550.08306 0.765625)"/>
     <use xlink:href="#DejaVuSans-64" transform="translate(581.870169 0.765625)"/>
     <use xlink:href="#DejaVuSans-65" transform="translate(645.346732 0.765625)"/>
     <use xlink:href="#DejaVuSans-67" transform="translate(706.870169 0.765625)"/>
     <use xlink:href="#DejaVuSans-72" transform="translate(770.346732 0.765625)"/>
     <use xlink:href="#DejaVuSans-65" transform="translate(811.460013 0.765625)"/>
     <use xlink:href="#DejaVuSans-65" transform="translate(872.983451 0.765625)"/>
     <use xlink:href="#DejaVuSans-73" transform="translate(934.506888 0.765625)"/>
     <use xlink:href="#DejaVuSans-20" transform="translate(986.606497 0.765625)"/>
     <use xlink:href="#DejaVuSans-6f" transform="translate(1018.393607 0.765625)"/>
     <use xlink:href="#DejaVuSans-66" transform="translate(1079.575247 0.765625)"/>
     <use xlink:href="#DejaVuSans-20" transform="translate(1114.780326 0.765625)"/>
     <use xlink:href="#DejaVuSans-66" transform="translate(1146.567435 0.765625)"/>
     <use xlink:href="#DejaVuSans-72" transform="translate(1181.772513 0.765625)"/>
     <use xlink:href="#DejaVuSans-65" transform="translate(1222.885794 0.765625)"/>
     <use xlink:href="#DejaVuSans-65" transform="translate(1284.409232 0.765625)"/>
     <use xlink:href="#DejaVuSans-64" transform="translate(1345.932669 0.765625)"/>
     <use xlink:href="#DejaVuSans-6f" transform="translate(1409.409232 0.765625)"/>
     <use xlink:href="#DejaVuSans-6d" transform="translate(1470.590872 0.765625)"/>
    </g>
   </g>
  </g>
 </g>
 <defs>
  <clipPath id="p65e8722481">
   <rect x="10.8" y="29.256" width="439.2" height="288.464"/>
  </clipPath>
 </defs>
</svg>
