<?xml version="1.0" encoding="utf-8" standalone="no"?>
<!DOCTYPE svg PUBLIC "-//W3C//DTD SVG 1.1//EN"
  "http://www.w3.org/Graphics/SVG/1.1/DTD/svg11.dtd">
<svg xmlns:xlink="http://www.w3.org/1999/xlink" width="576pt" height="288pt" viewBox="0 0 576 288" xmlns="http://www.w3.org/2000/svg" version="1.1">
 <metadata>
  <rdf:RDF xmlns:dc="http://purl.org/dc/elements/1.1/" xmlns:cc="http://creativecommons.org/ns#" xmlns:rdf="http://www.w3.org/1999/02/22-rdf-syntax-ns#">
   <cc:Work>
    <dc:type rdf:resource="http://purl.org/dc/dcmitype/StillImage"/>
    <dc:date>2024-02-12T00:33:24.897065</dc:date>
    <dc:format>image/svg+xml</dc:format>
    <dc:creator>
     <cc:Agent>
      <dc:title>Matplotlib v3.7.2, https://matplotlib.org/</dc:title>
     </cc:Agent>
    </dc:creator>
   </cc:Work>
  </rdf:RDF>
 </metadata>
 <defs>
  <style type="text/css">*{stroke-linejoin: round; stroke-linecap: butt}</style>
 </defs>
 <g id="figure_1">
  <g id="patch_1">
   <path d="M 0 288 
L 576 288 
L 576 0 
L 0 0 
L 0 288 
z
" style="fill: none"/>
  </g>
  <g id="axes_1">
   <g id="patch_2">
    <path d="M 23.34 264.66 
L 282.6 264.66 
L 282.6 10.8 
L 23.34 10.8 
L 23.34 264.66 
z
" style="fill: none"/>
   </g>
   <g id="PathCollection_1">
    <defs>
     <path id="mdd653849a3" d="M 0 3 
C 0.795609 3 1.55874 2.683901 2.12132 2.12132 
C 2.683901 1.55874 3 0.795609 3 0 
C 3 -0.795609 2.683901 -1.55874 2.12132 -2.12132 
C 1.55874 -2.683901 0.795609 -3 0 -3 
C -0.795609 -3 -1.55874 -2.683901 -2.12132 -2.12132 
C -2.683901 -1.55874 -3 -0.795609 -3 0 
C -3 0.795609 -2.683901 1.55874 -2.12132 2.12132 
C -1.55874 2.683901 -0.795609 3 0 3 
z
" style="stroke: #000000"/>
    </defs>
    <g clip-path="url(#p5b4094b0d3)">
     <use xlink:href="#mdd653849a3" x="35.124545" y="22.339091" style="fill: #808080; stroke: #000000"/>
     <use xlink:href="#mdd653849a3" x="44.945" y="84.099495" style="fill: #808080; stroke: #000000"/>
     <use xlink:href="#mdd653849a3" x="54.765455" y="50.708353" style="fill: #808080; stroke: #000000"/>
     <use xlink:href="#mdd653849a3" x="64.585909" y="85.02083" style="fill: #808080; stroke: #000000"/>
     <use xlink:href="#mdd653849a3" x="74.406364" y="76.071746" style="fill: #808080; stroke: #000000"/>
     <use xlink:href="#mdd653849a3" x="84.226818" y="125.790633" style="fill: #808080; stroke: #000000"/>
     <use xlink:href="#mdd653849a3" x="94.047273" y="133.821185" style="fill: #808080; stroke: #000000"/>
     <use xlink:href="#mdd653849a3" x="103.867727" y="169.102478" style="fill: #808080; stroke: #000000"/>
     <use xlink:href="#mdd653849a3" x="113.688182" y="108.655442" style="fill: #808080; stroke: #000000"/>
     <use xlink:href="#mdd653849a3" x="123.508636" y="130.84182" style="fill: #808080; stroke: #000000"/>
     <use xlink:href="#mdd653849a3" x="133.329091" y="134.398726" style="fill: #808080; stroke: #000000"/>
     <use xlink:href="#mdd653849a3" x="143.149545" y="128.233366" style="fill: #808080; stroke: #000000"/>
     <use xlink:href="#mdd653849a3" x="152.97" y="94.186722" style="fill: #808080; stroke: #000000"/>
     <use xlink:href="#mdd653849a3" x="162.790455" y="153.88816" style="fill: #808080; stroke: #000000"/>
     <use xlink:href="#mdd653849a3" x="172.610909" y="152.508163" style="fill: #808080; stroke: #000000"/>
     <use xlink:href="#mdd653849a3" x="182.431364" y="203.077006" style="fill: #808080; stroke: #000000"/>
     <use xlink:href="#mdd653849a3" x="192.251818" y="253.120909" style="fill: #808080; stroke: #000000"/>
     <use xlink:href="#mdd653849a3" x="202.072273" y="235.458223" style="fill: #808080; stroke: #000000"/>
     <use xlink:href="#mdd653849a3" x="211.892727" y="169.224706" style="fill: #808080; stroke: #000000"/>
     <use xlink:href="#mdd653849a3" x="221.713182" y="227.884422" style="fill: #808080; stroke: #000000"/>
     <use xlink:href="#mdd653849a3" x="231.533636" y="162.461223" style="fill: #808080; stroke: #000000"/>
     <use xlink:href="#mdd653849a3" x="241.354091" y="179.782316" style="fill: #808080; stroke: #000000"/>
     <use xlink:href="#mdd653849a3" x="251.174545" y="202.3663" style="fill: #808080; stroke: #000000"/>
     <use xlink:href="#mdd653849a3" x="260.995" y="164.664686" style="fill: #808080; stroke: #000000"/>
     <use xlink:href="#mdd653849a3" x="270.815455" y="185.548653" style="fill: #808080; stroke: #000000"/>
    </g>
   </g>
   <g id="matplotlib.axis_1">
    <g id="xtick_1">
     <g id="line2d_1">
      <defs>
       <path id="m7a47a39fae" d="M 0 0 
L 0 4 
"/>
      </defs>
      <g>
       <use xlink:href="#m7a47a39fae" x="152.97" y="264.66"/>
      </g>
     </g>
     <g id="text_1">
      <!-- average x -->
      <g transform="translate(127.95125 274.919375) scale(0.1 -0.1)">
       <defs>
        <path id="DejaVuSans-61" d="M 2194 1759 
Q 1497 1759 1228 1600 
Q 959 1441 959 1056 
Q 959 750 1161 570 
Q 1363 391 1709 391 
Q 2188 391 2477 730 
Q 2766 1069 2766 1631 
L 2766 1759 
L 2194 1759 
z
M 3341 1997 
L 3341 0 
L 2766 0 
L 2766 531 
Q 2569 213 2275 61 
Q 1981 -91 1556 -91 
Q 1019 -91 701 211 
Q 384 513 384 1019 
Q 384 1609 779 1909 
Q 1175 2209 1959 2209 
L 2766 2209 
L 2766 2266 
Q 2766 2663 2505 2880 
Q 2244 3097 1772 3097 
Q 1472 3097 1187 3025 
Q 903 2953 641 2809 
L 641 3341 
Q 956 3463 1253 3523 
Q 1550 3584 1831 3584 
Q 2591 3584 2966 3190 
Q 3341 2797 3341 1997 
z
" transform="scale(0.015625)"/>
        <path id="DejaVuSans-76" d="M 191 3500 
L 800 3500 
L 1894 563 
L 2988 3500 
L 3597 3500 
L 2284 0 
L 1503 0 
L 191 3500 
z
" transform="scale(0.015625)"/>
        <path id="DejaVuSans-65" d="M 3597 1894 
L 3597 1613 
L 953 1613 
Q 991 1019 1311 708 
Q 1631 397 2203 397 
Q 2534 397 2845 478 
Q 3156 559 3463 722 
L 3463 178 
Q 3153 47 2828 -22 
Q 2503 -91 2169 -91 
Q 1331 -91 842 396 
Q 353 884 353 1716 
Q 353 2575 817 3079 
Q 1281 3584 2069 3584 
Q 2775 3584 3186 3129 
Q 3597 2675 3597 1894 
z
M 3022 2063 
Q 3016 2534 2758 2815 
Q 2500 3097 2075 3097 
Q 1594 3097 1305 2825 
Q 1016 2553 972 2059 
L 3022 2063 
z
" transform="scale(0.015625)"/>
        <path id="DejaVuSans-72" d="M 2631 2963 
Q 2534 3019 2420 3045 
Q 2306 3072 2169 3072 
Q 1681 3072 1420 2755 
Q 1159 2438 1159 1844 
L 1159 0 
L 581 0 
L 581 3500 
L 1159 3500 
L 1159 2956 
Q 1341 3275 1631 3429 
Q 1922 3584 2338 3584 
Q 2397 3584 2469 3576 
Q 2541 3569 2628 3553 
L 2631 2963 
z
" transform="scale(0.015625)"/>
        <path id="DejaVuSans-67" d="M 2906 1791 
Q 2906 2416 2648 2759 
Q 2391 3103 1925 3103 
Q 1463 3103 1205 2759 
Q 947 2416 947 1791 
Q 947 1169 1205 825 
Q 1463 481 1925 481 
Q 2391 481 2648 825 
Q 2906 1169 2906 1791 
z
M 3481 434 
Q 3481 -459 3084 -895 
Q 2688 -1331 1869 -1331 
Q 1566 -1331 1297 -1286 
Q 1028 -1241 775 -1147 
L 775 -588 
Q 1028 -725 1275 -790 
Q 1522 -856 1778 -856 
Q 2344 -856 2625 -561 
Q 2906 -266 2906 331 
L 2906 616 
Q 2728 306 2450 153 
Q 2172 0 1784 0 
Q 1141 0 747 490 
Q 353 981 353 1791 
Q 353 2603 747 3093 
Q 1141 3584 1784 3584 
Q 2172 3584 2450 3431 
Q 2728 3278 2906 2969 
L 2906 3500 
L 3481 3500 
L 3481 434 
z
" transform="scale(0.015625)"/>
        <path id="DejaVuSans-20" transform="scale(0.015625)"/>
        <path id="DejaVuSans-78" d="M 3513 3500 
L 2247 1797 
L 3578 0 
L 2900 0 
L 1881 1375 
L 863 0 
L 184 0 
L 1544 1831 
L 300 3500 
L 978 3500 
L 1906 2253 
L 2834 3500 
L 3513 3500 
z
" transform="scale(0.015625)"/>
       </defs>
       <use xlink:href="#DejaVuSans-61"/>
       <use xlink:href="#DejaVuSans-76" x="61.279297"/>
       <use xlink:href="#DejaVuSans-65" x="120.458984"/>
       <use xlink:href="#DejaVuSans-72" x="181.982422"/>
       <use xlink:href="#DejaVuSans-61" x="223.095703"/>
       <use xlink:href="#DejaVuSans-67" x="284.375"/>
       <use xlink:href="#DejaVuSans-65" x="347.851562"/>
       <use xlink:href="#DejaVuSans-20" x="409.375"/>
       <use xlink:href="#DejaVuSans-78" x="441.162109"/>
      </g>
     </g>
    </g>
   </g>
   <g id="matplotlib.axis_2">
    <g id="ytick_1">
     <g id="line2d_2">
      <defs>
       <path id="m3925f43182" d="M 0 0 
L -4 0 
"/>
      </defs>
      <g>
       <use xlink:href="#m3925f43182" x="23.34" y="145.330186"/>
      </g>
     </g>
     <g id="text_2">
      <!-- average y -->
      <g transform="translate(18.599375 170.348936) rotate(-90) scale(0.1 -0.1)">
       <defs>
        <path id="DejaVuSans-79" d="M 2059 -325 
Q 1816 -950 1584 -1140 
Q 1353 -1331 966 -1331 
L 506 -1331 
L 506 -850 
L 844 -850 
Q 1081 -850 1212 -737 
Q 1344 -625 1503 -206 
L 1606 56 
L 191 3500 
L 800 3500 
L 1894 763 
L 2988 3500 
L 3597 3500 
L 2059 -325 
z
" transform="scale(0.015625)"/>
       </defs>
       <use xlink:href="#DejaVuSans-61"/>
       <use xlink:href="#DejaVuSans-76" x="61.279297"/>
       <use xlink:href="#DejaVuSans-65" x="120.458984"/>
       <use xlink:href="#DejaVuSans-72" x="181.982422"/>
       <use xlink:href="#DejaVuSans-61" x="223.095703"/>
       <use xlink:href="#DejaVuSans-67" x="284.375"/>
       <use xlink:href="#DejaVuSans-65" x="347.851562"/>
       <use xlink:href="#DejaVuSans-20" x="409.375"/>
       <use xlink:href="#DejaVuSans-79" x="441.162109"/>
      </g>
     </g>
    </g>
   </g>
   <g id="line2d_3">
    <path d="M 152.97 264.66 
L 152.97 10.8 
" clip-path="url(#p5b4094b0d3)" style="fill: none; stroke: #1f77b4; stroke-width: 1.5; stroke-linecap: square"/>
   </g>
   <g id="line2d_4">
    <path d="M 23.34 145.330186 
L 282.6 145.330186 
" clip-path="url(#p5b4094b0d3)" style="fill: none; stroke: #1f77b4; stroke-width: 1.5; stroke-linecap: square"/>
   </g>
   <g id="patch_3">
    <path d="M 23.34 264.66 
L 23.34 10.8 
" style="fill: none; stroke: #000000; stroke-width: 0.8; stroke-linejoin: miter; stroke-linecap: square"/>
   </g>
   <g id="patch_4">
    <path d="M 282.6 264.66 
L 282.6 10.8 
" style="fill: none; stroke: #000000; stroke-width: 0.8; stroke-linejoin: miter; stroke-linecap: square"/>
   </g>
   <g id="patch_5">
    <path d="M 23.34 264.66 
L 282.6 264.66 
" style="fill: none; stroke: #000000; stroke-width: 0.8; stroke-linejoin: miter; stroke-linecap: square"/>
   </g>
   <g id="patch_6">
    <path d="M 23.34 10.8 
L 282.6 10.8 
" style="fill: none; stroke: #000000; stroke-width: 0.8; stroke-linejoin: miter; stroke-linecap: square"/>
   </g>
   <g id="text_3">
    <!-- + -->
    <g style="fill: #ff7f0e; opacity: 0.7" transform="translate(192.645938 94.621343) scale(0.6 -0.6)">
     <defs>
      <path id="DejaVuSans-2b" d="M 2944 4013 
L 2944 2272 
L 4684 2272 
L 4684 1741 
L 2944 1741 
L 2944 0 
L 2419 0 
L 2419 1741 
L 678 1741 
L 678 2272 
L 2419 2272 
L 2419 4013 
L 2944 4013 
z
" transform="scale(0.015625)"/>
     </defs>
     <use xlink:href="#DejaVuSans-2b"/>
    </g>
   </g>
   <g id="text_4">
    <!-- + -->
    <g style="fill: #ff7f0e; opacity: 0.7" transform="translate(63.015938 221.551343) scale(0.6 -0.6)">
     <use xlink:href="#DejaVuSans-2b"/>
    </g>
   </g>
   <g id="text_5">
    <!-- - -->
    <g style="fill: #ff7f0e; opacity: 0.7" transform="translate(206.961562 221.551343) scale(0.6 -0.6)">
     <defs>
      <path id="DejaVuSans-2d" d="M 313 2009 
L 1997 2009 
L 1997 1497 
L 313 1497 
L 313 2009 
z
" transform="scale(0.015625)"/>
     </defs>
     <use xlink:href="#DejaVuSans-2d"/>
    </g>
   </g>
   <g id="text_6">
    <!-- - -->
    <g style="fill: #ff7f0e; opacity: 0.7" transform="translate(77.331563 94.621343) scale(0.6 -0.6)">
     <use xlink:href="#DejaVuSans-2d"/>
    </g>
   </g>
  </g>
  <g id="axes_2">
   <g id="patch_7">
    <path d="M 305.94 264.66 
L 565.2 264.66 
L 565.2 10.8 
L 305.94 10.8 
L 305.94 264.66 
z
" style="fill: none"/>
   </g>
   <g id="PathCollection_2">
    <g clip-path="url(#pfd18b12653)">
     <use xlink:href="#mdd653849a3" x="553.415455" y="22.339091" style="fill: #808080; stroke: #000000"/>
     <use xlink:href="#mdd653849a3" x="543.595" y="84.099495" style="fill: #808080; stroke: #000000"/>
     <use xlink:href="#mdd653849a3" x="533.774545" y="50.708353" style="fill: #808080; stroke: #000000"/>
     <use xlink:href="#mdd653849a3" x="523.954091" y="85.02083" style="fill: #808080; stroke: #000000"/>
     <use xlink:href="#mdd653849a3" x="514.133636" y="76.071746" style="fill: #808080; stroke: #000000"/>
     <use xlink:href="#mdd653849a3" x="504.313182" y="125.790633" style="fill: #808080; stroke: #000000"/>
     <use xlink:href="#mdd653849a3" x="494.492727" y="133.821185" style="fill: #808080; stroke: #000000"/>
     <use xlink:href="#mdd653849a3" x="484.672273" y="169.102478" style="fill: #808080; stroke: #000000"/>
     <use xlink:href="#mdd653849a3" x="474.851818" y="108.655442" style="fill: #808080; stroke: #000000"/>
     <use xlink:href="#mdd653849a3" x="465.031364" y="130.84182" style="fill: #808080; stroke: #000000"/>
     <use xlink:href="#mdd653849a3" x="455.210909" y="134.398726" style="fill: #808080; stroke: #000000"/>
     <use xlink:href="#mdd653849a3" x="445.390455" y="128.233366" style="fill: #808080; stroke: #000000"/>
     <use xlink:href="#mdd653849a3" x="435.57" y="94.186722" style="fill: #808080; stroke: #000000"/>
     <use xlink:href="#mdd653849a3" x="425.749545" y="153.88816" style="fill: #808080; stroke: #000000"/>
     <use xlink:href="#mdd653849a3" x="415.929091" y="152.508163" style="fill: #808080; stroke: #000000"/>
     <use xlink:href="#mdd653849a3" x="406.108636" y="203.077006" style="fill: #808080; stroke: #000000"/>
     <use xlink:href="#mdd653849a3" x="396.288182" y="253.120909" style="fill: #808080; stroke: #000000"/>
     <use xlink:href="#mdd653849a3" x="386.467727" y="235.458223" style="fill: #808080; stroke: #000000"/>
     <use xlink:href="#mdd653849a3" x="376.647273" y="169.224706" style="fill: #808080; stroke: #000000"/>
     <use xlink:href="#mdd653849a3" x="366.826818" y="227.884422" style="fill: #808080; stroke: #000000"/>
     <use xlink:href="#mdd653849a3" x="357.006364" y="162.461223" style="fill: #808080; stroke: #000000"/>
     <use xlink:href="#mdd653849a3" x="347.185909" y="179.782316" style="fill: #808080; stroke: #000000"/>
     <use xlink:href="#mdd653849a3" x="337.365455" y="202.3663" style="fill: #808080; stroke: #000000"/>
     <use xlink:href="#mdd653849a3" x="327.545" y="164.664686" style="fill: #808080; stroke: #000000"/>
     <use xlink:href="#mdd653849a3" x="317.724545" y="185.548653" style="fill: #808080; stroke: #000000"/>
    </g>
   </g>
   <g id="matplotlib.axis_3">
    <g id="xtick_2">
     <g id="line2d_5">
      <g>
       <use xlink:href="#m7a47a39fae" x="435.57" y="264.66"/>
      </g>
     </g>
     <g id="text_7">
      <!-- average x -->
      <g transform="translate(410.55125 274.919375) scale(0.1 -0.1)">
       <use xlink:href="#DejaVuSans-61"/>
       <use xlink:href="#DejaVuSans-76" x="61.279297"/>
       <use xlink:href="#DejaVuSans-65" x="120.458984"/>
       <use xlink:href="#DejaVuSans-72" x="181.982422"/>
       <use xlink:href="#DejaVuSans-61" x="223.095703"/>
       <use xlink:href="#DejaVuSans-67" x="284.375"/>
       <use xlink:href="#DejaVuSans-65" x="347.851562"/>
       <use xlink:href="#DejaVuSans-20" x="409.375"/>
       <use xlink:href="#DejaVuSans-78" x="441.162109"/>
      </g>
     </g>
    </g>
   </g>
   <g id="matplotlib.axis_4">
    <g id="ytick_2">
     <g id="line2d_6">
      <g>
       <use xlink:href="#m3925f43182" x="305.94" y="145.330186"/>
      </g>
     </g>
     <g id="text_8">
      <!-- average y -->
      <g transform="translate(301.199375 170.348936) rotate(-90) scale(0.1 -0.1)">
       <use xlink:href="#DejaVuSans-61"/>
       <use xlink:href="#DejaVuSans-76" x="61.279297"/>
       <use xlink:href="#DejaVuSans-65" x="120.458984"/>
       <use xlink:href="#DejaVuSans-72" x="181.982422"/>
       <use xlink:href="#DejaVuSans-61" x="223.095703"/>
       <use xlink:href="#DejaVuSans-67" x="284.375"/>
       <use xlink:href="#DejaVuSans-65" x="347.851562"/>
       <use xlink:href="#DejaVuSans-20" x="409.375"/>
       <use xlink:href="#DejaVuSans-79" x="441.162109"/>
      </g>
     </g>
    </g>
   </g>
   <g id="line2d_7">
    <path d="M 435.57 264.66 
L 435.57 10.8 
" clip-path="url(#pfd18b12653)" style="fill: none; stroke: #1f77b4; stroke-width: 1.5; stroke-linecap: square"/>
   </g>
   <g id="line2d_8">
    <path d="M 305.94 145.330186 
L 565.2 145.330186 
" clip-path="url(#pfd18b12653)" style="fill: none; stroke: #1f77b4; stroke-width: 1.5; stroke-linecap: square"/>
   </g>
   <g id="patch_8">
    <path d="M 305.94 264.66 
L 305.94 10.8 
" style="fill: none; stroke: #000000; stroke-width: 0.8; stroke-linejoin: miter; stroke-linecap: square"/>
   </g>
   <g id="patch_9">
    <path d="M 565.2 264.66 
L 565.2 10.8 
" style="fill: none; stroke: #000000; stroke-width: 0.8; stroke-linejoin: miter; stroke-linecap: square"/>
   </g>
   <g id="patch_10">
    <path d="M 305.94 264.66 
L 565.2 264.66 
" style="fill: none; stroke: #000000; stroke-width: 0.8; stroke-linejoin: miter; stroke-linecap: square"/>
   </g>
   <g id="patch_11">
    <path d="M 305.94 10.8 
L 565.2 10.8 
" style="fill: none; stroke: #000000; stroke-width: 0.8; stroke-linejoin: miter; stroke-linecap: square"/>
   </g>
   <g id="text_9">
    <!-- + -->
    <g style="fill: #ff7f0e; opacity: 0.7" transform="translate(475.245937 94.621343) scale(0.6 -0.6)">
     <use xlink:href="#DejaVuSans-2b"/>
    </g>
   </g>
   <g id="text_10">
    <!-- + -->
    <g style="fill: #ff7f0e; opacity: 0.7" transform="translate(345.615937 221.551343) scale(0.6 -0.6)">
     <use xlink:href="#DejaVuSans-2b"/>
    </g>
   </g>
   <g id="text_11">
    <!-- - -->
    <g style="fill: #ff7f0e; opacity: 0.7" transform="translate(489.561562 221.551343) scale(0.6 -0.6)">
     <use xlink:href="#DejaVuSans-2d"/>
    </g>
   </g>
   <g id="text_12">
    <!-- - -->
    <g style="fill: #ff7f0e; opacity: 0.7" transform="translate(359.931562 94.621343) scale(0.6 -0.6)">
     <use xlink:href="#DejaVuSans-2d"/>
    </g>
   </g>
  </g>
 </g>
 <defs>
  <clipPath id="p5b4094b0d3">
   <rect x="23.34" y="10.8" width="259.26" height="253.86"/>
  </clipPath>
  <clipPath id="pfd18b12653">
   <rect x="305.94" y="10.8" width="259.26" height="253.86"/>
  </clipPath>
 </defs>
</svg>
