<svg xmlns="http://www.w3.org/2000/svg" xmlns:xlink="http://www.w3.org/1999/xlink" version="1.1" x="0px" y="0px" viewBox="0 0 100 100" enable-background="new 0 0 100 100" xml:space="preserve"><path d="M73.138,50c0-8.068,0.812-15.718,2.265-22.586c-7.355-3.51-16.062-5.906-25.402-5.907c-9.34,0-18.045,2.397-25.4,5.906  c1.452,6.868,2.265,14.519,2.264,22.586c0,6.044-0.456,11.854-1.295,17.276c7.142,2.973,15.443,4.961,24.431,4.96  c8.987,0,17.29-1.987,24.433-4.961C73.593,61.854,73.138,56.043,73.138,50z M66,32v-2.854c-1-0.304-3-0.573-4-0.812V30h-1v-1.946  c-1-0.212-2-0.391-3-0.54V30h-2v-2.653c-1-0.123-2-0.212-3-0.27V29h-1v-1.979c-1-0.016-1.426-0.033-1.968-0.033  c-0.563,0-1.032,0.018-2.032,0.034V29h-1v-1.92c-1,0.06-2,0.15-3,0.273V30h-2v-2.477c-1,0.149-2,0.329-3,0.542V30h-1v-1.652  c-1,0.241-3,0.511-4,0.815V32h-1v-2.441c-1,0.138-0.938,0.271-1.396,0.42l-0.41-1.291C31.792,28.494,32,28.317,33,28.141V26h1v1.76  c1-0.298,3-0.567,4-0.803V24h1v2.687c1-0.209,2-0.388,3-0.534V24h2v1.99c1-0.121,2-0.21,3-0.269V23h1v2.666  c1-0.016,1.469-0.034,2.032-0.034c0.542,0,0.968,0.018,1.968,0.033V23h1v2.718c1,0.056,2,0.146,3,0.265V24h2v2.144  c1,0.146,2,0.324,3,0.532V24h1v2.944c1,0.234,3,0.503,4,0.799V26h1v2.122c1,0.175,1.219,0.352,1.816,0.545l-0.431,1.291  C67.929,29.81,67,29.677,67,29.541V32H66z"></path><path d="M79.483,50c0,5.031,0.424,9.846,1.201,14.278c8.102-4.43,14.09-9.962,16.965-14.569  c-0.223-5.109-6.332-12.774-15.942-18.827C80.29,36.557,79.483,43.071,79.483,50z"></path><path d="M97.546,51.239c0.023-0.139,0.052-0.281,0.067-0.417C97.597,50.958,97.57,51.1,97.546,51.239z"></path><path d="M50,73.142c-22.406,0-40.666-12.189-47.483-21.586C4.575,61.423,25.04,78.492,50,78.491  c24.964,0.001,45.432-17.07,47.486-26.938C90.671,60.948,72.409,73.142,50,73.142z"></path><path d="M19.317,64.277c0.777-4.432,1.202-9.246,1.202-14.278c0-6.928-0.807-13.442-2.226-19.118  c-9.611,6.055-15.72,13.72-15.94,18.829C5.231,54.318,11.219,59.849,19.317,64.277z"></path><path d="M2.448,51.195c-0.02-0.122-0.043-0.247-0.059-0.367C2.403,50.949,2.428,51.073,2.448,51.195z"></path></svg>