<?xml version="1.0" encoding="utf-8" standalone="no"?>
<!DOCTYPE svg PUBLIC "-//W3C//DTD SVG 1.1//EN"
  "http://www.w3.org/Graphics/SVG/1.1/DTD/svg11.dtd">
<svg xmlns:xlink="http://www.w3.org/1999/xlink" width="504pt" height="360pt" viewBox="0 0 504 360" xmlns="http://www.w3.org/2000/svg" version="1.1">
 <metadata>
  <rdf:RDF xmlns:dc="http://purl.org/dc/elements/1.1/" xmlns:cc="http://creativecommons.org/ns#" xmlns:rdf="http://www.w3.org/1999/02/22-rdf-syntax-ns#">
   <cc:Work>
    <dc:type rdf:resource="http://purl.org/dc/dcmitype/StillImage"/>
    <dc:date>2024-02-12T00:33:25.256727</dc:date>
    <dc:format>image/svg+xml</dc:format>
    <dc:creator>
     <cc:Agent>
      <dc:title>Matplotlib v3.7.2, https://matplotlib.org/</dc:title>
     </cc:Agent>
    </dc:creator>
   </cc:Work>
  </rdf:RDF>
 </metadata>
 <defs>
  <style type="text/css">*{stroke-linejoin: round; stroke-linecap: butt}</style>
 </defs>
 <g id="figure_1">
  <g id="patch_1">
   <path d="M 0 360 
L 504 360 
L 504 0 
L 0 0 
L 0 360 
z
" style="fill: none"/>
  </g>
  <g id="axes_1">
   <g id="patch_2">
    <path d="M 76.657636 318.04 
L 215.829636 318.04 
L 215.829636 39.696 
L 76.657636 39.696 
L 76.657636 318.04 
z
" style="fill: none"/>
   </g>
   <g id="line2d_1">
    <path d="M 82.983636 52.348 
L 88.255303 62.891333 
L 93.52697 73.434667 
L 98.798636 83.978 
L 104.070303 94.521333 
L 109.34197 105.064667 
L 114.613636 115.608 
L 119.885303 126.151333 
L 125.15697 136.694667 
L 130.428636 147.238 
L 135.700303 157.781333 
L 140.97197 168.324667 
L 146.243636 178.868 
L 151.515303 189.411333 
L 156.78697 199.954667 
L 162.058636 210.498 
L 167.330303 221.041333 
L 172.60197 231.584667 
L 177.873636 242.128 
L 183.145303 252.671333 
L 188.41697 263.214667 
L 193.688636 273.758 
L 198.960303 284.301333 
L 204.23197 294.844667 
L 209.503636 305.388 
" clip-path="url(#p8758a1a75a)" style="fill: none; stroke-dasharray: 5.55,2.4; stroke-dashoffset: 0; stroke: #808080; stroke-width: 1.5"/>
   </g>
   <g id="PathCollection_1">
    <defs>
     <path id="m366d82bef6" d="M 0 3 
C 0.795609 3 1.55874 2.683901 2.12132 2.12132 
C 2.683901 1.55874 3 0.795609 3 0 
C 3 -0.795609 2.683901 -1.55874 2.12132 -2.12132 
C 1.55874 -2.683901 0.795609 -3 0 -3 
C -0.795609 -3 -1.55874 -2.683901 -2.12132 -2.12132 
C -2.683901 -1.55874 -3 -0.795609 -3 0 
C -3 0.795609 -2.683901 1.55874 -2.12132 2.12132 
C -1.55874 2.683901 -0.795609 3 0 3 
z
" style="stroke: #000000"/>
    </defs>
    <g clip-path="url(#p8758a1a75a)">
     <use xlink:href="#m366d82bef6" x="82.983636" y="52.348" style="fill: #1f77b4; stroke: #000000"/>
     <use xlink:href="#m366d82bef6" x="88.255303" y="62.891333" style="fill: #1f77b4; stroke: #000000"/>
     <use xlink:href="#m366d82bef6" x="93.52697" y="73.434667" style="fill: #1f77b4; stroke: #000000"/>
     <use xlink:href="#m366d82bef6" x="98.798636" y="83.978" style="fill: #1f77b4; stroke: #000000"/>
     <use xlink:href="#m366d82bef6" x="104.070303" y="94.521333" style="fill: #1f77b4; stroke: #000000"/>
     <use xlink:href="#m366d82bef6" x="109.34197" y="105.064667" style="fill: #1f77b4; stroke: #000000"/>
     <use xlink:href="#m366d82bef6" x="114.613636" y="115.608" style="fill: #1f77b4; stroke: #000000"/>
     <use xlink:href="#m366d82bef6" x="119.885303" y="126.151333" style="fill: #1f77b4; stroke: #000000"/>
     <use xlink:href="#m366d82bef6" x="125.15697" y="136.694667" style="fill: #1f77b4; stroke: #000000"/>
     <use xlink:href="#m366d82bef6" x="130.428636" y="147.238" style="fill: #1f77b4; stroke: #000000"/>
     <use xlink:href="#m366d82bef6" x="135.700303" y="157.781333" style="fill: #1f77b4; stroke: #000000"/>
     <use xlink:href="#m366d82bef6" x="140.97197" y="168.324667" style="fill: #1f77b4; stroke: #000000"/>
     <use xlink:href="#m366d82bef6" x="146.243636" y="178.868" style="fill: #1f77b4; stroke: #000000"/>
     <use xlink:href="#m366d82bef6" x="151.515303" y="189.411333" style="fill: #1f77b4; stroke: #000000"/>
     <use xlink:href="#m366d82bef6" x="156.78697" y="199.954667" style="fill: #1f77b4; stroke: #000000"/>
     <use xlink:href="#m366d82bef6" x="162.058636" y="210.498" style="fill: #1f77b4; stroke: #000000"/>
     <use xlink:href="#m366d82bef6" x="167.330303" y="221.041333" style="fill: #1f77b4; stroke: #000000"/>
     <use xlink:href="#m366d82bef6" x="172.60197" y="231.584667" style="fill: #1f77b4; stroke: #000000"/>
     <use xlink:href="#m366d82bef6" x="177.873636" y="242.128" style="fill: #1f77b4; stroke: #000000"/>
     <use xlink:href="#m366d82bef6" x="183.145303" y="252.671333" style="fill: #1f77b4; stroke: #000000"/>
     <use xlink:href="#m366d82bef6" x="188.41697" y="263.214667" style="fill: #1f77b4; stroke: #000000"/>
     <use xlink:href="#m366d82bef6" x="193.688636" y="273.758" style="fill: #1f77b4; stroke: #000000"/>
     <use xlink:href="#m366d82bef6" x="198.960303" y="284.301333" style="fill: #1f77b4; stroke: #000000"/>
     <use xlink:href="#m366d82bef6" x="204.23197" y="294.844667" style="fill: #1f77b4; stroke: #000000"/>
     <use xlink:href="#m366d82bef6" x="209.503636" y="305.388" style="fill: #1f77b4; stroke: #000000"/>
    </g>
   </g>
   <g id="matplotlib.axis_1">
    <g id="xtick_1">
     <g id="line2d_2">
      <defs>
       <path id="m8faa678738" d="M 0 0 
L 0 3.5 
" style="stroke: #000000; stroke-width: 0.8"/>
      </defs>
      <g>
       <use xlink:href="#m8faa678738" x="82.983636" y="318.04" style="stroke: #000000; stroke-width: 0.8"/>
      </g>
     </g>
     <g id="text_1">
      <!-- 0 -->
      <g transform="translate(79.802386 332.638438) scale(0.1 -0.1)">
       <defs>
        <path id="DejaVuSans-30" d="M 2034 4250 
Q 1547 4250 1301 3770 
Q 1056 3291 1056 2328 
Q 1056 1369 1301 889 
Q 1547 409 2034 409 
Q 2525 409 2770 889 
Q 3016 1369 3016 2328 
Q 3016 3291 2770 3770 
Q 2525 4250 2034 4250 
z
M 2034 4750 
Q 2819 4750 3233 4129 
Q 3647 3509 3647 2328 
Q 3647 1150 3233 529 
Q 2819 -91 2034 -91 
Q 1250 -91 836 529 
Q 422 1150 422 2328 
Q 422 3509 836 4129 
Q 1250 4750 2034 4750 
z
" transform="scale(0.015625)"/>
       </defs>
       <use xlink:href="#DejaVuSans-30"/>
      </g>
     </g>
    </g>
    <g id="xtick_2">
     <g id="line2d_3">
      <g>
       <use xlink:href="#m8faa678738" x="146.243636" y="318.04" style="stroke: #000000; stroke-width: 0.8"/>
      </g>
     </g>
     <g id="text_2">
      <!-- 5 -->
      <g transform="translate(143.062386 332.638438) scale(0.1 -0.1)">
       <defs>
        <path id="DejaVuSans-35" d="M 691 4666 
L 3169 4666 
L 3169 4134 
L 1269 4134 
L 1269 2991 
Q 1406 3038 1543 3061 
Q 1681 3084 1819 3084 
Q 2600 3084 3056 2656 
Q 3513 2228 3513 1497 
Q 3513 744 3044 326 
Q 2575 -91 1722 -91 
Q 1428 -91 1123 -41 
Q 819 9 494 109 
L 494 744 
Q 775 591 1075 516 
Q 1375 441 1709 441 
Q 2250 441 2565 725 
Q 2881 1009 2881 1497 
Q 2881 1984 2565 2268 
Q 2250 2553 1709 2553 
Q 1456 2553 1204 2497 
Q 953 2441 691 2322 
L 691 4666 
z
" transform="scale(0.015625)"/>
       </defs>
       <use xlink:href="#DejaVuSans-35"/>
      </g>
     </g>
    </g>
    <g id="xtick_3">
     <g id="line2d_4">
      <g>
       <use xlink:href="#m8faa678738" x="209.503636" y="318.04" style="stroke: #000000; stroke-width: 0.8"/>
      </g>
     </g>
     <g id="text_3">
      <!-- 10 -->
      <g transform="translate(203.141136 332.638438) scale(0.1 -0.1)">
       <defs>
        <path id="DejaVuSans-31" d="M 794 531 
L 1825 531 
L 1825 4091 
L 703 3866 
L 703 4441 
L 1819 4666 
L 2450 4666 
L 2450 531 
L 3481 531 
L 3481 0 
L 794 0 
L 794 531 
z
" transform="scale(0.015625)"/>
       </defs>
       <use xlink:href="#DejaVuSans-31"/>
       <use xlink:href="#DejaVuSans-30" x="63.623047"/>
      </g>
     </g>
    </g>
    <g id="text_4">
     <!-- $x$ -->
     <g transform="translate(143.243636 346.316563) scale(0.1 -0.1)">
      <defs>
       <path id="DejaVuSans-Oblique-78" d="M 3841 3500 
L 2234 1784 
L 3219 0 
L 2559 0 
L 1819 1388 
L 531 0 
L -166 0 
L 1556 1844 
L 641 3500 
L 1300 3500 
L 1972 2234 
L 3144 3500 
L 3841 3500 
z
" transform="scale(0.015625)"/>
      </defs>
      <use xlink:href="#DejaVuSans-Oblique-78" transform="translate(0 0.3125)"/>
     </g>
    </g>
   </g>
   <g id="matplotlib.axis_2">
    <g id="ytick_1">
     <g id="line2d_5">
      <defs>
       <path id="ma7b8dc6a26" d="M 0 0 
L -3.5 0 
" style="stroke: #000000; stroke-width: 0.8"/>
      </defs>
      <g>
       <use xlink:href="#ma7b8dc6a26" x="76.657636" y="305.388" style="stroke: #000000; stroke-width: 0.8"/>
      </g>
     </g>
     <g id="text_5">
      <!-- −20.0 -->
      <g transform="translate(39.012324 309.187219) scale(0.1 -0.1)">
       <defs>
        <path id="DejaVuSans-2212" d="M 678 2272 
L 4684 2272 
L 4684 1741 
L 678 1741 
L 678 2272 
z
" transform="scale(0.015625)"/>
        <path id="DejaVuSans-32" d="M 1228 531 
L 3431 531 
L 3431 0 
L 469 0 
L 469 531 
Q 828 903 1448 1529 
Q 2069 2156 2228 2338 
Q 2531 2678 2651 2914 
Q 2772 3150 2772 3378 
Q 2772 3750 2511 3984 
Q 2250 4219 1831 4219 
Q 1534 4219 1204 4116 
Q 875 4013 500 3803 
L 500 4441 
Q 881 4594 1212 4672 
Q 1544 4750 1819 4750 
Q 2544 4750 2975 4387 
Q 3406 4025 3406 3419 
Q 3406 3131 3298 2873 
Q 3191 2616 2906 2266 
Q 2828 2175 2409 1742 
Q 1991 1309 1228 531 
z
" transform="scale(0.015625)"/>
        <path id="DejaVuSans-2e" d="M 684 794 
L 1344 794 
L 1344 0 
L 684 0 
L 684 794 
z
" transform="scale(0.015625)"/>
       </defs>
       <use xlink:href="#DejaVuSans-2212"/>
       <use xlink:href="#DejaVuSans-32" x="83.789062"/>
       <use xlink:href="#DejaVuSans-30" x="147.412109"/>
       <use xlink:href="#DejaVuSans-2e" x="211.035156"/>
       <use xlink:href="#DejaVuSans-30" x="242.822266"/>
      </g>
     </g>
    </g>
    <g id="ytick_2">
     <g id="line2d_6">
      <g>
       <use xlink:href="#ma7b8dc6a26" x="76.657636" y="273.758" style="stroke: #000000; stroke-width: 0.8"/>
      </g>
     </g>
     <g id="text_6">
      <!-- −17.5 -->
      <g transform="translate(39.012324 277.557219) scale(0.1 -0.1)">
       <defs>
        <path id="DejaVuSans-37" d="M 525 4666 
L 3525 4666 
L 3525 4397 
L 1831 0 
L 1172 0 
L 2766 4134 
L 525 4134 
L 525 4666 
z
" transform="scale(0.015625)"/>
       </defs>
       <use xlink:href="#DejaVuSans-2212"/>
       <use xlink:href="#DejaVuSans-31" x="83.789062"/>
       <use xlink:href="#DejaVuSans-37" x="147.412109"/>
       <use xlink:href="#DejaVuSans-2e" x="211.035156"/>
       <use xlink:href="#DejaVuSans-35" x="242.822266"/>
      </g>
     </g>
    </g>
    <g id="ytick_3">
     <g id="line2d_7">
      <g>
       <use xlink:href="#ma7b8dc6a26" x="76.657636" y="242.128" style="stroke: #000000; stroke-width: 0.8"/>
      </g>
     </g>
     <g id="text_7">
      <!-- −15.0 -->
      <g transform="translate(39.012324 245.927219) scale(0.1 -0.1)">
       <use xlink:href="#DejaVuSans-2212"/>
       <use xlink:href="#DejaVuSans-31" x="83.789062"/>
       <use xlink:href="#DejaVuSans-35" x="147.412109"/>
       <use xlink:href="#DejaVuSans-2e" x="211.035156"/>
       <use xlink:href="#DejaVuSans-30" x="242.822266"/>
      </g>
     </g>
    </g>
    <g id="ytick_4">
     <g id="line2d_8">
      <g>
       <use xlink:href="#ma7b8dc6a26" x="76.657636" y="210.498" style="stroke: #000000; stroke-width: 0.8"/>
      </g>
     </g>
     <g id="text_8">
      <!-- −12.5 -->
      <g transform="translate(39.012324 214.297219) scale(0.1 -0.1)">
       <use xlink:href="#DejaVuSans-2212"/>
       <use xlink:href="#DejaVuSans-31" x="83.789062"/>
       <use xlink:href="#DejaVuSans-32" x="147.412109"/>
       <use xlink:href="#DejaVuSans-2e" x="211.035156"/>
       <use xlink:href="#DejaVuSans-35" x="242.822266"/>
      </g>
     </g>
    </g>
    <g id="ytick_5">
     <g id="line2d_9">
      <g>
       <use xlink:href="#ma7b8dc6a26" x="76.657636" y="178.868" style="stroke: #000000; stroke-width: 0.8"/>
      </g>
     </g>
     <g id="text_9">
      <!-- −10.0 -->
      <g transform="translate(39.012324 182.667219) scale(0.1 -0.1)">
       <use xlink:href="#DejaVuSans-2212"/>
       <use xlink:href="#DejaVuSans-31" x="83.789062"/>
       <use xlink:href="#DejaVuSans-30" x="147.412109"/>
       <use xlink:href="#DejaVuSans-2e" x="211.035156"/>
       <use xlink:href="#DejaVuSans-30" x="242.822266"/>
      </g>
     </g>
    </g>
    <g id="ytick_6">
     <g id="line2d_10">
      <g>
       <use xlink:href="#ma7b8dc6a26" x="76.657636" y="147.238" style="stroke: #000000; stroke-width: 0.8"/>
      </g>
     </g>
     <g id="text_10">
      <!-- −7.5 -->
      <g transform="translate(45.374824 151.037219) scale(0.1 -0.1)">
       <use xlink:href="#DejaVuSans-2212"/>
       <use xlink:href="#DejaVuSans-37" x="83.789062"/>
       <use xlink:href="#DejaVuSans-2e" x="147.412109"/>
       <use xlink:href="#DejaVuSans-35" x="179.199219"/>
      </g>
     </g>
    </g>
    <g id="ytick_7">
     <g id="line2d_11">
      <g>
       <use xlink:href="#ma7b8dc6a26" x="76.657636" y="115.608" style="stroke: #000000; stroke-width: 0.8"/>
      </g>
     </g>
     <g id="text_11">
      <!-- −5.0 -->
      <g transform="translate(45.374824 119.407219) scale(0.1 -0.1)">
       <use xlink:href="#DejaVuSans-2212"/>
       <use xlink:href="#DejaVuSans-35" x="83.789062"/>
       <use xlink:href="#DejaVuSans-2e" x="147.412109"/>
       <use xlink:href="#DejaVuSans-30" x="179.199219"/>
      </g>
     </g>
    </g>
    <g id="ytick_8">
     <g id="line2d_12">
      <g>
       <use xlink:href="#ma7b8dc6a26" x="76.657636" y="83.978" style="stroke: #000000; stroke-width: 0.8"/>
      </g>
     </g>
     <g id="text_12">
      <!-- −2.5 -->
      <g transform="translate(45.374824 87.777219) scale(0.1 -0.1)">
       <use xlink:href="#DejaVuSans-2212"/>
       <use xlink:href="#DejaVuSans-32" x="83.789062"/>
       <use xlink:href="#DejaVuSans-2e" x="147.412109"/>
       <use xlink:href="#DejaVuSans-35" x="179.199219"/>
      </g>
     </g>
    </g>
    <g id="ytick_9">
     <g id="line2d_13">
      <g>
       <use xlink:href="#ma7b8dc6a26" x="76.657636" y="52.348" style="stroke: #000000; stroke-width: 0.8"/>
      </g>
     </g>
     <g id="text_13">
      <!-- 0.0 -->
      <g transform="translate(53.754511 56.147219) scale(0.1 -0.1)">
       <use xlink:href="#DejaVuSans-30"/>
       <use xlink:href="#DejaVuSans-2e" x="63.623047"/>
       <use xlink:href="#DejaVuSans-30" x="95.410156"/>
      </g>
     </g>
    </g>
    <g id="text_14">
     <!-- $y$ -->
     <g transform="translate(32.912324 181.868) rotate(-90) scale(0.1 -0.1)">
      <defs>
       <path id="DejaVuSans-Oblique-79" d="M 1588 -325 
Q 1188 -997 936 -1164 
Q 684 -1331 294 -1331 
L -159 -1331 
L -63 -850 
L 269 -850 
Q 509 -850 678 -719 
Q 847 -588 1056 -206 
L 1234 128 
L 459 3500 
L 1069 3500 
L 1650 819 
L 3256 3500 
L 3859 3500 
L 1588 -325 
z
" transform="scale(0.015625)"/>
      </defs>
      <use xlink:href="#DejaVuSans-Oblique-79" transform="translate(0 0.3125)"/>
     </g>
    </g>
   </g>
   <g id="patch_3">
    <path d="M 76.657636 318.04 
L 76.657636 39.696 
" style="fill: none; stroke: #000000; stroke-width: 0.8; stroke-linejoin: miter; stroke-linecap: square"/>
   </g>
   <g id="patch_4">
    <path d="M 215.829636 318.04 
L 215.829636 39.696 
" style="fill: none; stroke: #000000; stroke-width: 0.8; stroke-linejoin: miter; stroke-linecap: square"/>
   </g>
   <g id="patch_5">
    <path d="M 76.657636 318.04 
L 215.829636 318.04 
" style="fill: none; stroke: #000000; stroke-width: 0.8; stroke-linejoin: miter; stroke-linecap: square"/>
   </g>
   <g id="patch_6">
    <path d="M 76.657636 39.696 
L 215.829636 39.696 
" style="fill: none; stroke: #000000; stroke-width: 0.8; stroke-linejoin: miter; stroke-linecap: square"/>
   </g>
   <g id="text_15">
    <!-- Raw Values -->
    <g transform="translate(112.115824 20.256375) scale(0.12 -0.12)">
     <defs>
      <path id="DejaVuSans-52" d="M 2841 2188 
Q 3044 2119 3236 1894 
Q 3428 1669 3622 1275 
L 4263 0 
L 3584 0 
L 2988 1197 
Q 2756 1666 2539 1819 
Q 2322 1972 1947 1972 
L 1259 1972 
L 1259 0 
L 628 0 
L 628 4666 
L 2053 4666 
Q 2853 4666 3247 4331 
Q 3641 3997 3641 3322 
Q 3641 2881 3436 2590 
Q 3231 2300 2841 2188 
z
M 1259 4147 
L 1259 2491 
L 2053 2491 
Q 2509 2491 2742 2702 
Q 2975 2913 2975 3322 
Q 2975 3731 2742 3939 
Q 2509 4147 2053 4147 
L 1259 4147 
z
" transform="scale(0.015625)"/>
      <path id="DejaVuSans-61" d="M 2194 1759 
Q 1497 1759 1228 1600 
Q 959 1441 959 1056 
Q 959 750 1161 570 
Q 1363 391 1709 391 
Q 2188 391 2477 730 
Q 2766 1069 2766 1631 
L 2766 1759 
L 2194 1759 
z
M 3341 1997 
L 3341 0 
L 2766 0 
L 2766 531 
Q 2569 213 2275 61 
Q 1981 -91 1556 -91 
Q 1019 -91 701 211 
Q 384 513 384 1019 
Q 384 1609 779 1909 
Q 1175 2209 1959 2209 
L 2766 2209 
L 2766 2266 
Q 2766 2663 2505 2880 
Q 2244 3097 1772 3097 
Q 1472 3097 1187 3025 
Q 903 2953 641 2809 
L 641 3341 
Q 956 3463 1253 3523 
Q 1550 3584 1831 3584 
Q 2591 3584 2966 3190 
Q 3341 2797 3341 1997 
z
" transform="scale(0.015625)"/>
      <path id="DejaVuSans-77" d="M 269 3500 
L 844 3500 
L 1563 769 
L 2278 3500 
L 2956 3500 
L 3675 769 
L 4391 3500 
L 4966 3500 
L 4050 0 
L 3372 0 
L 2619 2869 
L 1863 0 
L 1184 0 
L 269 3500 
z
" transform="scale(0.015625)"/>
      <path id="DejaVuSans-20" transform="scale(0.015625)"/>
      <path id="DejaVuSans-56" d="M 1831 0 
L 50 4666 
L 709 4666 
L 2188 738 
L 3669 4666 
L 4325 4666 
L 2547 0 
L 1831 0 
z
" transform="scale(0.015625)"/>
      <path id="DejaVuSans-6c" d="M 603 4863 
L 1178 4863 
L 1178 0 
L 603 0 
L 603 4863 
z
" transform="scale(0.015625)"/>
      <path id="DejaVuSans-75" d="M 544 1381 
L 544 3500 
L 1119 3500 
L 1119 1403 
Q 1119 906 1312 657 
Q 1506 409 1894 409 
Q 2359 409 2629 706 
Q 2900 1003 2900 1516 
L 2900 3500 
L 3475 3500 
L 3475 0 
L 2900 0 
L 2900 538 
Q 2691 219 2414 64 
Q 2138 -91 1772 -91 
Q 1169 -91 856 284 
Q 544 659 544 1381 
z
M 1991 3584 
L 1991 3584 
z
" transform="scale(0.015625)"/>
      <path id="DejaVuSans-65" d="M 3597 1894 
L 3597 1613 
L 953 1613 
Q 991 1019 1311 708 
Q 1631 397 2203 397 
Q 2534 397 2845 478 
Q 3156 559 3463 722 
L 3463 178 
Q 3153 47 2828 -22 
Q 2503 -91 2169 -91 
Q 1331 -91 842 396 
Q 353 884 353 1716 
Q 353 2575 817 3079 
Q 1281 3584 2069 3584 
Q 2775 3584 3186 3129 
Q 3597 2675 3597 1894 
z
M 3022 2063 
Q 3016 2534 2758 2815 
Q 2500 3097 2075 3097 
Q 1594 3097 1305 2825 
Q 1016 2553 972 2059 
L 3022 2063 
z
" transform="scale(0.015625)"/>
      <path id="DejaVuSans-73" d="M 2834 3397 
L 2834 2853 
Q 2591 2978 2328 3040 
Q 2066 3103 1784 3103 
Q 1356 3103 1142 2972 
Q 928 2841 928 2578 
Q 928 2378 1081 2264 
Q 1234 2150 1697 2047 
L 1894 2003 
Q 2506 1872 2764 1633 
Q 3022 1394 3022 966 
Q 3022 478 2636 193 
Q 2250 -91 1575 -91 
Q 1294 -91 989 -36 
Q 684 19 347 128 
L 347 722 
Q 666 556 975 473 
Q 1284 391 1588 391 
Q 1994 391 2212 530 
Q 2431 669 2431 922 
Q 2431 1156 2273 1281 
Q 2116 1406 1581 1522 
L 1381 1569 
Q 847 1681 609 1914 
Q 372 2147 372 2553 
Q 372 3047 722 3315 
Q 1072 3584 1716 3584 
Q 2034 3584 2315 3537 
Q 2597 3491 2834 3397 
z
" transform="scale(0.015625)"/>
     </defs>
     <use xlink:href="#DejaVuSans-52"/>
     <use xlink:href="#DejaVuSans-61" x="67.232422"/>
     <use xlink:href="#DejaVuSans-77" x="128.511719"/>
     <use xlink:href="#DejaVuSans-20" x="210.298828"/>
     <use xlink:href="#DejaVuSans-56" x="242.085938"/>
     <use xlink:href="#DejaVuSans-61" x="302.744141"/>
     <use xlink:href="#DejaVuSans-6c" x="364.023438"/>
     <use xlink:href="#DejaVuSans-75" x="391.806641"/>
     <use xlink:href="#DejaVuSans-65" x="455.185547"/>
     <use xlink:href="#DejaVuSans-73" x="516.708984"/>
    </g>
    <!-- Slope$\approx$-2.00, $r$ = -1.00 -->
    <g transform="translate(76.043636 33.696) scale(0.12 -0.12)">
     <defs>
      <path id="DejaVuSans-53" d="M 3425 4513 
L 3425 3897 
Q 3066 4069 2747 4153 
Q 2428 4238 2131 4238 
Q 1616 4238 1336 4038 
Q 1056 3838 1056 3469 
Q 1056 3159 1242 3001 
Q 1428 2844 1947 2747 
L 2328 2669 
Q 3034 2534 3370 2195 
Q 3706 1856 3706 1288 
Q 3706 609 3251 259 
Q 2797 -91 1919 -91 
Q 1588 -91 1214 -16 
Q 841 59 441 206 
L 441 856 
Q 825 641 1194 531 
Q 1563 422 1919 422 
Q 2459 422 2753 634 
Q 3047 847 3047 1241 
Q 3047 1584 2836 1778 
Q 2625 1972 2144 2069 
L 1759 2144 
Q 1053 2284 737 2584 
Q 422 2884 422 3419 
Q 422 4038 858 4394 
Q 1294 4750 2059 4750 
Q 2388 4750 2728 4690 
Q 3069 4631 3425 4513 
z
" transform="scale(0.015625)"/>
      <path id="DejaVuSans-6f" d="M 1959 3097 
Q 1497 3097 1228 2736 
Q 959 2375 959 1747 
Q 959 1119 1226 758 
Q 1494 397 1959 397 
Q 2419 397 2687 759 
Q 2956 1122 2956 1747 
Q 2956 2369 2687 2733 
Q 2419 3097 1959 3097 
z
M 1959 3584 
Q 2709 3584 3137 3096 
Q 3566 2609 3566 1747 
Q 3566 888 3137 398 
Q 2709 -91 1959 -91 
Q 1206 -91 779 398 
Q 353 888 353 1747 
Q 353 2609 779 3096 
Q 1206 3584 1959 3584 
z
" transform="scale(0.015625)"/>
      <path id="DejaVuSans-70" d="M 1159 525 
L 1159 -1331 
L 581 -1331 
L 581 3500 
L 1159 3500 
L 1159 2969 
Q 1341 3281 1617 3432 
Q 1894 3584 2278 3584 
Q 2916 3584 3314 3078 
Q 3713 2572 3713 1747 
Q 3713 922 3314 415 
Q 2916 -91 2278 -91 
Q 1894 -91 1617 61 
Q 1341 213 1159 525 
z
M 3116 1747 
Q 3116 2381 2855 2742 
Q 2594 3103 2138 3103 
Q 1681 3103 1420 2742 
Q 1159 2381 1159 1747 
Q 1159 1113 1420 752 
Q 1681 391 2138 391 
Q 2594 391 2855 752 
Q 3116 1113 3116 1747 
z
" transform="scale(0.015625)"/>
      <path id="DejaVuSans-2248" d="M 4684 1947 
L 4684 1388 
Q 4356 1144 4076 1036 
Q 3797 928 3494 928 
Q 3150 928 2694 1113 
Q 2663 1125 2641 1134 
Q 2622 1141 2575 1159 
Q 2091 1350 1797 1350 
Q 1522 1350 1253 1231 
Q 984 1113 678 850 
L 678 1409 
Q 1006 1653 1286 1761 
Q 1566 1869 1869 1869 
Q 2213 1869 2672 1684 
Q 2706 1669 2722 1663 
Q 2741 1656 2788 1638 
Q 3272 1447 3566 1447 
Q 3834 1447 4098 1564 
Q 4363 1681 4684 1947 
z
M 4684 3163 
L 4684 2606 
Q 4356 2359 4076 2251 
Q 3797 2144 3494 2144 
Q 3150 2144 2694 2328 
Q 2663 2341 2641 2350 
Q 2622 2356 2575 2375 
Q 2091 2566 1797 2566 
Q 1522 2566 1253 2447 
Q 984 2328 678 2069 
L 678 2625 
Q 1006 2869 1286 2976 
Q 1566 3084 1869 3084 
Q 2213 3084 2672 2900 
Q 2703 2888 2719 2881 
Q 2741 2872 2788 2853 
Q 3272 2663 3566 2663 
Q 3834 2663 4098 2780 
Q 4363 2897 4684 3163 
z
" transform="scale(0.015625)"/>
      <path id="DejaVuSans-2d" d="M 313 2009 
L 1997 2009 
L 1997 1497 
L 313 1497 
L 313 2009 
z
" transform="scale(0.015625)"/>
      <path id="DejaVuSans-2c" d="M 750 794 
L 1409 794 
L 1409 256 
L 897 -744 
L 494 -744 
L 750 256 
L 750 794 
z
" transform="scale(0.015625)"/>
      <path id="DejaVuSans-Oblique-72" d="M 2853 2969 
Q 2766 3016 2653 3041 
Q 2541 3066 2413 3066 
Q 1953 3066 1609 2717 
Q 1266 2369 1153 1784 
L 800 0 
L 225 0 
L 909 3500 
L 1484 3500 
L 1375 2956 
Q 1603 3259 1920 3421 
Q 2238 3584 2597 3584 
Q 2691 3584 2781 3573 
Q 2872 3563 2963 3538 
L 2853 2969 
z
" transform="scale(0.015625)"/>
      <path id="DejaVuSans-3d" d="M 678 2906 
L 4684 2906 
L 4684 2381 
L 678 2381 
L 678 2906 
z
M 678 1631 
L 4684 1631 
L 4684 1100 
L 678 1100 
L 678 1631 
z
" transform="scale(0.015625)"/>
     </defs>
     <use xlink:href="#DejaVuSans-53" transform="translate(0 0.015625)"/>
     <use xlink:href="#DejaVuSans-6c" transform="translate(63.476562 0.015625)"/>
     <use xlink:href="#DejaVuSans-6f" transform="translate(91.259766 0.015625)"/>
     <use xlink:href="#DejaVuSans-70" transform="translate(152.441406 0.015625)"/>
     <use xlink:href="#DejaVuSans-65" transform="translate(215.917969 0.015625)"/>
     <use xlink:href="#DejaVuSans-2248" transform="translate(296.923828 0.015625)"/>
     <use xlink:href="#DejaVuSans-2d" transform="translate(400.195312 0.015625)"/>
     <use xlink:href="#DejaVuSans-32" transform="translate(436.279297 0.015625)"/>
     <use xlink:href="#DejaVuSans-2e" transform="translate(499.902344 0.015625)"/>
     <use xlink:href="#DejaVuSans-30" transform="translate(531.689453 0.015625)"/>
     <use xlink:href="#DejaVuSans-30" transform="translate(595.3125 0.015625)"/>
     <use xlink:href="#DejaVuSans-2c" transform="translate(658.935547 0.015625)"/>
     <use xlink:href="#DejaVuSans-20" transform="translate(690.722656 0.015625)"/>
     <use xlink:href="#DejaVuSans-Oblique-72" transform="translate(722.509766 0.015625)"/>
     <use xlink:href="#DejaVuSans-20" transform="translate(763.623047 0.015625)"/>
     <use xlink:href="#DejaVuSans-3d" transform="translate(795.410156 0.015625)"/>
     <use xlink:href="#DejaVuSans-20" transform="translate(879.199219 0.015625)"/>
     <use xlink:href="#DejaVuSans-2d" transform="translate(910.986328 0.015625)"/>
     <use xlink:href="#DejaVuSans-31" transform="translate(947.070312 0.015625)"/>
     <use xlink:href="#DejaVuSans-2e" transform="translate(1010.693359 0.015625)"/>
     <use xlink:href="#DejaVuSans-30" transform="translate(1042.480469 0.015625)"/>
     <use xlink:href="#DejaVuSans-30" transform="translate(1106.103516 0.015625)"/>
    </g>
   </g>
  </g>
  <g id="axes_2">
   <g id="patch_7">
    <path d="M 288.347273 281.294364 
L 493.2 281.294364 
L 493.2 76.441636 
L 288.347273 76.441636 
L 288.347273 281.294364 
z
" style="fill: none"/>
   </g>
   <g id="line2d_14">
    <path d="M 297.65876 85.753124 
L 305.418333 93.512697 
L 313.177906 101.27227 
L 320.937479 109.031843 
L 328.697052 116.791416 
L 336.456625 124.550989 
L 344.216198 132.310562 
L 351.975771 140.070135 
L 359.735344 147.829708 
L 367.494917 155.589281 
L 375.25449 163.348854 
L 383.014063 171.108427 
L 390.773636 178.868 
L 398.533209 186.627573 
L 406.292782 194.387146 
L 414.052355 202.146719 
L 421.811928 209.906292 
L 429.571501 217.665865 
L 437.331074 225.425438 
L 445.090647 233.185011 
L 452.85022 240.944584 
L 460.609793 248.704157 
L 468.369366 256.46373 
L 476.128939 264.223303 
L 483.888512 271.982876 
" clip-path="url(#pdc01f59515)" style="fill: none; stroke-dasharray: 5.55,2.4; stroke-dashoffset: 0; stroke: #808080; stroke-width: 1.5"/>
   </g>
   <g id="PathCollection_2">
    <g clip-path="url(#pdc01f59515)">
     <use xlink:href="#m366d82bef6" x="297.65876" y="85.753124" style="fill: #1f77b4; stroke: #000000"/>
     <use xlink:href="#m366d82bef6" x="305.418333" y="93.512697" style="fill: #1f77b4; stroke: #000000"/>
     <use xlink:href="#m366d82bef6" x="313.177906" y="101.27227" style="fill: #1f77b4; stroke: #000000"/>
     <use xlink:href="#m366d82bef6" x="320.937479" y="109.031843" style="fill: #1f77b4; stroke: #000000"/>
     <use xlink:href="#m366d82bef6" x="328.697052" y="116.791416" style="fill: #1f77b4; stroke: #000000"/>
     <use xlink:href="#m366d82bef6" x="336.456625" y="124.550989" style="fill: #1f77b4; stroke: #000000"/>
     <use xlink:href="#m366d82bef6" x="344.216198" y="132.310562" style="fill: #1f77b4; stroke: #000000"/>
     <use xlink:href="#m366d82bef6" x="351.975771" y="140.070135" style="fill: #1f77b4; stroke: #000000"/>
     <use xlink:href="#m366d82bef6" x="359.735344" y="147.829708" style="fill: #1f77b4; stroke: #000000"/>
     <use xlink:href="#m366d82bef6" x="367.494917" y="155.589281" style="fill: #1f77b4; stroke: #000000"/>
     <use xlink:href="#m366d82bef6" x="375.25449" y="163.348854" style="fill: #1f77b4; stroke: #000000"/>
     <use xlink:href="#m366d82bef6" x="383.014063" y="171.108427" style="fill: #1f77b4; stroke: #000000"/>
     <use xlink:href="#m366d82bef6" x="390.773636" y="178.868" style="fill: #1f77b4; stroke: #000000"/>
     <use xlink:href="#m366d82bef6" x="398.533209" y="186.627573" style="fill: #1f77b4; stroke: #000000"/>
     <use xlink:href="#m366d82bef6" x="406.292782" y="194.387146" style="fill: #1f77b4; stroke: #000000"/>
     <use xlink:href="#m366d82bef6" x="414.052355" y="202.146719" style="fill: #1f77b4; stroke: #000000"/>
     <use xlink:href="#m366d82bef6" x="421.811928" y="209.906292" style="fill: #1f77b4; stroke: #000000"/>
     <use xlink:href="#m366d82bef6" x="429.571501" y="217.665865" style="fill: #1f77b4; stroke: #000000"/>
     <use xlink:href="#m366d82bef6" x="437.331074" y="225.425438" style="fill: #1f77b4; stroke: #000000"/>
     <use xlink:href="#m366d82bef6" x="445.090647" y="233.185011" style="fill: #1f77b4; stroke: #000000"/>
     <use xlink:href="#m366d82bef6" x="452.85022" y="240.944584" style="fill: #1f77b4; stroke: #000000"/>
     <use xlink:href="#m366d82bef6" x="460.609793" y="248.704157" style="fill: #1f77b4; stroke: #000000"/>
     <use xlink:href="#m366d82bef6" x="468.369366" y="256.46373" style="fill: #1f77b4; stroke: #000000"/>
     <use xlink:href="#m366d82bef6" x="476.128939" y="264.223303" style="fill: #1f77b4; stroke: #000000"/>
     <use xlink:href="#m366d82bef6" x="483.888512" y="271.982876" style="fill: #1f77b4; stroke: #000000"/>
    </g>
   </g>
   <g id="matplotlib.axis_3">
    <g id="xtick_4">
     <g id="line2d_15">
      <g>
       <use xlink:href="#m8faa678738" x="334.81856" y="281.294364" style="stroke: #000000; stroke-width: 0.8"/>
      </g>
     </g>
     <g id="text_16">
      <!-- −1 -->
      <g transform="translate(327.447466 295.892801) scale(0.1 -0.1)">
       <use xlink:href="#DejaVuSans-2212"/>
       <use xlink:href="#DejaVuSans-31" x="83.789062"/>
      </g>
     </g>
    </g>
    <g id="xtick_5">
     <g id="line2d_16">
      <g>
       <use xlink:href="#m8faa678738" x="390.773636" y="281.294364" style="stroke: #000000; stroke-width: 0.8"/>
      </g>
     </g>
     <g id="text_17">
      <!-- 0 -->
      <g transform="translate(387.592386 295.892801) scale(0.1 -0.1)">
       <use xlink:href="#DejaVuSans-30"/>
      </g>
     </g>
    </g>
    <g id="xtick_6">
     <g id="line2d_17">
      <g>
       <use xlink:href="#m8faa678738" x="446.728713" y="281.294364" style="stroke: #000000; stroke-width: 0.8"/>
      </g>
     </g>
     <g id="text_18">
      <!-- 1 -->
      <g transform="translate(443.547463 295.892801) scale(0.1 -0.1)">
       <use xlink:href="#DejaVuSans-31"/>
      </g>
     </g>
    </g>
    <g id="text_19">
     <!-- $x$ in standard units -->
     <g transform="translate(343.923636 309.570926) scale(0.1 -0.1)">
      <defs>
       <path id="DejaVuSans-69" d="M 603 3500 
L 1178 3500 
L 1178 0 
L 603 0 
L 603 3500 
z
M 603 4863 
L 1178 4863 
L 1178 4134 
L 603 4134 
L 603 4863 
z
" transform="scale(0.015625)"/>
       <path id="DejaVuSans-6e" d="M 3513 2113 
L 3513 0 
L 2938 0 
L 2938 2094 
Q 2938 2591 2744 2837 
Q 2550 3084 2163 3084 
Q 1697 3084 1428 2787 
Q 1159 2491 1159 1978 
L 1159 0 
L 581 0 
L 581 3500 
L 1159 3500 
L 1159 2956 
Q 1366 3272 1645 3428 
Q 1925 3584 2291 3584 
Q 2894 3584 3203 3211 
Q 3513 2838 3513 2113 
z
" transform="scale(0.015625)"/>
       <path id="DejaVuSans-74" d="M 1172 4494 
L 1172 3500 
L 2356 3500 
L 2356 3053 
L 1172 3053 
L 1172 1153 
Q 1172 725 1289 603 
Q 1406 481 1766 481 
L 2356 481 
L 2356 0 
L 1766 0 
Q 1100 0 847 248 
Q 594 497 594 1153 
L 594 3053 
L 172 3053 
L 172 3500 
L 594 3500 
L 594 4494 
L 1172 4494 
z
" transform="scale(0.015625)"/>
       <path id="DejaVuSans-64" d="M 2906 2969 
L 2906 4863 
L 3481 4863 
L 3481 0 
L 2906 0 
L 2906 525 
Q 2725 213 2448 61 
Q 2172 -91 1784 -91 
Q 1150 -91 751 415 
Q 353 922 353 1747 
Q 353 2572 751 3078 
Q 1150 3584 1784 3584 
Q 2172 3584 2448 3432 
Q 2725 3281 2906 2969 
z
M 947 1747 
Q 947 1113 1208 752 
Q 1469 391 1925 391 
Q 2381 391 2643 752 
Q 2906 1113 2906 1747 
Q 2906 2381 2643 2742 
Q 2381 3103 1925 3103 
Q 1469 3103 1208 2742 
Q 947 2381 947 1747 
z
" transform="scale(0.015625)"/>
       <path id="DejaVuSans-72" d="M 2631 2963 
Q 2534 3019 2420 3045 
Q 2306 3072 2169 3072 
Q 1681 3072 1420 2755 
Q 1159 2438 1159 1844 
L 1159 0 
L 581 0 
L 581 3500 
L 1159 3500 
L 1159 2956 
Q 1341 3275 1631 3429 
Q 1922 3584 2338 3584 
Q 2397 3584 2469 3576 
Q 2541 3569 2628 3553 
L 2631 2963 
z
" transform="scale(0.015625)"/>
      </defs>
      <use xlink:href="#DejaVuSans-Oblique-78" transform="translate(0 0.015625)"/>
      <use xlink:href="#DejaVuSans-20" transform="translate(59.179688 0.015625)"/>
      <use xlink:href="#DejaVuSans-69" transform="translate(90.966797 0.015625)"/>
      <use xlink:href="#DejaVuSans-6e" transform="translate(118.75 0.015625)"/>
      <use xlink:href="#DejaVuSans-20" transform="translate(182.128906 0.015625)"/>
      <use xlink:href="#DejaVuSans-73" transform="translate(213.916016 0.015625)"/>
      <use xlink:href="#DejaVuSans-74" transform="translate(266.015625 0.015625)"/>
      <use xlink:href="#DejaVuSans-61" transform="translate(305.224609 0.015625)"/>
      <use xlink:href="#DejaVuSans-6e" transform="translate(366.503906 0.015625)"/>
      <use xlink:href="#DejaVuSans-64" transform="translate(429.882812 0.015625)"/>
      <use xlink:href="#DejaVuSans-61" transform="translate(493.359375 0.015625)"/>
      <use xlink:href="#DejaVuSans-72" transform="translate(554.638672 0.015625)"/>
      <use xlink:href="#DejaVuSans-64" transform="translate(595.751953 0.015625)"/>
      <use xlink:href="#DejaVuSans-20" transform="translate(659.228516 0.015625)"/>
      <use xlink:href="#DejaVuSans-75" transform="translate(691.015625 0.015625)"/>
      <use xlink:href="#DejaVuSans-6e" transform="translate(754.394531 0.015625)"/>
      <use xlink:href="#DejaVuSans-69" transform="translate(817.773438 0.015625)"/>
      <use xlink:href="#DejaVuSans-74" transform="translate(845.556641 0.015625)"/>
      <use xlink:href="#DejaVuSans-73" transform="translate(884.765625 0.015625)"/>
     </g>
    </g>
   </g>
   <g id="matplotlib.axis_4">
    <g id="ytick_10">
     <g id="line2d_18">
      <g>
       <use xlink:href="#ma7b8dc6a26" x="288.347273" y="262.800615" style="stroke: #000000; stroke-width: 0.8"/>
      </g>
     </g>
     <g id="text_20">
      <!-- −1.5 -->
      <g transform="translate(257.06446 266.599834) scale(0.1 -0.1)">
       <use xlink:href="#DejaVuSans-2212"/>
       <use xlink:href="#DejaVuSans-31" x="83.789062"/>
       <use xlink:href="#DejaVuSans-2e" x="147.412109"/>
       <use xlink:href="#DejaVuSans-35" x="179.199219"/>
      </g>
     </g>
    </g>
    <g id="ytick_11">
     <g id="line2d_19">
      <g>
       <use xlink:href="#ma7b8dc6a26" x="288.347273" y="234.823077" style="stroke: #000000; stroke-width: 0.8"/>
      </g>
     </g>
     <g id="text_21">
      <!-- −1.0 -->
      <g transform="translate(257.06446 238.622295) scale(0.1 -0.1)">
       <use xlink:href="#DejaVuSans-2212"/>
       <use xlink:href="#DejaVuSans-31" x="83.789062"/>
       <use xlink:href="#DejaVuSans-2e" x="147.412109"/>
       <use xlink:href="#DejaVuSans-30" x="179.199219"/>
      </g>
     </g>
    </g>
    <g id="ytick_12">
     <g id="line2d_20">
      <g>
       <use xlink:href="#ma7b8dc6a26" x="288.347273" y="206.845538" style="stroke: #000000; stroke-width: 0.8"/>
      </g>
     </g>
     <g id="text_22">
      <!-- −0.5 -->
      <g transform="translate(257.06446 210.644757) scale(0.1 -0.1)">
       <use xlink:href="#DejaVuSans-2212"/>
       <use xlink:href="#DejaVuSans-30" x="83.789062"/>
       <use xlink:href="#DejaVuSans-2e" x="147.412109"/>
       <use xlink:href="#DejaVuSans-35" x="179.199219"/>
      </g>
     </g>
    </g>
    <g id="ytick_13">
     <g id="line2d_21">
      <g>
       <use xlink:href="#ma7b8dc6a26" x="288.347273" y="178.868" style="stroke: #000000; stroke-width: 0.8"/>
      </g>
     </g>
     <g id="text_23">
      <!-- 0.0 -->
      <g transform="translate(265.444148 182.667219) scale(0.1 -0.1)">
       <use xlink:href="#DejaVuSans-30"/>
       <use xlink:href="#DejaVuSans-2e" x="63.623047"/>
       <use xlink:href="#DejaVuSans-30" x="95.410156"/>
      </g>
     </g>
    </g>
    <g id="ytick_14">
     <g id="line2d_22">
      <g>
       <use xlink:href="#ma7b8dc6a26" x="288.347273" y="150.890462" style="stroke: #000000; stroke-width: 0.8"/>
      </g>
     </g>
     <g id="text_24">
      <!-- 0.5 -->
      <g transform="translate(265.444148 154.68968) scale(0.1 -0.1)">
       <use xlink:href="#DejaVuSans-30"/>
       <use xlink:href="#DejaVuSans-2e" x="63.623047"/>
       <use xlink:href="#DejaVuSans-35" x="95.410156"/>
      </g>
     </g>
    </g>
    <g id="ytick_15">
     <g id="line2d_23">
      <g>
       <use xlink:href="#ma7b8dc6a26" x="288.347273" y="122.912923" style="stroke: #000000; stroke-width: 0.8"/>
      </g>
     </g>
     <g id="text_25">
      <!-- 1.0 -->
      <g transform="translate(265.444148 126.712142) scale(0.1 -0.1)">
       <use xlink:href="#DejaVuSans-31"/>
       <use xlink:href="#DejaVuSans-2e" x="63.623047"/>
       <use xlink:href="#DejaVuSans-30" x="95.410156"/>
      </g>
     </g>
    </g>
    <g id="ytick_16">
     <g id="line2d_24">
      <g>
       <use xlink:href="#ma7b8dc6a26" x="288.347273" y="94.935385" style="stroke: #000000; stroke-width: 0.8"/>
      </g>
     </g>
     <g id="text_26">
      <!-- 1.5 -->
      <g transform="translate(265.444148 98.734604) scale(0.1 -0.1)">
       <use xlink:href="#DejaVuSans-31"/>
       <use xlink:href="#DejaVuSans-2e" x="63.623047"/>
       <use xlink:href="#DejaVuSans-35" x="95.410156"/>
      </g>
     </g>
    </g>
    <g id="text_27">
     <!-- $y$ in standard units -->
     <g transform="translate(250.96446 225.718) rotate(-90) scale(0.1 -0.1)">
      <use xlink:href="#DejaVuSans-Oblique-79" transform="translate(0 0.015625)"/>
      <use xlink:href="#DejaVuSans-20" transform="translate(59.179688 0.015625)"/>
      <use xlink:href="#DejaVuSans-69" transform="translate(90.966797 0.015625)"/>
      <use xlink:href="#DejaVuSans-6e" transform="translate(118.75 0.015625)"/>
      <use xlink:href="#DejaVuSans-20" transform="translate(182.128906 0.015625)"/>
      <use xlink:href="#DejaVuSans-73" transform="translate(213.916016 0.015625)"/>
      <use xlink:href="#DejaVuSans-74" transform="translate(266.015625 0.015625)"/>
      <use xlink:href="#DejaVuSans-61" transform="translate(305.224609 0.015625)"/>
      <use xlink:href="#DejaVuSans-6e" transform="translate(366.503906 0.015625)"/>
      <use xlink:href="#DejaVuSans-64" transform="translate(429.882812 0.015625)"/>
      <use xlink:href="#DejaVuSans-61" transform="translate(493.359375 0.015625)"/>
      <use xlink:href="#DejaVuSans-72" transform="translate(554.638672 0.015625)"/>
      <use xlink:href="#DejaVuSans-64" transform="translate(595.751953 0.015625)"/>
      <use xlink:href="#DejaVuSans-20" transform="translate(659.228516 0.015625)"/>
      <use xlink:href="#DejaVuSans-75" transform="translate(691.015625 0.015625)"/>
      <use xlink:href="#DejaVuSans-6e" transform="translate(754.394531 0.015625)"/>
      <use xlink:href="#DejaVuSans-69" transform="translate(817.773438 0.015625)"/>
      <use xlink:href="#DejaVuSans-74" transform="translate(845.556641 0.015625)"/>
      <use xlink:href="#DejaVuSans-73" transform="translate(884.765625 0.015625)"/>
     </g>
    </g>
   </g>
   <g id="patch_8">
    <path d="M 288.347273 281.294364 
L 288.347273 76.441636 
" style="fill: none; stroke: #000000; stroke-width: 0.8; stroke-linejoin: miter; stroke-linecap: square"/>
   </g>
   <g id="patch_9">
    <path d="M 493.2 281.294364 
L 493.2 76.441636 
" style="fill: none; stroke: #000000; stroke-width: 0.8; stroke-linejoin: miter; stroke-linecap: square"/>
   </g>
   <g id="patch_10">
    <path d="M 288.347273 281.294364 
L 493.2 281.294364 
" style="fill: none; stroke: #000000; stroke-width: 0.8; stroke-linejoin: miter; stroke-linecap: square"/>
   </g>
   <g id="patch_11">
    <path d="M 288.347273 76.441636 
L 493.2 76.441636 
" style="fill: none; stroke: #000000; stroke-width: 0.8; stroke-linejoin: miter; stroke-linecap: square"/>
   </g>
   <g id="text_28">
    <!-- Standardized Values -->
    <g transform="translate(329.649574 57.002011) scale(0.12 -0.12)">
     <defs>
      <path id="DejaVuSans-7a" d="M 353 3500 
L 3084 3500 
L 3084 2975 
L 922 459 
L 3084 459 
L 3084 0 
L 275 0 
L 275 525 
L 2438 3041 
L 353 3041 
L 353 3500 
z
" transform="scale(0.015625)"/>
     </defs>
     <use xlink:href="#DejaVuSans-53"/>
     <use xlink:href="#DejaVuSans-74" x="63.476562"/>
     <use xlink:href="#DejaVuSans-61" x="102.685547"/>
     <use xlink:href="#DejaVuSans-6e" x="163.964844"/>
     <use xlink:href="#DejaVuSans-64" x="227.34375"/>
     <use xlink:href="#DejaVuSans-61" x="290.820312"/>
     <use xlink:href="#DejaVuSans-72" x="352.099609"/>
     <use xlink:href="#DejaVuSans-64" x="391.462891"/>
     <use xlink:href="#DejaVuSans-69" x="454.939453"/>
     <use xlink:href="#DejaVuSans-7a" x="482.722656"/>
     <use xlink:href="#DejaVuSans-65" x="535.212891"/>
     <use xlink:href="#DejaVuSans-64" x="596.736328"/>
     <use xlink:href="#DejaVuSans-20" x="660.212891"/>
     <use xlink:href="#DejaVuSans-56" x="692"/>
     <use xlink:href="#DejaVuSans-61" x="752.658203"/>
     <use xlink:href="#DejaVuSans-6c" x="813.9375"/>
     <use xlink:href="#DejaVuSans-75" x="841.720703"/>
     <use xlink:href="#DejaVuSans-65" x="905.099609"/>
     <use xlink:href="#DejaVuSans-73" x="966.623047"/>
    </g>
    <!-- Slope$\approx$-1.00, $r$ = -1.00 -->
    <g transform="translate(320.573636 70.441636) scale(0.12 -0.12)">
     <use xlink:href="#DejaVuSans-53" transform="translate(0 0.015625)"/>
     <use xlink:href="#DejaVuSans-6c" transform="translate(63.476562 0.015625)"/>
     <use xlink:href="#DejaVuSans-6f" transform="translate(91.259766 0.015625)"/>
     <use xlink:href="#DejaVuSans-70" transform="translate(152.441406 0.015625)"/>
     <use xlink:href="#DejaVuSans-65" transform="translate(215.917969 0.015625)"/>
     <use xlink:href="#DejaVuSans-2248" transform="translate(296.923828 0.015625)"/>
     <use xlink:href="#DejaVuSans-2d" transform="translate(400.195312 0.015625)"/>
     <use xlink:href="#DejaVuSans-31" transform="translate(436.279297 0.015625)"/>
     <use xlink:href="#DejaVuSans-2e" transform="translate(499.902344 0.015625)"/>
     <use xlink:href="#DejaVuSans-30" transform="translate(531.689453 0.015625)"/>
     <use xlink:href="#DejaVuSans-30" transform="translate(595.3125 0.015625)"/>
     <use xlink:href="#DejaVuSans-2c" transform="translate(658.935547 0.015625)"/>
     <use xlink:href="#DejaVuSans-20" transform="translate(690.722656 0.015625)"/>
     <use xlink:href="#DejaVuSans-Oblique-72" transform="translate(722.509766 0.015625)"/>
     <use xlink:href="#DejaVuSans-20" transform="translate(763.623047 0.015625)"/>
     <use xlink:href="#DejaVuSans-3d" transform="translate(795.410156 0.015625)"/>
     <use xlink:href="#DejaVuSans-20" transform="translate(879.199219 0.015625)"/>
     <use xlink:href="#DejaVuSans-2d" transform="translate(910.986328 0.015625)"/>
     <use xlink:href="#DejaVuSans-31" transform="translate(947.070312 0.015625)"/>
     <use xlink:href="#DejaVuSans-2e" transform="translate(1010.693359 0.015625)"/>
     <use xlink:href="#DejaVuSans-30" transform="translate(1042.480469 0.015625)"/>
     <use xlink:href="#DejaVuSans-30" transform="translate(1106.103516 0.015625)"/>
    </g>
   </g>
  </g>
 </g>
 <defs>
  <clipPath id="p8758a1a75a">
   <rect x="76.657636" y="39.696" width="139.172" height="278.344"/>
  </clipPath>
  <clipPath id="pdc01f59515">
   <rect x="288.347273" y="76.441636" width="204.852727" height="204.852727"/>
  </clipPath>
 </defs>
</svg>
