<?xml version="1.0" encoding="utf-8" standalone="no"?>
<!DOCTYPE svg PUBLIC "-//W3C//DTD SVG 1.1//EN"
  "http://www.w3.org/Graphics/SVG/1.1/DTD/svg11.dtd">
<svg xmlns:xlink="http://www.w3.org/1999/xlink" width="432pt" height="144pt" viewBox="0 0 432 144" xmlns="http://www.w3.org/2000/svg" version="1.1">
 <metadata>
  <rdf:RDF xmlns:dc="http://purl.org/dc/elements/1.1/" xmlns:cc="http://creativecommons.org/ns#" xmlns:rdf="http://www.w3.org/1999/02/22-rdf-syntax-ns#">
   <cc:Work>
    <dc:type rdf:resource="http://purl.org/dc/dcmitype/StillImage"/>
    <dc:date>2024-03-17T17:19:30.434123</dc:date>
    <dc:format>image/svg+xml</dc:format>
    <dc:creator>
     <cc:Agent>
      <dc:title>Matplotlib v3.7.2, https://matplotlib.org/</dc:title>
     </cc:Agent>
    </dc:creator>
   </cc:Work>
  </rdf:RDF>
 </metadata>
 <defs>
  <style type="text/css">*{stroke-linejoin: round; stroke-linecap: butt}</style>
 </defs>
 <g id="figure_1">
  <g id="patch_1">
   <path d="M 0 144 
L 432 144 
L 432 0 
L 0 0 
L 0 144 
z
" style="fill: none"/>
  </g>
  <g id="axes_1">
   <g id="patch_2">
    <path d="M 59.474 102.04 
L 421.2 102.04 
L 421.2 25.44 
L 59.474 25.44 
L 59.474 102.04 
z
" style="fill: none"/>
   </g>
   <g id="matplotlib.axis_1">
    <g id="xtick_1">
     <g id="line2d_1">
      <defs>
       <path id="m46158d7d6e" d="M 0 0 
L 0 3.5 
" style="stroke: #000000; stroke-width: 0.8"/>
      </defs>
      <g>
       <use xlink:href="#m46158d7d6e" x="75.916091" y="102.04" style="stroke: #000000; stroke-width: 0.8"/>
      </g>
     </g>
     <g id="text_1">
      <!-- −5 -->
      <g transform="translate(68.544997 116.638437) scale(0.1 -0.1)">
       <defs>
        <path id="DejaVuSans-2212" d="M 678 2272 
L 4684 2272 
L 4684 1741 
L 678 1741 
L 678 2272 
z
" transform="scale(0.015625)"/>
        <path id="DejaVuSans-35" d="M 691 4666 
L 3169 4666 
L 3169 4134 
L 1269 4134 
L 1269 2991 
Q 1406 3038 1543 3061 
Q 1681 3084 1819 3084 
Q 2600 3084 3056 2656 
Q 3513 2228 3513 1497 
Q 3513 744 3044 326 
Q 2575 -91 1722 -91 
Q 1428 -91 1123 -41 
Q 819 9 494 109 
L 494 744 
Q 775 591 1075 516 
Q 1375 441 1709 441 
Q 2250 441 2565 725 
Q 2881 1009 2881 1497 
Q 2881 1984 2565 2268 
Q 2250 2553 1709 2553 
Q 1456 2553 1204 2497 
Q 953 2441 691 2322 
L 691 4666 
z
" transform="scale(0.015625)"/>
       </defs>
       <use xlink:href="#DejaVuSans-2212"/>
       <use xlink:href="#DejaVuSans-35" x="83.789062"/>
      </g>
     </g>
    </g>
    <g id="xtick_2">
     <g id="line2d_2">
      <g>
       <use xlink:href="#m46158d7d6e" x="122.670852" y="102.04" style="stroke: #000000; stroke-width: 0.8"/>
      </g>
     </g>
     <g id="text_2">
      <!-- 0 -->
      <g transform="translate(119.489602 116.638437) scale(0.1 -0.1)">
       <defs>
        <path id="DejaVuSans-30" d="M 2034 4250 
Q 1547 4250 1301 3770 
Q 1056 3291 1056 2328 
Q 1056 1369 1301 889 
Q 1547 409 2034 409 
Q 2525 409 2770 889 
Q 3016 1369 3016 2328 
Q 3016 3291 2770 3770 
Q 2525 4250 2034 4250 
z
M 2034 4750 
Q 2819 4750 3233 4129 
Q 3647 3509 3647 2328 
Q 3647 1150 3233 529 
Q 2819 -91 2034 -91 
Q 1250 -91 836 529 
Q 422 1150 422 2328 
Q 422 3509 836 4129 
Q 1250 4750 2034 4750 
z
" transform="scale(0.015625)"/>
       </defs>
       <use xlink:href="#DejaVuSans-30"/>
      </g>
     </g>
    </g>
    <g id="xtick_3">
     <g id="line2d_3">
      <g>
       <use xlink:href="#m46158d7d6e" x="169.425613" y="102.04" style="stroke: #000000; stroke-width: 0.8"/>
      </g>
     </g>
     <g id="text_3">
      <!-- 5 -->
      <g transform="translate(166.244363 116.638437) scale(0.1 -0.1)">
       <use xlink:href="#DejaVuSans-35"/>
      </g>
     </g>
    </g>
    <g id="xtick_4">
     <g id="line2d_4">
      <g>
       <use xlink:href="#m46158d7d6e" x="216.180374" y="102.04" style="stroke: #000000; stroke-width: 0.8"/>
      </g>
     </g>
     <g id="text_4">
      <!-- 10 -->
      <g transform="translate(209.817874 116.638437) scale(0.1 -0.1)">
       <defs>
        <path id="DejaVuSans-31" d="M 794 531 
L 1825 531 
L 1825 4091 
L 703 3866 
L 703 4441 
L 1819 4666 
L 2450 4666 
L 2450 531 
L 3481 531 
L 3481 0 
L 794 0 
L 794 531 
z
" transform="scale(0.015625)"/>
       </defs>
       <use xlink:href="#DejaVuSans-31"/>
       <use xlink:href="#DejaVuSans-30" x="63.623047"/>
      </g>
     </g>
    </g>
    <g id="xtick_5">
     <g id="line2d_5">
      <g>
       <use xlink:href="#m46158d7d6e" x="262.935134" y="102.04" style="stroke: #000000; stroke-width: 0.8"/>
      </g>
     </g>
     <g id="text_5">
      <!-- 15 -->
      <g transform="translate(256.572634 116.638437) scale(0.1 -0.1)">
       <use xlink:href="#DejaVuSans-31"/>
       <use xlink:href="#DejaVuSans-35" x="63.623047"/>
      </g>
     </g>
    </g>
    <g id="xtick_6">
     <g id="line2d_6">
      <g>
       <use xlink:href="#m46158d7d6e" x="309.689895" y="102.04" style="stroke: #000000; stroke-width: 0.8"/>
      </g>
     </g>
     <g id="text_6">
      <!-- 20 -->
      <g transform="translate(303.327395 116.638437) scale(0.1 -0.1)">
       <defs>
        <path id="DejaVuSans-32" d="M 1228 531 
L 3431 531 
L 3431 0 
L 469 0 
L 469 531 
Q 828 903 1448 1529 
Q 2069 2156 2228 2338 
Q 2531 2678 2651 2914 
Q 2772 3150 2772 3378 
Q 2772 3750 2511 3984 
Q 2250 4219 1831 4219 
Q 1534 4219 1204 4116 
Q 875 4013 500 3803 
L 500 4441 
Q 881 4594 1212 4672 
Q 1544 4750 1819 4750 
Q 2544 4750 2975 4387 
Q 3406 4025 3406 3419 
Q 3406 3131 3298 2873 
Q 3191 2616 2906 2266 
Q 2828 2175 2409 1742 
Q 1991 1309 1228 531 
z
" transform="scale(0.015625)"/>
       </defs>
       <use xlink:href="#DejaVuSans-32"/>
       <use xlink:href="#DejaVuSans-30" x="63.623047"/>
      </g>
     </g>
    </g>
    <g id="xtick_7">
     <g id="line2d_7">
      <g>
       <use xlink:href="#m46158d7d6e" x="356.444656" y="102.04" style="stroke: #000000; stroke-width: 0.8"/>
      </g>
     </g>
     <g id="text_7">
      <!-- 25 -->
      <g transform="translate(350.082156 116.638437) scale(0.1 -0.1)">
       <use xlink:href="#DejaVuSans-32"/>
       <use xlink:href="#DejaVuSans-35" x="63.623047"/>
      </g>
     </g>
    </g>
    <g id="xtick_8">
     <g id="line2d_8">
      <g>
       <use xlink:href="#m46158d7d6e" x="403.199417" y="102.04" style="stroke: #000000; stroke-width: 0.8"/>
      </g>
     </g>
     <g id="text_8">
      <!-- 30 -->
      <g transform="translate(396.836917 116.638437) scale(0.1 -0.1)">
       <defs>
        <path id="DejaVuSans-33" d="M 2597 2516 
Q 3050 2419 3304 2112 
Q 3559 1806 3559 1356 
Q 3559 666 3084 287 
Q 2609 -91 1734 -91 
Q 1441 -91 1130 -33 
Q 819 25 488 141 
L 488 750 
Q 750 597 1062 519 
Q 1375 441 1716 441 
Q 2309 441 2620 675 
Q 2931 909 2931 1356 
Q 2931 1769 2642 2001 
Q 2353 2234 1838 2234 
L 1294 2234 
L 1294 2753 
L 1863 2753 
Q 2328 2753 2575 2939 
Q 2822 3125 2822 3475 
Q 2822 3834 2567 4026 
Q 2313 4219 1838 4219 
Q 1578 4219 1281 4162 
Q 984 4106 628 3988 
L 628 4550 
Q 988 4650 1302 4700 
Q 1616 4750 1894 4750 
Q 2613 4750 3031 4423 
Q 3450 4097 3450 3541 
Q 3450 3153 3228 2886 
Q 3006 2619 2597 2516 
z
" transform="scale(0.015625)"/>
       </defs>
       <use xlink:href="#DejaVuSans-33"/>
       <use xlink:href="#DejaVuSans-30" x="63.623047"/>
      </g>
     </g>
    </g>
    <g id="text_9">
     <!-- Standard Units -->
     <g transform="translate(203.21825 130.316563) scale(0.1 -0.1)">
      <defs>
       <path id="DejaVuSans-53" d="M 3425 4513 
L 3425 3897 
Q 3066 4069 2747 4153 
Q 2428 4238 2131 4238 
Q 1616 4238 1336 4038 
Q 1056 3838 1056 3469 
Q 1056 3159 1242 3001 
Q 1428 2844 1947 2747 
L 2328 2669 
Q 3034 2534 3370 2195 
Q 3706 1856 3706 1288 
Q 3706 609 3251 259 
Q 2797 -91 1919 -91 
Q 1588 -91 1214 -16 
Q 841 59 441 206 
L 441 856 
Q 825 641 1194 531 
Q 1563 422 1919 422 
Q 2459 422 2753 634 
Q 3047 847 3047 1241 
Q 3047 1584 2836 1778 
Q 2625 1972 2144 2069 
L 1759 2144 
Q 1053 2284 737 2584 
Q 422 2884 422 3419 
Q 422 4038 858 4394 
Q 1294 4750 2059 4750 
Q 2388 4750 2728 4690 
Q 3069 4631 3425 4513 
z
" transform="scale(0.015625)"/>
       <path id="DejaVuSans-74" d="M 1172 4494 
L 1172 3500 
L 2356 3500 
L 2356 3053 
L 1172 3053 
L 1172 1153 
Q 1172 725 1289 603 
Q 1406 481 1766 481 
L 2356 481 
L 2356 0 
L 1766 0 
Q 1100 0 847 248 
Q 594 497 594 1153 
L 594 3053 
L 172 3053 
L 172 3500 
L 594 3500 
L 594 4494 
L 1172 4494 
z
" transform="scale(0.015625)"/>
       <path id="DejaVuSans-61" d="M 2194 1759 
Q 1497 1759 1228 1600 
Q 959 1441 959 1056 
Q 959 750 1161 570 
Q 1363 391 1709 391 
Q 2188 391 2477 730 
Q 2766 1069 2766 1631 
L 2766 1759 
L 2194 1759 
z
M 3341 1997 
L 3341 0 
L 2766 0 
L 2766 531 
Q 2569 213 2275 61 
Q 1981 -91 1556 -91 
Q 1019 -91 701 211 
Q 384 513 384 1019 
Q 384 1609 779 1909 
Q 1175 2209 1959 2209 
L 2766 2209 
L 2766 2266 
Q 2766 2663 2505 2880 
Q 2244 3097 1772 3097 
Q 1472 3097 1187 3025 
Q 903 2953 641 2809 
L 641 3341 
Q 956 3463 1253 3523 
Q 1550 3584 1831 3584 
Q 2591 3584 2966 3190 
Q 3341 2797 3341 1997 
z
" transform="scale(0.015625)"/>
       <path id="DejaVuSans-6e" d="M 3513 2113 
L 3513 0 
L 2938 0 
L 2938 2094 
Q 2938 2591 2744 2837 
Q 2550 3084 2163 3084 
Q 1697 3084 1428 2787 
Q 1159 2491 1159 1978 
L 1159 0 
L 581 0 
L 581 3500 
L 1159 3500 
L 1159 2956 
Q 1366 3272 1645 3428 
Q 1925 3584 2291 3584 
Q 2894 3584 3203 3211 
Q 3513 2838 3513 2113 
z
" transform="scale(0.015625)"/>
       <path id="DejaVuSans-64" d="M 2906 2969 
L 2906 4863 
L 3481 4863 
L 3481 0 
L 2906 0 
L 2906 525 
Q 2725 213 2448 61 
Q 2172 -91 1784 -91 
Q 1150 -91 751 415 
Q 353 922 353 1747 
Q 353 2572 751 3078 
Q 1150 3584 1784 3584 
Q 2172 3584 2448 3432 
Q 2725 3281 2906 2969 
z
M 947 1747 
Q 947 1113 1208 752 
Q 1469 391 1925 391 
Q 2381 391 2643 752 
Q 2906 1113 2906 1747 
Q 2906 2381 2643 2742 
Q 2381 3103 1925 3103 
Q 1469 3103 1208 2742 
Q 947 2381 947 1747 
z
" transform="scale(0.015625)"/>
       <path id="DejaVuSans-72" d="M 2631 2963 
Q 2534 3019 2420 3045 
Q 2306 3072 2169 3072 
Q 1681 3072 1420 2755 
Q 1159 2438 1159 1844 
L 1159 0 
L 581 0 
L 581 3500 
L 1159 3500 
L 1159 2956 
Q 1341 3275 1631 3429 
Q 1922 3584 2338 3584 
Q 2397 3584 2469 3576 
Q 2541 3569 2628 3553 
L 2631 2963 
z
" transform="scale(0.015625)"/>
       <path id="DejaVuSans-20" transform="scale(0.015625)"/>
       <path id="DejaVuSans-55" d="M 556 4666 
L 1191 4666 
L 1191 1831 
Q 1191 1081 1462 751 
Q 1734 422 2344 422 
Q 2950 422 3222 751 
Q 3494 1081 3494 1831 
L 3494 4666 
L 4128 4666 
L 4128 1753 
Q 4128 841 3676 375 
Q 3225 -91 2344 -91 
Q 1459 -91 1007 375 
Q 556 841 556 1753 
L 556 4666 
z
" transform="scale(0.015625)"/>
       <path id="DejaVuSans-69" d="M 603 3500 
L 1178 3500 
L 1178 0 
L 603 0 
L 603 3500 
z
M 603 4863 
L 1178 4863 
L 1178 4134 
L 603 4134 
L 603 4863 
z
" transform="scale(0.015625)"/>
       <path id="DejaVuSans-73" d="M 2834 3397 
L 2834 2853 
Q 2591 2978 2328 3040 
Q 2066 3103 1784 3103 
Q 1356 3103 1142 2972 
Q 928 2841 928 2578 
Q 928 2378 1081 2264 
Q 1234 2150 1697 2047 
L 1894 2003 
Q 2506 1872 2764 1633 
Q 3022 1394 3022 966 
Q 3022 478 2636 193 
Q 2250 -91 1575 -91 
Q 1294 -91 989 -36 
Q 684 19 347 128 
L 347 722 
Q 666 556 975 473 
Q 1284 391 1588 391 
Q 1994 391 2212 530 
Q 2431 669 2431 922 
Q 2431 1156 2273 1281 
Q 2116 1406 1581 1522 
L 1381 1569 
Q 847 1681 609 1914 
Q 372 2147 372 2553 
Q 372 3047 722 3315 
Q 1072 3584 1716 3584 
Q 2034 3584 2315 3537 
Q 2597 3491 2834 3397 
z
" transform="scale(0.015625)"/>
      </defs>
      <use xlink:href="#DejaVuSans-53"/>
      <use xlink:href="#DejaVuSans-74" x="63.476562"/>
      <use xlink:href="#DejaVuSans-61" x="102.685547"/>
      <use xlink:href="#DejaVuSans-6e" x="163.964844"/>
      <use xlink:href="#DejaVuSans-64" x="227.34375"/>
      <use xlink:href="#DejaVuSans-61" x="290.820312"/>
      <use xlink:href="#DejaVuSans-72" x="352.099609"/>
      <use xlink:href="#DejaVuSans-64" x="391.462891"/>
      <use xlink:href="#DejaVuSans-20" x="454.939453"/>
      <use xlink:href="#DejaVuSans-55" x="486.726562"/>
      <use xlink:href="#DejaVuSans-6e" x="559.919922"/>
      <use xlink:href="#DejaVuSans-69" x="623.298828"/>
      <use xlink:href="#DejaVuSans-74" x="651.082031"/>
      <use xlink:href="#DejaVuSans-73" x="690.291016"/>
     </g>
    </g>
   </g>
   <g id="matplotlib.axis_2">
    <g id="ytick_1">
     <g id="line2d_9">
      <defs>
       <path id="m387b09d0c5" d="M 0 0 
L -3.5 0 
" style="stroke: #000000; stroke-width: 0.8"/>
      </defs>
      <g>
       <use xlink:href="#m387b09d0c5" x="59.474" y="102.04" style="stroke: #000000; stroke-width: 0.8"/>
      </g>
     </g>
     <g id="text_10">
      <!-- 0.0 -->
      <g transform="translate(36.570875 105.839219) scale(0.1 -0.1)">
       <defs>
        <path id="DejaVuSans-2e" d="M 684 794 
L 1344 794 
L 1344 0 
L 684 0 
L 684 794 
z
" transform="scale(0.015625)"/>
       </defs>
       <use xlink:href="#DejaVuSans-30"/>
       <use xlink:href="#DejaVuSans-2e" x="63.623047"/>
       <use xlink:href="#DejaVuSans-30" x="95.410156"/>
      </g>
     </g>
    </g>
    <g id="ytick_2">
     <g id="line2d_10">
      <g>
       <use xlink:href="#m387b09d0c5" x="59.474" y="65.4671" style="stroke: #000000; stroke-width: 0.8"/>
      </g>
     </g>
     <g id="text_11">
      <!-- 0.2 -->
      <g transform="translate(36.570875 69.266319) scale(0.1 -0.1)">
       <use xlink:href="#DejaVuSans-30"/>
       <use xlink:href="#DejaVuSans-2e" x="63.623047"/>
       <use xlink:href="#DejaVuSans-32" x="95.410156"/>
      </g>
     </g>
    </g>
    <g id="ytick_3">
     <g id="line2d_11">
      <g>
       <use xlink:href="#m387b09d0c5" x="59.474" y="28.8942" style="stroke: #000000; stroke-width: 0.8"/>
      </g>
     </g>
     <g id="text_12">
      <!-- 0.4 -->
      <g transform="translate(36.570875 32.693418) scale(0.1 -0.1)">
       <defs>
        <path id="DejaVuSans-34" d="M 2419 4116 
L 825 1625 
L 2419 1625 
L 2419 4116 
z
M 2253 4666 
L 3047 4666 
L 3047 1625 
L 3713 1625 
L 3713 1100 
L 3047 1100 
L 3047 0 
L 2419 0 
L 2419 1100 
L 313 1100 
L 313 1709 
L 2253 4666 
z
" transform="scale(0.015625)"/>
       </defs>
       <use xlink:href="#DejaVuSans-30"/>
       <use xlink:href="#DejaVuSans-2e" x="63.623047"/>
       <use xlink:href="#DejaVuSans-34" x="95.410156"/>
      </g>
     </g>
    </g>
    <g id="text_13">
     <!-- % Per -->
     <g transform="translate(19.293375 78.045469) rotate(-90) scale(0.1 -0.1)">
      <defs>
       <path id="DejaVuSans-25" d="M 4653 2053 
Q 4381 2053 4226 1822 
Q 4072 1591 4072 1178 
Q 4072 772 4226 539 
Q 4381 306 4653 306 
Q 4919 306 5073 539 
Q 5228 772 5228 1178 
Q 5228 1588 5073 1820 
Q 4919 2053 4653 2053 
z
M 4653 2450 
Q 5147 2450 5437 2106 
Q 5728 1763 5728 1178 
Q 5728 594 5436 251 
Q 5144 -91 4653 -91 
Q 4153 -91 3862 251 
Q 3572 594 3572 1178 
Q 3572 1766 3864 2108 
Q 4156 2450 4653 2450 
z
M 1428 4353 
Q 1159 4353 1004 4120 
Q 850 3888 850 3481 
Q 850 3069 1003 2837 
Q 1156 2606 1428 2606 
Q 1700 2606 1854 2837 
Q 2009 3069 2009 3481 
Q 2009 3884 1853 4118 
Q 1697 4353 1428 4353 
z
M 4250 4750 
L 4750 4750 
L 1831 -91 
L 1331 -91 
L 4250 4750 
z
M 1428 4750 
Q 1922 4750 2215 4408 
Q 2509 4066 2509 3481 
Q 2509 2891 2217 2550 
Q 1925 2209 1428 2209 
Q 931 2209 642 2551 
Q 353 2894 353 3481 
Q 353 4063 643 4406 
Q 934 4750 1428 4750 
z
" transform="scale(0.015625)"/>
       <path id="DejaVuSans-50" d="M 1259 4147 
L 1259 2394 
L 2053 2394 
Q 2494 2394 2734 2622 
Q 2975 2850 2975 3272 
Q 2975 3691 2734 3919 
Q 2494 4147 2053 4147 
L 1259 4147 
z
M 628 4666 
L 2053 4666 
Q 2838 4666 3239 4311 
Q 3641 3956 3641 3272 
Q 3641 2581 3239 2228 
Q 2838 1875 2053 1875 
L 1259 1875 
L 1259 0 
L 628 0 
L 628 4666 
z
" transform="scale(0.015625)"/>
       <path id="DejaVuSans-65" d="M 3597 1894 
L 3597 1613 
L 953 1613 
Q 991 1019 1311 708 
Q 1631 397 2203 397 
Q 2534 397 2845 478 
Q 3156 559 3463 722 
L 3463 178 
Q 3153 47 2828 -22 
Q 2503 -91 2169 -91 
Q 1331 -91 842 396 
Q 353 884 353 1716 
Q 353 2575 817 3079 
Q 1281 3584 2069 3584 
Q 2775 3584 3186 3129 
Q 3597 2675 3597 1894 
z
M 3022 2063 
Q 3016 2534 2758 2815 
Q 2500 3097 2075 3097 
Q 1594 3097 1305 2825 
Q 1016 2553 972 2059 
L 3022 2063 
z
" transform="scale(0.015625)"/>
      </defs>
      <use xlink:href="#DejaVuSans-25"/>
      <use xlink:href="#DejaVuSans-20" x="95.019531"/>
      <use xlink:href="#DejaVuSans-50" x="126.806641"/>
      <use xlink:href="#DejaVuSans-65" x="183.484375"/>
      <use xlink:href="#DejaVuSans-72" x="245.007812"/>
     </g>
     <!-- Standard Unit -->
     <g transform="translate(30.491188 98.254062) rotate(-90) scale(0.1 -0.1)">
      <use xlink:href="#DejaVuSans-53"/>
      <use xlink:href="#DejaVuSans-74" x="63.476562"/>
      <use xlink:href="#DejaVuSans-61" x="102.685547"/>
      <use xlink:href="#DejaVuSans-6e" x="163.964844"/>
      <use xlink:href="#DejaVuSans-64" x="227.34375"/>
      <use xlink:href="#DejaVuSans-61" x="290.820312"/>
      <use xlink:href="#DejaVuSans-72" x="352.099609"/>
      <use xlink:href="#DejaVuSans-64" x="391.462891"/>
      <use xlink:href="#DejaVuSans-20" x="454.939453"/>
      <use xlink:href="#DejaVuSans-55" x="486.726562"/>
      <use xlink:href="#DejaVuSans-6e" x="559.919922"/>
      <use xlink:href="#DejaVuSans-69" x="623.298828"/>
      <use xlink:href="#DejaVuSans-74" x="651.082031"/>
     </g>
    </g>
   </g>
   <g id="patch_3">
    <path d="M 89.942519 102.04 
L 93.059503 102.04 
L 93.059503 102.025429 
L 89.942519 102.025429 
z
" clip-path="url(#p8ca82d6256)" style="fill: #ffffff; stroke: #000000; stroke-linejoin: miter"/>
   </g>
   <g id="patch_4">
    <path d="M 93.059503 102.04 
L 96.176487 102.04 
L 96.176487 101.878095 
L 93.059503 101.878095 
z
" clip-path="url(#p8ca82d6256)" style="fill: #ffffff; stroke: #000000; stroke-linejoin: miter"/>
   </g>
   <g id="patch_5">
    <path d="M 96.176487 102.04 
L 99.293471 102.04 
L 99.293471 101.149525 
L 96.176487 101.149525 
z
" clip-path="url(#p8ca82d6256)" style="fill: #ffffff; stroke: #000000; stroke-linejoin: miter"/>
   </g>
   <g id="patch_6">
    <path d="M 99.293471 102.04 
L 102.410455 102.04 
L 102.410455 98.807905 
L 99.293471 98.807905 
z
" clip-path="url(#p8ca82d6256)" style="fill: #ffffff; stroke: #000000; stroke-linejoin: miter"/>
   </g>
   <g id="patch_7">
    <path d="M 102.410455 102.04 
L 105.527439 102.04 
L 105.527439 93.3313 
L 102.410455 93.3313 
z
" clip-path="url(#p8ca82d6256)" style="fill: #ffffff; stroke: #000000; stroke-linejoin: miter"/>
   </g>
   <g id="patch_8">
    <path d="M 105.527439 102.04 
L 108.644424 102.04 
L 108.644424 83.46144 
L 105.527439 83.46144 
z
" clip-path="url(#p8ca82d6256)" style="fill: #ffffff; stroke: #000000; stroke-linejoin: miter"/>
   </g>
   <g id="patch_9">
    <path d="M 108.644424 102.04 
L 111.761408 102.04 
L 111.761408 69.355496 
L 108.644424 69.355496 
z
" clip-path="url(#p8ca82d6256)" style="fill: #ffffff; stroke: #000000; stroke-linejoin: miter"/>
   </g>
   <g id="patch_10">
    <path d="M 111.761408 102.04 
L 114.878392 102.04 
L 114.878392 53.272645 
L 111.761408 53.272645 
z
" clip-path="url(#p8ca82d6256)" style="fill: #ffffff; stroke: #000000; stroke-linejoin: miter"/>
   </g>
   <g id="patch_11">
    <path d="M 114.878392 102.04 
L 117.995376 102.04 
L 117.995376 39.048834 
L 114.878392 39.048834 
z
" clip-path="url(#p8ca82d6256)" style="fill: #ffffff; stroke: #000000; stroke-linejoin: miter"/>
   </g>
   <g id="patch_12">
    <path d="M 117.995376 102.04 
L 121.11236 102.04 
L 121.11236 30.494478 
L 117.995376 30.494478 
z
" clip-path="url(#p8ca82d6256)" style="fill: #ffffff; stroke: #000000; stroke-linejoin: miter"/>
   </g>
   <g id="patch_13">
    <path d="M 121.11236 102.04 
L 124.229344 102.04 
L 124.229344 29.699528 
L 121.11236 29.699528 
z
" clip-path="url(#p8ca82d6256)" style="fill: #ffffff; stroke: #000000; stroke-linejoin: miter"/>
   </g>
   <g id="patch_14">
    <path d="M 124.229344 102.04 
L 127.346328 102.04 
L 127.346328 36.275934 
L 124.229344 36.275934 
z
" clip-path="url(#p8ca82d6256)" style="fill: #ffffff; stroke: #000000; stroke-linejoin: miter"/>
   </g>
   <g id="patch_15">
    <path d="M 127.346328 102.04 
L 130.463312 102.04 
L 130.463312 47.845538 
L 127.346328 47.845538 
z
" clip-path="url(#p8ca82d6256)" style="fill: #ffffff; stroke: #000000; stroke-linejoin: miter"/>
   </g>
   <g id="patch_16">
    <path d="M 130.463312 102.04 
L 133.580296 102.04 
L 133.580296 61.278354 
L 130.463312 61.278354 
z
" clip-path="url(#p8ca82d6256)" style="fill: #ffffff; stroke: #000000; stroke-linejoin: miter"/>
   </g>
   <g id="patch_17">
    <path d="M 133.580296 102.04 
L 136.69728 102.04 
L 136.69728 73.895054 
L 133.580296 73.895054 
z
" clip-path="url(#p8ca82d6256)" style="fill: #ffffff; stroke: #000000; stroke-linejoin: miter"/>
   </g>
   <g id="patch_18">
    <path d="M 136.69728 102.04 
L 139.814264 102.04 
L 139.814264 84.110627 
L 136.69728 84.110627 
z
" clip-path="url(#p8ca82d6256)" style="fill: #ffffff; stroke: #000000; stroke-linejoin: miter"/>
   </g>
   <g id="patch_19">
    <path d="M 139.814264 102.04 
L 142.931248 102.04 
L 142.931248 91.456689 
L 139.814264 91.456689 
z
" clip-path="url(#p8ca82d6256)" style="fill: #ffffff; stroke: #000000; stroke-linejoin: miter"/>
   </g>
   <g id="patch_20">
    <path d="M 142.931248 102.04 
L 146.048232 102.04 
L 146.048232 96.229555 
L 142.931248 96.229555 
z
" clip-path="url(#p8ca82d6256)" style="fill: #ffffff; stroke: #000000; stroke-linejoin: miter"/>
   </g>
   <g id="patch_21">
    <path d="M 146.048232 102.04 
L 149.165216 102.04 
L 149.165216 99.063044 
L 146.048232 99.063044 
z
" clip-path="url(#p8ca82d6256)" style="fill: #ffffff; stroke: #000000; stroke-linejoin: miter"/>
   </g>
   <g id="patch_22">
    <path d="M 149.165216 102.04 
L 152.2822 102.04 
L 152.2822 100.612454 
L 149.165216 100.612454 
z
" clip-path="url(#p8ca82d6256)" style="fill: #ffffff; stroke: #000000; stroke-linejoin: miter"/>
   </g>
   <g id="patch_23">
    <path d="M 152.2822 102.04 
L 155.399184 102.04 
L 155.399184 101.397604 
L 152.2822 101.397604 
z
" clip-path="url(#p8ca82d6256)" style="fill: #ffffff; stroke: #000000; stroke-linejoin: miter"/>
   </g>
   <g id="patch_24">
    <path d="M 155.399184 102.04 
L 158.516168 102.04 
L 158.516168 101.768086 
L 155.399184 101.768086 
z
" clip-path="url(#p8ca82d6256)" style="fill: #ffffff; stroke: #000000; stroke-linejoin: miter"/>
   </g>
   <g id="patch_25">
    <path d="M 158.516168 102.04 
L 161.633153 102.04 
L 161.633153 101.931509 
L 158.516168 101.931509 
z
" clip-path="url(#p8ca82d6256)" style="fill: #ffffff; stroke: #000000; stroke-linejoin: miter"/>
   </g>
   <g id="patch_26">
    <path d="M 161.633153 102.04 
L 164.750137 102.04 
L 164.750137 101.999119 
L 161.633153 101.999119 
z
" clip-path="url(#p8ca82d6256)" style="fill: #ffffff; stroke: #000000; stroke-linejoin: miter"/>
   </g>
   <g id="patch_27">
    <path d="M 164.750137 102.04 
L 167.867121 102.04 
L 167.867121 102.025427 
L 164.750137 102.025427 
z
" clip-path="url(#p8ca82d6256)" style="fill: #ffffff; stroke: #000000; stroke-linejoin: miter"/>
   </g>
   <g id="patch_28">
    <path d="M 167.867121 102.04 
L 170.984105 102.04 
L 170.984105 102.035078 
L 167.867121 102.035078 
z
" clip-path="url(#p8ca82d6256)" style="fill: #ffffff; stroke: #000000; stroke-linejoin: miter"/>
   </g>
   <g id="patch_29">
    <path d="M 170.984105 102.04 
L 174.101089 102.04 
L 174.101089 102.038422 
L 170.984105 102.038422 
z
" clip-path="url(#p8ca82d6256)" style="fill: #ffffff; stroke: #000000; stroke-linejoin: miter"/>
   </g>
   <g id="patch_30">
    <path d="M 174.101089 102.04 
L 177.218073 102.04 
L 177.218073 102.03952 
L 174.101089 102.03952 
z
" clip-path="url(#p8ca82d6256)" style="fill: #ffffff; stroke: #000000; stroke-linejoin: miter"/>
   </g>
   <g id="patch_31">
    <path d="M 177.218073 102.04 
L 180.335057 102.04 
L 180.335057 102.039861 
L 177.218073 102.039861 
z
" clip-path="url(#p8ca82d6256)" style="fill: #ffffff; stroke: #000000; stroke-linejoin: miter"/>
   </g>
   <g id="patch_32">
    <path d="M 180.335057 102.04 
L 183.452041 102.04 
L 183.452041 102.039962 
L 180.335057 102.039962 
z
" clip-path="url(#p8ca82d6256)" style="fill: #ffffff; stroke: #000000; stroke-linejoin: miter"/>
   </g>
   <g id="patch_33">
    <path d="M 183.452041 102.04 
L 186.569025 102.04 
L 186.569025 102.03999 
L 183.452041 102.03999 
z
" clip-path="url(#p8ca82d6256)" style="fill: #ffffff; stroke: #000000; stroke-linejoin: miter"/>
   </g>
   <g id="patch_34">
    <path d="M 186.569025 102.04 
L 189.686009 102.04 
L 189.686009 102.039997 
L 186.569025 102.039997 
z
" clip-path="url(#p8ca82d6256)" style="fill: #ffffff; stroke: #000000; stroke-linejoin: miter"/>
   </g>
   <g id="patch_35">
    <path d="M 189.686009 102.04 
L 192.802993 102.04 
L 192.802993 102.039999 
L 189.686009 102.039999 
z
" clip-path="url(#p8ca82d6256)" style="fill: #ffffff; stroke: #000000; stroke-linejoin: miter"/>
   </g>
   <g id="patch_36">
    <path d="M 192.802993 102.04 
L 195.919977 102.04 
L 195.919977 102.04 
L 192.802993 102.04 
z
" clip-path="url(#p8ca82d6256)" style="fill: #ffffff; stroke: #000000; stroke-linejoin: miter"/>
   </g>
   <g id="patch_37">
    <path d="M 195.919977 102.04 
L 199.036961 102.04 
L 199.036961 102.04 
L 195.919977 102.04 
z
" clip-path="url(#p8ca82d6256)" style="fill: #ffffff; stroke: #000000; stroke-linejoin: miter"/>
   </g>
   <g id="patch_38">
    <path d="M 199.036961 102.04 
L 202.153945 102.04 
L 202.153945 102.04 
L 199.036961 102.04 
z
" clip-path="url(#p8ca82d6256)" style="fill: #ffffff; stroke: #000000; stroke-linejoin: miter"/>
   </g>
   <g id="patch_39">
    <path d="M 202.153945 102.04 
L 205.270929 102.04 
L 205.270929 102.04 
L 202.153945 102.04 
z
" clip-path="url(#p8ca82d6256)" style="fill: #ffffff; stroke: #000000; stroke-linejoin: miter"/>
   </g>
   <g id="patch_40">
    <path d="M 205.270929 102.04 
L 208.387913 102.04 
L 208.387913 102.04 
L 205.270929 102.04 
z
" clip-path="url(#p8ca82d6256)" style="fill: #ffffff; stroke: #000000; stroke-linejoin: miter"/>
   </g>
   <g id="patch_41">
    <path d="M 208.387913 102.04 
L 211.504897 102.04 
L 211.504897 102.04 
L 208.387913 102.04 
z
" clip-path="url(#p8ca82d6256)" style="fill: #ffffff; stroke: #000000; stroke-linejoin: miter"/>
   </g>
   <g id="patch_42">
    <path d="M 211.504897 102.04 
L 214.621882 102.04 
L 214.621882 102.04 
L 211.504897 102.04 
z
" clip-path="url(#p8ca82d6256)" style="fill: #ffffff; stroke: #000000; stroke-linejoin: miter"/>
   </g>
   <g id="patch_43">
    <path d="M 214.621882 102.04 
L 217.738866 102.04 
L 217.738866 102.04 
L 214.621882 102.04 
z
" clip-path="url(#p8ca82d6256)" style="fill: #ffffff; stroke: #000000; stroke-linejoin: miter"/>
   </g>
   <g id="patch_44">
    <path d="M 217.738866 102.04 
L 220.85585 102.04 
L 220.85585 102.04 
L 217.738866 102.04 
z
" clip-path="url(#p8ca82d6256)" style="fill: #ffffff; stroke: #000000; stroke-linejoin: miter"/>
   </g>
   <g id="patch_45">
    <path d="M 220.85585 102.04 
L 223.972834 102.04 
L 223.972834 102.04 
L 220.85585 102.04 
z
" clip-path="url(#p8ca82d6256)" style="fill: #ffffff; stroke: #000000; stroke-linejoin: miter"/>
   </g>
   <g id="patch_46">
    <path d="M 223.972834 102.04 
L 227.089818 102.04 
L 227.089818 102.04 
L 223.972834 102.04 
z
" clip-path="url(#p8ca82d6256)" style="fill: #ffffff; stroke: #000000; stroke-linejoin: miter"/>
   </g>
   <g id="patch_47">
    <path d="M 227.089818 102.04 
L 230.206802 102.04 
L 230.206802 102.04 
L 227.089818 102.04 
z
" clip-path="url(#p8ca82d6256)" style="fill: #ffffff; stroke: #000000; stroke-linejoin: miter"/>
   </g>
   <g id="patch_48">
    <path d="M 230.206802 102.04 
L 233.323786 102.04 
L 233.323786 102.04 
L 230.206802 102.04 
z
" clip-path="url(#p8ca82d6256)" style="fill: #ffffff; stroke: #000000; stroke-linejoin: miter"/>
   </g>
   <g id="patch_49">
    <path d="M 233.323786 102.04 
L 236.44077 102.04 
L 236.44077 102.04 
L 233.323786 102.04 
z
" clip-path="url(#p8ca82d6256)" style="fill: #ffffff; stroke: #000000; stroke-linejoin: miter"/>
   </g>
   <g id="patch_50">
    <path d="M 236.44077 102.04 
L 239.557754 102.04 
L 239.557754 102.04 
L 236.44077 102.04 
z
" clip-path="url(#p8ca82d6256)" style="fill: #ffffff; stroke: #000000; stroke-linejoin: miter"/>
   </g>
   <g id="patch_51">
    <path d="M 239.557754 102.04 
L 242.674738 102.04 
L 242.674738 102.04 
L 239.557754 102.04 
z
" clip-path="url(#p8ca82d6256)" style="fill: #ffffff; stroke: #000000; stroke-linejoin: miter"/>
   </g>
   <g id="patch_52">
    <path d="M 242.674738 102.04 
L 245.791722 102.04 
L 245.791722 102.04 
L 242.674738 102.04 
z
" clip-path="url(#p8ca82d6256)" style="fill: #ffffff; stroke: #000000; stroke-linejoin: miter"/>
   </g>
   <g id="patch_53">
    <path d="M 245.791722 102.04 
L 248.908706 102.04 
L 248.908706 102.04 
L 245.791722 102.04 
z
" clip-path="url(#p8ca82d6256)" style="fill: #ffffff; stroke: #000000; stroke-linejoin: miter"/>
   </g>
   <g id="patch_54">
    <path d="M 248.908706 102.04 
L 252.02569 102.04 
L 252.02569 102.04 
L 248.908706 102.04 
z
" clip-path="url(#p8ca82d6256)" style="fill: #ffffff; stroke: #000000; stroke-linejoin: miter"/>
   </g>
   <g id="patch_55">
    <path d="M 252.02569 102.04 
L 255.142674 102.04 
L 255.142674 102.04 
L 252.02569 102.04 
z
" clip-path="url(#p8ca82d6256)" style="fill: #ffffff; stroke: #000000; stroke-linejoin: miter"/>
   </g>
   <g id="patch_56">
    <path d="M 255.142674 102.04 
L 258.259658 102.04 
L 258.259658 102.04 
L 255.142674 102.04 
z
" clip-path="url(#p8ca82d6256)" style="fill: #ffffff; stroke: #000000; stroke-linejoin: miter"/>
   </g>
   <g id="patch_57">
    <path d="M 258.259658 102.04 
L 261.376642 102.04 
L 261.376642 102.04 
L 258.259658 102.04 
z
" clip-path="url(#p8ca82d6256)" style="fill: #ffffff; stroke: #000000; stroke-linejoin: miter"/>
   </g>
   <g id="patch_58">
    <path d="M 261.376642 102.04 
L 264.493626 102.04 
L 264.493626 102.04 
L 261.376642 102.04 
z
" clip-path="url(#p8ca82d6256)" style="fill: #ffffff; stroke: #000000; stroke-linejoin: miter"/>
   </g>
   <g id="patch_59">
    <path d="M 264.493626 102.04 
L 267.610611 102.04 
L 267.610611 102.04 
L 264.493626 102.04 
z
" clip-path="url(#p8ca82d6256)" style="fill: #ffffff; stroke: #000000; stroke-linejoin: miter"/>
   </g>
   <g id="patch_60">
    <path d="M 267.610611 102.04 
L 270.727595 102.04 
L 270.727595 102.04 
L 267.610611 102.04 
z
" clip-path="url(#p8ca82d6256)" style="fill: #ffffff; stroke: #000000; stroke-linejoin: miter"/>
   </g>
   <g id="patch_61">
    <path d="M 270.727595 102.04 
L 273.844579 102.04 
L 273.844579 102.04 
L 270.727595 102.04 
z
" clip-path="url(#p8ca82d6256)" style="fill: #ffffff; stroke: #000000; stroke-linejoin: miter"/>
   </g>
   <g id="patch_62">
    <path d="M 273.844579 102.04 
L 276.961563 102.04 
L 276.961563 102.04 
L 273.844579 102.04 
z
" clip-path="url(#p8ca82d6256)" style="fill: #ffffff; stroke: #000000; stroke-linejoin: miter"/>
   </g>
   <g id="patch_63">
    <path d="M 276.961563 102.04 
L 280.078547 102.04 
L 280.078547 102.04 
L 276.961563 102.04 
z
" clip-path="url(#p8ca82d6256)" style="fill: #ffffff; stroke: #000000; stroke-linejoin: miter"/>
   </g>
   <g id="patch_64">
    <path d="M 280.078547 102.04 
L 283.195531 102.04 
L 283.195531 102.04 
L 280.078547 102.04 
z
" clip-path="url(#p8ca82d6256)" style="fill: #ffffff; stroke: #000000; stroke-linejoin: miter"/>
   </g>
   <g id="patch_65">
    <path d="M 283.195531 102.04 
L 286.312515 102.04 
L 286.312515 102.04 
L 283.195531 102.04 
z
" clip-path="url(#p8ca82d6256)" style="fill: #ffffff; stroke: #000000; stroke-linejoin: miter"/>
   </g>
   <g id="patch_66">
    <path d="M 286.312515 102.04 
L 289.429499 102.04 
L 289.429499 102.04 
L 286.312515 102.04 
z
" clip-path="url(#p8ca82d6256)" style="fill: #ffffff; stroke: #000000; stroke-linejoin: miter"/>
   </g>
   <g id="patch_67">
    <path d="M 289.429499 102.04 
L 292.546483 102.04 
L 292.546483 102.04 
L 289.429499 102.04 
z
" clip-path="url(#p8ca82d6256)" style="fill: #ffffff; stroke: #000000; stroke-linejoin: miter"/>
   </g>
   <g id="patch_68">
    <path d="M 292.546483 102.04 
L 295.663467 102.04 
L 295.663467 102.04 
L 292.546483 102.04 
z
" clip-path="url(#p8ca82d6256)" style="fill: #ffffff; stroke: #000000; stroke-linejoin: miter"/>
   </g>
   <g id="patch_69">
    <path d="M 295.663467 102.04 
L 298.780451 102.04 
L 298.780451 102.04 
L 295.663467 102.04 
z
" clip-path="url(#p8ca82d6256)" style="fill: #ffffff; stroke: #000000; stroke-linejoin: miter"/>
   </g>
   <g id="patch_70">
    <path d="M 298.780451 102.04 
L 301.897435 102.04 
L 301.897435 102.04 
L 298.780451 102.04 
z
" clip-path="url(#p8ca82d6256)" style="fill: #ffffff; stroke: #000000; stroke-linejoin: miter"/>
   </g>
   <g id="patch_71">
    <path d="M 301.897435 102.04 
L 305.014419 102.04 
L 305.014419 102.04 
L 301.897435 102.04 
z
" clip-path="url(#p8ca82d6256)" style="fill: #ffffff; stroke: #000000; stroke-linejoin: miter"/>
   </g>
   <g id="patch_72">
    <path d="M 305.014419 102.04 
L 308.131403 102.04 
L 308.131403 102.04 
L 305.014419 102.04 
z
" clip-path="url(#p8ca82d6256)" style="fill: #ffffff; stroke: #000000; stroke-linejoin: miter"/>
   </g>
   <g id="patch_73">
    <path d="M 308.131403 102.04 
L 311.248387 102.04 
L 311.248387 102.04 
L 308.131403 102.04 
z
" clip-path="url(#p8ca82d6256)" style="fill: #ffffff; stroke: #000000; stroke-linejoin: miter"/>
   </g>
   <g id="patch_74">
    <path d="M 311.248387 102.04 
L 314.365371 102.04 
L 314.365371 102.04 
L 311.248387 102.04 
z
" clip-path="url(#p8ca82d6256)" style="fill: #ffffff; stroke: #000000; stroke-linejoin: miter"/>
   </g>
   <g id="patch_75">
    <path d="M 314.365371 102.04 
L 317.482355 102.04 
L 317.482355 102.04 
L 314.365371 102.04 
z
" clip-path="url(#p8ca82d6256)" style="fill: #ffffff; stroke: #000000; stroke-linejoin: miter"/>
   </g>
   <g id="patch_76">
    <path d="M 317.482355 102.04 
L 320.59934 102.04 
L 320.59934 102.04 
L 317.482355 102.04 
z
" clip-path="url(#p8ca82d6256)" style="fill: #ffffff; stroke: #000000; stroke-linejoin: miter"/>
   </g>
   <g id="patch_77">
    <path d="M 320.59934 102.04 
L 323.716324 102.04 
L 323.716324 102.04 
L 320.59934 102.04 
z
" clip-path="url(#p8ca82d6256)" style="fill: #ffffff; stroke: #000000; stroke-linejoin: miter"/>
   </g>
   <g id="patch_78">
    <path d="M 323.716324 102.04 
L 326.833308 102.04 
L 326.833308 102.04 
L 323.716324 102.04 
z
" clip-path="url(#p8ca82d6256)" style="fill: #ffffff; stroke: #000000; stroke-linejoin: miter"/>
   </g>
   <g id="patch_79">
    <path d="M 326.833308 102.04 
L 329.950292 102.04 
L 329.950292 102.04 
L 326.833308 102.04 
z
" clip-path="url(#p8ca82d6256)" style="fill: #ffffff; stroke: #000000; stroke-linejoin: miter"/>
   </g>
   <g id="patch_80">
    <path d="M 329.950292 102.04 
L 333.067276 102.04 
L 333.067276 102.04 
L 329.950292 102.04 
z
" clip-path="url(#p8ca82d6256)" style="fill: #ffffff; stroke: #000000; stroke-linejoin: miter"/>
   </g>
   <g id="patch_81">
    <path d="M 333.067276 102.04 
L 336.18426 102.04 
L 336.18426 102.04 
L 333.067276 102.04 
z
" clip-path="url(#p8ca82d6256)" style="fill: #ffffff; stroke: #000000; stroke-linejoin: miter"/>
   </g>
   <g id="patch_82">
    <path d="M 336.18426 102.04 
L 339.301244 102.04 
L 339.301244 102.04 
L 336.18426 102.04 
z
" clip-path="url(#p8ca82d6256)" style="fill: #ffffff; stroke: #000000; stroke-linejoin: miter"/>
   </g>
   <g id="patch_83">
    <path d="M 339.301244 102.04 
L 342.418228 102.04 
L 342.418228 102.04 
L 339.301244 102.04 
z
" clip-path="url(#p8ca82d6256)" style="fill: #ffffff; stroke: #000000; stroke-linejoin: miter"/>
   </g>
   <g id="patch_84">
    <path d="M 342.418228 102.04 
L 345.535212 102.04 
L 345.535212 102.04 
L 342.418228 102.04 
z
" clip-path="url(#p8ca82d6256)" style="fill: #ffffff; stroke: #000000; stroke-linejoin: miter"/>
   </g>
   <g id="patch_85">
    <path d="M 345.535212 102.04 
L 348.652196 102.04 
L 348.652196 102.04 
L 345.535212 102.04 
z
" clip-path="url(#p8ca82d6256)" style="fill: #ffffff; stroke: #000000; stroke-linejoin: miter"/>
   </g>
   <g id="patch_86">
    <path d="M 348.652196 102.04 
L 351.76918 102.04 
L 351.76918 102.04 
L 348.652196 102.04 
z
" clip-path="url(#p8ca82d6256)" style="fill: #ffffff; stroke: #000000; stroke-linejoin: miter"/>
   </g>
   <g id="patch_87">
    <path d="M 351.76918 102.04 
L 354.886164 102.04 
L 354.886164 102.04 
L 351.76918 102.04 
z
" clip-path="url(#p8ca82d6256)" style="fill: #ffffff; stroke: #000000; stroke-linejoin: miter"/>
   </g>
   <g id="patch_88">
    <path d="M 354.886164 102.04 
L 358.003148 102.04 
L 358.003148 102.04 
L 354.886164 102.04 
z
" clip-path="url(#p8ca82d6256)" style="fill: #ffffff; stroke: #000000; stroke-linejoin: miter"/>
   </g>
   <g id="patch_89">
    <path d="M 358.003148 102.04 
L 361.120132 102.04 
L 361.120132 102.04 
L 358.003148 102.04 
z
" clip-path="url(#p8ca82d6256)" style="fill: #ffffff; stroke: #000000; stroke-linejoin: miter"/>
   </g>
   <g id="patch_90">
    <path d="M 361.120132 102.04 
L 364.237116 102.04 
L 364.237116 102.04 
L 361.120132 102.04 
z
" clip-path="url(#p8ca82d6256)" style="fill: #ffffff; stroke: #000000; stroke-linejoin: miter"/>
   </g>
   <g id="patch_91">
    <path d="M 364.237116 102.04 
L 367.3541 102.04 
L 367.3541 102.04 
L 364.237116 102.04 
z
" clip-path="url(#p8ca82d6256)" style="fill: #ffffff; stroke: #000000; stroke-linejoin: miter"/>
   </g>
   <g id="patch_92">
    <path d="M 367.3541 102.04 
L 370.471084 102.04 
L 370.471084 102.04 
L 367.3541 102.04 
z
" clip-path="url(#p8ca82d6256)" style="fill: #ffffff; stroke: #000000; stroke-linejoin: miter"/>
   </g>
   <g id="patch_93">
    <path d="M 370.471084 102.04 
L 373.588069 102.04 
L 373.588069 102.04 
L 370.471084 102.04 
z
" clip-path="url(#p8ca82d6256)" style="fill: #ffffff; stroke: #000000; stroke-linejoin: miter"/>
   </g>
   <g id="patch_94">
    <path d="M 373.588069 102.04 
L 376.705053 102.04 
L 376.705053 102.04 
L 373.588069 102.04 
z
" clip-path="url(#p8ca82d6256)" style="fill: #ffffff; stroke: #000000; stroke-linejoin: miter"/>
   </g>
   <g id="patch_95">
    <path d="M 376.705053 102.04 
L 379.822037 102.04 
L 379.822037 102.04 
L 376.705053 102.04 
z
" clip-path="url(#p8ca82d6256)" style="fill: #ffffff; stroke: #000000; stroke-linejoin: miter"/>
   </g>
   <g id="patch_96">
    <path d="M 379.822037 102.04 
L 382.939021 102.04 
L 382.939021 102.04 
L 379.822037 102.04 
z
" clip-path="url(#p8ca82d6256)" style="fill: #ffffff; stroke: #000000; stroke-linejoin: miter"/>
   </g>
   <g id="patch_97">
    <path d="M 382.939021 102.04 
L 386.056005 102.04 
L 386.056005 102.04 
L 382.939021 102.04 
z
" clip-path="url(#p8ca82d6256)" style="fill: #ffffff; stroke: #000000; stroke-linejoin: miter"/>
   </g>
   <g id="patch_98">
    <path d="M 386.056005 102.04 
L 389.172989 102.04 
L 389.172989 102.04 
L 386.056005 102.04 
z
" clip-path="url(#p8ca82d6256)" style="fill: #ffffff; stroke: #000000; stroke-linejoin: miter"/>
   </g>
   <g id="patch_99">
    <path d="M 389.172989 102.04 
L 392.289973 102.04 
L 392.289973 102.04 
L 389.172989 102.04 
z
" clip-path="url(#p8ca82d6256)" style="fill: #ffffff; stroke: #000000; stroke-linejoin: miter"/>
   </g>
   <g id="patch_100">
    <path d="M 392.289973 102.04 
L 395.406957 102.04 
L 395.406957 102.04 
L 392.289973 102.04 
z
" clip-path="url(#p8ca82d6256)" style="fill: #ffffff; stroke: #000000; stroke-linejoin: miter"/>
   </g>
   <g id="patch_101">
    <path d="M 395.406957 102.04 
L 398.523941 102.04 
L 398.523941 102.04 
L 395.406957 102.04 
z
" clip-path="url(#p8ca82d6256)" style="fill: #ffffff; stroke: #000000; stroke-linejoin: miter"/>
   </g>
   <g id="patch_102">
    <path d="M 398.523941 102.04 
L 401.640925 102.04 
L 401.640925 102.04 
L 398.523941 102.04 
z
" clip-path="url(#p8ca82d6256)" style="fill: #ffffff; stroke: #000000; stroke-linejoin: miter"/>
   </g>
   <g id="patch_103">
    <path d="M 401.640925 102.04 
L 404.757909 102.04 
L 404.757909 102.04 
L 401.640925 102.04 
z
" clip-path="url(#p8ca82d6256)" style="fill: #ffffff; stroke: #000000; stroke-linejoin: miter"/>
   </g>
   <g id="patch_104">
    <path d="M 59.474 102.04 
L 59.474 25.44 
" style="fill: none; stroke: #000000; stroke-width: 0.8; stroke-linejoin: miter; stroke-linecap: square"/>
   </g>
   <g id="patch_105">
    <path d="M 421.2 102.04 
L 421.2 25.44 
" style="fill: none; stroke: #000000; stroke-width: 0.8; stroke-linejoin: miter; stroke-linecap: square"/>
   </g>
   <g id="patch_106">
    <path d="M 59.474 102.04 
L 421.2 102.04 
" style="fill: none; stroke: #000000; stroke-width: 0.8; stroke-linejoin: miter; stroke-linecap: square"/>
   </g>
   <g id="patch_107">
    <path d="M 59.474 25.44 
L 421.2 25.44 
" style="fill: none; stroke: #000000; stroke-width: 0.8; stroke-linejoin: miter; stroke-linecap: square"/>
   </g>
   <g id="line2d_12">
    <path d="M 75.916091 102.039728 
L 89.039348 101.926722 
L 92.216366 101.677116 
L 94.359626 101.294325 
L 96.049827 100.77199 
L 97.493161 100.095594 
L 98.790619 99.241952 
L 100.00532 98.173987 
L 101.177941 96.841772 
L 102.339341 95.177457 
L 103.511962 93.096994 
L 104.716844 90.491333 
L 105.975027 87.221755 
L 107.314565 83.09823 
L 108.780341 77.836337 
L 110.467737 70.906719 
L 112.724612 60.605248 
L 116.471108 43.481982 
L 117.949509 37.818223 
L 119.117922 34.16794 
L 120.088561 31.816941 
L 120.909115 30.37093 
L 121.607638 29.557661 
L 122.207975 29.176942 
L 122.742387 29.089754 
L 123.259968 29.232252 
L 123.807004 29.624118 
L 124.421368 30.354776 
L 125.128307 31.563854 
L 125.950264 33.438772 
L 126.915291 36.228655 
L 128.071081 40.292687 
L 129.528441 46.288717 
L 131.73482 56.434594 
L 135.263905 72.581328 
L 137.049487 79.672713 
L 138.583994 84.893374 
L 139.983845 88.89766 
L 141.299537 92.011446 
L 142.560526 94.443427 
L 143.790656 96.347031 
L 145.010967 97.83628 
L 146.249513 99.003328 
L 147.538555 99.915227 
L 148.925783 100.623572 
L 150.481329 101.164332 
L 152.323018 101.56189 
L 154.683689 101.83202 
L 158.166486 101.985783 
L 165.592151 102.038059 
L 216.180374 102.04 
L 216.180374 102.04 
" clip-path="url(#p8ca82d6256)" style="fill: none; stroke: #1f77b4; stroke-width: 2; stroke-linecap: square"/>
   </g>
   <g id="text_14">
    <!-- 100 Draws, Standardized -->
    <g transform="translate(164.753875 19.44) scale(0.12 -0.12)">
     <defs>
      <path id="DejaVuSans-44" d="M 1259 4147 
L 1259 519 
L 2022 519 
Q 2988 519 3436 956 
Q 3884 1394 3884 2338 
Q 3884 3275 3436 3711 
Q 2988 4147 2022 4147 
L 1259 4147 
z
M 628 4666 
L 1925 4666 
Q 3281 4666 3915 4102 
Q 4550 3538 4550 2338 
Q 4550 1131 3912 565 
Q 3275 0 1925 0 
L 628 0 
L 628 4666 
z
" transform="scale(0.015625)"/>
      <path id="DejaVuSans-77" d="M 269 3500 
L 844 3500 
L 1563 769 
L 2278 3500 
L 2956 3500 
L 3675 769 
L 4391 3500 
L 4966 3500 
L 4050 0 
L 3372 0 
L 2619 2869 
L 1863 0 
L 1184 0 
L 269 3500 
z
" transform="scale(0.015625)"/>
      <path id="DejaVuSans-2c" d="M 750 794 
L 1409 794 
L 1409 256 
L 897 -744 
L 494 -744 
L 750 256 
L 750 794 
z
" transform="scale(0.015625)"/>
      <path id="DejaVuSans-7a" d="M 353 3500 
L 3084 3500 
L 3084 2975 
L 922 459 
L 3084 459 
L 3084 0 
L 275 0 
L 275 525 
L 2438 3041 
L 353 3041 
L 353 3500 
z
" transform="scale(0.015625)"/>
     </defs>
     <use xlink:href="#DejaVuSans-31"/>
     <use xlink:href="#DejaVuSans-30" x="63.623047"/>
     <use xlink:href="#DejaVuSans-30" x="127.246094"/>
     <use xlink:href="#DejaVuSans-20" x="190.869141"/>
     <use xlink:href="#DejaVuSans-44" x="222.65625"/>
     <use xlink:href="#DejaVuSans-72" x="299.658203"/>
     <use xlink:href="#DejaVuSans-61" x="340.771484"/>
     <use xlink:href="#DejaVuSans-77" x="402.050781"/>
     <use xlink:href="#DejaVuSans-73" x="483.837891"/>
     <use xlink:href="#DejaVuSans-2c" x="535.9375"/>
     <use xlink:href="#DejaVuSans-20" x="567.724609"/>
     <use xlink:href="#DejaVuSans-53" x="599.511719"/>
     <use xlink:href="#DejaVuSans-74" x="662.988281"/>
     <use xlink:href="#DejaVuSans-61" x="702.197266"/>
     <use xlink:href="#DejaVuSans-6e" x="763.476562"/>
     <use xlink:href="#DejaVuSans-64" x="826.855469"/>
     <use xlink:href="#DejaVuSans-61" x="890.332031"/>
     <use xlink:href="#DejaVuSans-72" x="951.611328"/>
     <use xlink:href="#DejaVuSans-64" x="990.974609"/>
     <use xlink:href="#DejaVuSans-69" x="1054.451172"/>
     <use xlink:href="#DejaVuSans-7a" x="1082.234375"/>
     <use xlink:href="#DejaVuSans-65" x="1134.724609"/>
     <use xlink:href="#DejaVuSans-64" x="1196.248047"/>
    </g>
   </g>
  </g>
 </g>
 <defs>
  <clipPath id="p8ca82d6256">
   <rect x="59.474" y="25.44" width="361.726" height="76.6"/>
  </clipPath>
 </defs>
</svg>
