<?xml version="1.0" encoding="utf-8" standalone="no"?>
<!DOCTYPE svg PUBLIC "-//W3C//DTD SVG 1.1//EN"
  "http://www.w3.org/Graphics/SVG/1.1/DTD/svg11.dtd">
<svg xmlns:xlink="http://www.w3.org/1999/xlink" width="460.8pt" height="345.6pt" viewBox="0 0 460.8 345.6" xmlns="http://www.w3.org/2000/svg" version="1.1">
 <metadata>
  <rdf:RDF xmlns:dc="http://purl.org/dc/elements/1.1/" xmlns:cc="http://creativecommons.org/ns#" xmlns:rdf="http://www.w3.org/1999/02/22-rdf-syntax-ns#">
   <cc:Work>
    <dc:type rdf:resource="http://purl.org/dc/dcmitype/StillImage"/>
    <dc:date>2024-01-10T18:48:18.654949</dc:date>
    <dc:format>image/svg+xml</dc:format>
    <dc:creator>
     <cc:Agent>
      <dc:title>Matplotlib v3.7.2, https://matplotlib.org/</dc:title>
     </cc:Agent>
    </dc:creator>
   </cc:Work>
  </rdf:RDF>
 </metadata>
 <defs>
  <style type="text/css">*{stroke-linejoin: round; stroke-linecap: butt}</style>
 </defs>
 <g id="figure_1">
  <g id="patch_1">
   <path d="M 0 345.6 
L 460.8 345.6 
L 460.8 0 
L 0 0 
L 0 345.6 
z
" style="fill: none"/>
  </g>
  <g id="axes_1">
   <g id="patch_2">
    <path d="M 10.8 334.8 
L 450 334.8 
L 450 10.8 
L 10.8 10.8 
L 10.8 334.8 
z
" style="fill: none"/>
   </g>
   <g id="matplotlib.axis_1"/>
   <g id="matplotlib.axis_2"/>
   <g id="line2d_1">
    <path d="M 30.763636 331.370267 
L 36.592625 330.356562 
L 41.929309 329.205543 
L 46.8783 327.912953 
L 51.516656 326.473524 
L 55.90347 324.880772 
L 60.085057 323.127032 
L 64.099349 321.203012 
L 67.97709 319.098198 
L 71.74503 316.799951 
L 75.42553 314.294191 
L 79.038153 311.564914 
L 82.600468 308.593888 
L 86.128445 305.360491 
L 89.63606 301.84231 
L 93.136886 298.013795 
L 96.643702 293.846614 
L 100.168885 289.309244 
L 103.724811 284.366424 
L 107.324258 278.978478 
L 110.981201 273.099812 
L 114.710412 266.679164 
L 118.529859 259.655022 
L 122.460703 251.954465 
L 126.529296 243.488172 
L 130.771173 234.140182 
L 135.236245 223.753193 
L 140.000372 212.096634 
L 145.192919 198.790258 
L 151.077007 183.080115 
L 158.422035 162.79661 
L 178.22159 107.771698 
L 183.554682 93.822671 
L 188.08723 82.572519 
L 192.111105 73.16467 
L 195.765252 65.173068 
L 199.129128 58.338581 
L 202.254638 52.480507 
L 205.177318 47.464404 
L 207.923518 43.183049 
L 210.514002 39.547235 
L 212.965539 36.481336 
L 215.292104 33.920184 
L 217.506872 31.805966 
L 219.621822 30.088383 
L 221.648931 28.72331 
L 223.600578 27.672672 
L 225.489939 26.904521 
L 227.330987 26.39341 
L 229.138097 26.120756 
L 230.92724 26.074941 
L 232.713588 26.251785 
L 234.513112 26.654427 
L 236.340984 27.293172 
L 238.211579 28.185081 
L 240.138471 29.353594 
L 242.134837 30.828474 
L 244.212255 32.644537 
L 246.382704 34.842758 
L 248.657762 37.469493 
L 251.050206 40.57815 
L 253.573213 44.228418 
L 256.242354 48.489188 
L 259.076395 53.440727 
L 262.099292 59.179417 
L 265.341389 65.821799 
L 268.84581 73.520129 
L 272.676037 82.484013 
L 276.934285 93.031116 
L 281.807014 105.714152 
L 287.72544 121.769301 
L 296.566944 146.477801 
L 308.767133 180.475909 
L 315.218988 197.773134 
L 320.703803 211.856495 
L 325.663174 223.990316 
L 330.276376 234.699933 
L 334.639233 244.275482 
L 338.811638 252.904879 
L 342.834314 260.721088 
L 346.737209 267.825187 
L 350.543081 274.296821 
L 354.271094 280.202787 
L 357.937619 285.599558 
L 361.55663 290.535009 
L 365.141704 295.051951 
L 368.705616 299.187883 
L 372.260744 302.975886 
L 375.820264 306.446108 
L 379.397751 309.625323 
L 383.007579 312.537395 
L 386.66532 315.203617 
L 390.388542 317.643191 
L 394.196809 319.873026 
L 398.112481 321.908048 
L 402.16111 323.761169 
L 406.373442 325.443874 
L 410.785809 326.965848 
L 415.44333 328.335536 
L 420.401903 329.559891 
L 425.733796 330.6448 
L 430.036364 331.370267 
L 430.036364 331.370267 
" clip-path="url(#pb26a3714cf)" style="fill: none; stroke: #ffa500; stroke-width: 4; stroke-linecap: square"/>
   </g>
   <g id="patch_3">
    <path d="M 10.8 334.8 
L 450 334.8 
" style="fill: none; stroke: #000000; stroke-width: 0.8; stroke-linejoin: miter; stroke-linecap: square"/>
   </g>
   <g id="text_1">
    <!-- \textbf{\textsc{Stats}} -->
    <g style="fill: #1f77b4" transform="translate(112.535747 206.541616) scale(1 -1)">
     <defs>
      <path id="CMSSBX10-53" d="M 1728 2843 
C 1587 2875 1190 3023 1190 3389 
C 1190 3935 1734 3948 1952 3948 
C 2310 3948 2630 3865 2944 3556 
C 3046 3460 3053 3453 3078 3453 
C 3117 3453 3149 3473 3168 3569 
L 3264 4127 
C 3277 4179 3277 4191 3277 4211 
C 3277 4262 3270 4268 3110 4351 
C 2656 4575 2278 4608 1952 4608 
C 1382 4608 390 4473 390 3274 
C 390 2817 627 2522 749 2394 
C 1075 2059 1376 1995 1875 1880 
C 2234 1796 2374 1764 2515 1635 
C 2579 1571 2714 1436 2714 1192 
C 2714 588 2163 569 1952 569 
C 1414 569 947 788 627 1077 
C 550 1154 538 1154 512 1154 
C 474 1154 442 1134 422 1038 
L 326 480 
C 314 428 314 416 314 396 
C 314 262 979 32 1011 19 
C 1440 -116 1786 -128 1952 -128 
C 2912 -128 3514 300 3514 1295 
C 3514 2015 2982 2554 2342 2702 
L 1728 2843 
z
" transform="scale(0.015625)"/>
      <path id="CMSSBX10-74" d="M 1395 2483 
L 1965 2483 
C 2042 2483 2272 2483 2272 2713 
C 2272 2944 2042 2944 1965 2944 
L 1395 2944 
L 1395 3470 
C 1395 3673 1350 3776 1088 3776 
L 890 3776 
C 659 3776 582 3705 582 3470 
L 582 2944 
L 435 2944 
C 365 2944 128 2944 128 2713 
C 128 2483 358 2483 435 2483 
L 563 2483 
L 563 858 
C 563 211 794 -64 1235 -64 
C 1293 -64 1574 -64 1907 38 
C 2016 70 2387 185 2387 307 
C 2387 326 2374 371 2336 505 
C 2304 634 2291 672 2234 672 
C 2202 672 2195 666 2157 627 
C 2086 576 1914 435 1645 435 
C 1491 435 1395 544 1395 968 
L 1395 2483 
z
" transform="scale(0.015625)"/>
      <path id="CMSSBX10-61" d="M 2970 2047 
C 2970 3065 1997 3072 1677 3072 
C 1376 3072 1056 3046 627 2867 
C 493 2809 461 2790 461 2719 
C 461 2675 499 2300 506 2248 
C 512 2209 544 2177 589 2177 
C 621 2177 640 2196 659 2215 
C 934 2507 1254 2649 1651 2649 
C 1997 2649 2099 2436 2099 2054 
L 2099 1827 
C 1875 1827 198 1814 198 862 
C 198 409 557 -64 1120 -64 
C 1338 -64 1818 0 2118 442 
L 2118 313 
C 2118 108 2163 6 2426 6 
L 2662 6 
C 2906 6 2970 89 2970 313 
L 2970 2047 
z
M 2099 998 
C 2099 396 1491 396 1472 396 
C 1203 396 1030 629 1030 875 
C 1030 1510 1920 1555 2099 1562 
L 2099 998 
z
" transform="scale(0.015625)"/>
      <path id="CMSSBX10-73" d="M 2534 914 
C 2534 1277 2342 1503 2227 1607 
C 1971 1840 1747 1879 1478 1931 
C 1126 1995 870 2047 870 2300 
C 870 2565 1082 2617 1331 2617 
C 1760 2617 1990 2455 2157 2313 
C 2221 2248 2234 2248 2259 2248 
C 2323 2248 2336 2306 2342 2332 
C 2355 2384 2419 2745 2419 2777 
C 2419 2879 2080 2969 2010 2995 
C 1754 3065 1549 3072 1382 3072 
C 1094 3072 237 3072 237 2151 
C 237 1833 378 1639 550 1484 
C 774 1277 1024 1231 1389 1160 
C 1574 1128 1901 1069 1901 784 
C 1901 480 1651 435 1402 435 
C 1120 435 762 519 461 882 
C 429 914 410 933 371 933 
C 307 933 294 875 288 836 
C 275 746 198 377 198 313 
C 198 198 672 51 678 44 
C 1030 -64 1293 -64 1402 -64 
C 1728 -64 2534 -39 2534 914 
z
" transform="scale(0.015625)"/>
     </defs>
     <use xlink:href="#CMSSBX10-53" transform="scale(0.996264)"/>
     <use xlink:href="#CMSSBX10-74" transform="translate(60.883138 0) scale(0.996264)"/>
     <use xlink:href="#CMSSBX10-61" transform="translate(101.149042 0) scale(0.996264)"/>
     <use xlink:href="#CMSSBX10-74" transform="translate(153.453237 0) scale(0.996264)"/>
     <use xlink:href="#CMSSBX10-73" transform="translate(193.71914 0) scale(0.996264)"/>
    </g>
    <!-- 1101 -->
    <g style="fill: #1f77b4" transform="translate(136.712753 308.941817) scale(1 -1)">
     <defs>
      <path id="CMSS17-31" d="M 1818 4288 
L 1696 4288 
C 1350 3949 947 3902 538 3891 
L 538 3520 
C 723 3526 1024 3539 1325 3673 
L 1325 371 
L 570 371 
L 570 0 
L 2573 0 
L 2573 371 
L 1818 371 
L 1818 4288 
z
" transform="scale(0.015625)"/>
      <path id="CMSS17-30" d="M 2758 2073 
C 2758 2439 2752 3120 2490 3647 
C 2227 4153 1805 4288 1504 4288 
C 1069 4288 698 4031 506 3621 
C 301 3191 243 2748 243 2073 
C 243 1611 262 1046 493 551 
C 755 6 1197 -128 1498 -128 
C 1894 -128 2278 83 2496 525 
C 2720 988 2758 1495 2758 2073 
z
M 1498 262 
C 1011 262 864 821 819 1007 
C 742 1328 730 1636 730 2144 
C 730 2542 730 2992 851 3345 
C 998 3756 1254 3897 1498 3897 
C 1971 3897 2125 3422 2176 3255 
C 2272 2915 2272 2516 2272 2144 
C 2272 1546 2272 262 1498 262 
z
" transform="scale(0.015625)"/>
     </defs>
     <use xlink:href="#CMSS17-31" transform="scale(0.996264)"/>
     <use xlink:href="#CMSS17-31" transform="translate(46.843624 0) scale(0.996264)"/>
     <use xlink:href="#CMSS17-30" transform="translate(93.687247 0) scale(0.996264)"/>
     <use xlink:href="#CMSS17-31" transform="translate(140.530871 0) scale(0.996264)"/>
    </g>
   </g>
  </g>
 </g>
 <defs>
  <clipPath id="pb26a3714cf">
   <rect x="10.8" y="10.8" width="439.2" height="324"/>
  </clipPath>
 </defs>
</svg>
